<?xml version="1.0" encoding="UTF-8"?>
<svg width="75px" height="75px" viewBox="0 0 75 75" version="1.1" xmlns="http://www.w3.org/2000/svg" xmlns:xlink="http://www.w3.org/1999/xlink">
    <!-- Generator: sketchtool 58 (101010) - https://sketch.com -->
    <title>79903A98-69FB-4B8E-BF9D-27F3FFB790C5@1.00x</title>
    <desc>Created with sketchtool.</desc>
    <g id="Page-1" stroke="none" stroke-width="1" fill="none" fill-rule="evenodd">
        <g id="Desktop-HD-Copy" transform="translate(-683.000000, -270.000000)" fill-rule="nonzero">
            <g id="presentation-(2)" transform="translate(683.000000, 270.000000)">
                <g id="Group" transform="translate(1.000000, 2.000000)" fill="#47E4C2">
                    <path d="M36.5034495,0.0780206899 C38.5846301,0.0780206899 40.2714214,1.7489172 40.2714214,3.80991715 L40.2714214,7.54238321 L32.7360524,7.54238321 L32.7360524,3.80991715 C32.7360524,1.7489172 34.4228437,0.0780206899 36.5034495,0.0780206899 Z" id="Path"></path>
                    <path d="M33.9916598,57.3053693 L39.0152391,57.3053693 L39.0152391,68.5021978 C39.0152391,69.8763877 37.8907117,70.9903186 36.5034495,70.9903186 C35.1161873,70.9903186 33.9916598,69.8763877 33.9916598,68.5021978 L33.9916598,57.3053693 Z" id="Path"></path>
                    <path d="M46.3246676,57.3053693 L55.8699282,66.7481552 C56.8513026,67.720282 56.8513026,69.2966424 55.8699282,70.2687693 C54.8879788,71.2408961 53.2971979,71.2408961 52.3152485,70.2687693 L39.2411794,57.3053693 L33.7657195,57.3053693 L20.6916504,70.2687693 C19.710276,71.2408961 18.1189201,71.2408961 17.1375456,70.2687693 C16.1555963,69.2966424 16.1555963,67.720282 17.1375456,66.7481552 L26.6822313,57.3053693 L46.3246676,57.3053693 Z" id="Path"></path>
                    <path d="M72.9252615,8.78615888 C72.9149131,10.1563622 71.7961346,11.2640288 70.4134718,11.2742797 L2.59400202,11.2742797 C1.20846467,11.2702933 0.0862368427,10.1586403 0.082167729,8.78615888 C0.078188004,8.12611489 0.346096827,7.49283717 0.82327369,7.03211627 C1.28837729,6.55943603 1.92767921,6.29462105 2.59400202,6.29800543 L70.4134718,6.29800543 C71.7990093,6.30202444 72.9206622,7.41367742 72.9252615,8.78615888 Z" id="Path"></path>
                </g>
                <path d="M70,10.5000164 C69.9898126,11.8767526 68.8884476,12.9897003 67.5273052,13 L4.47273877,13 C3.10876665,12.9959946 2.00400578,11.8790416 2,10.5000164 C1.99608222,9.83682548 2.25982117,9.20052843 2.72957099,8.73761092 C3.18743548,8.26267705 3.81678696,7.99659949 4.47273877,8 L67.5273052,8 C68.8912773,8.00403818 69.9960382,9.12099126 70,10.5000164 Z" id="Path" fill="#47E4C2"></path>
                <path d="M49.2501431,25 L51.749857,25 C52.4398672,25 53,25.5419457 53,26.2102347 L53,46.7892112 C53,47.4580543 52.4398672,48 51.749857,48 L49.2501431,48 C48.5595607,48 48,47.4580543 48,46.7892112 L48,26.2102347 C48,25.5419457 48.5595607,25 49.2501431,25 L49.2501431,25 Z" id="Path" fill="#47E4C2"></path>
                <path d="M59.2497139,20 L61.7497139,20 C62.4403754,20 63,20.5450204 63,21.2171005 L63,46.7823422 C63,47.4549798 62.4403754,48 61.7497139,48 L59.2497139,48 C58.5596246,48 58,47.4549798 58,46.7823422 L58,21.2171005 C58,20.5450204 58.5596246,20 59.2497139,20 L59.2497139,20 Z" id="Path" fill="#47E4C2"></path>
                <path d="M5.59990722,57.4762471 C5.60979538,56.0864212 6.67882283,54.9623142 8,54.9519166 L8,12.0475389 C6.67607613,12.0434955 5.60375268,10.9159227 5.59990722,9.52378603 C5.60979538,8.13453777 6.67882283,7.01043076 8,7 L4.40013549,7 C3.7634434,6.99656716 3.15257061,7.26517453 2.70814971,7.74462397 C2.25219243,8.2119428 1.99619725,8.85428962 2,9.52378603 C2.00388816,10.9159227 3.07621162,12.0434955 4.40013549,12.0475389 L4.40013549,54.9519166 C3.7634434,54.9484506 3.15257061,55.2176356 2.70814971,55.6965074 C2.25219243,56.1644039 1.99619725,56.8061731 2,57.4762471 C2.00388816,58.8683837 3.07621162,59.9953788 4.40013549,60 L8,60 C6.67607613,59.9953788 5.60375268,58.8683837 5.59990722,57.4762471 L5.59990722,57.4762471 Z" id="Path" fill="#FFFFFF"></path>
                <polygon id="Path" fill="#FFFFFF" points="5 12 5 55 2 55 2 12"></polygon>
                <path d="M75,9.99892275 C75,7.92830578 73.3211538,6.24961283 71.250348,6.24961283 L42.4999655,6.24961283 L42.4999655,4.9994613 C42.4999655,2.23825737 40.2615041,0 37.5000479,0 C34.7385925,0 32.500131,2.23825737 32.500131,4.9994613 L32.500131,6.24961283 L3.75032069,6.24961283 C1.92613481,6.24617985 0.365162698,7.55869587 0.056172618,9.35639637 C-0.253389629,11.154097 0.779438287,12.9128912 2.50004786,13.5187999 L2.50004786,17.4981148 C2.50004786,18.188702 3.0596706,18.7482662 3.75032069,18.7482662 C4.44039861,18.7482662 5.0000139,18.188702 5.0000139,17.4981148 L5.0000139,13.7488049 L70.0000827,13.7488049 L70.0000827,53.745068 L5.0000139,53.745068 L5.0000139,27.4976097 C5.0000139,26.8070226 4.44039861,26.2474583 3.75032069,26.2474583 C3.0596706,26.2474583 2.50004786,26.8070226 2.50004786,27.4976097 L2.50004786,53.9710678 C1.97763323,54.1495792 1.50384829,54.4459538 1.11532198,54.8373055 C0.397778281,55.5347585 -0.0050532015,56.4942568 4.7863183e-05,57.4949501 C4.7863183e-05,59.565567 1.67894274,61.24426 3.75032069,61.24426 L24.7049979,61.24426 L17.3413066,68.5975535 C15.8770369,70.0628339 15.8776091,72.4372633 17.3424509,73.9019716 C18.8078651,75.3661078 21.1830832,75.3655357 22.647925,73.9008274 L33.7503964,62.7879253 L33.7503964,71.2431829 C33.7503964,73.3143718 35.4292426,74.9930649 37.5000479,74.9930649 C39.5714262,74.9930649 41.2502723,73.3143718 41.2502723,71.2431829 L41.2502723,62.7879253 L52.353888,73.9019716 C53.3014576,74.8494548 54.6827578,75.2190648 55.977655,74.8717687 C57.2719802,74.5244726 58.2824923,73.5134807 58.6292477,72.2187014 C58.9760032,70.9244943 58.6052151,69.5433202 57.6576455,68.5964091 L50.2950987,61.24426 L71.250348,61.24426 C73.3165762,61.2328171 74.9885558,59.5609898 75,57.4949501 C74.9937057,55.9112342 73.9929212,54.5025968 72.5000479,53.9750729 L72.5000479,13.5187999 C73.9929212,12.9907038 74.9937057,11.5826386 75,9.99892275 Z M35.0000896,4.9994613 C35.0000896,3.61885933 36.1193204,2.49973065 37.5000484,2.49973065 C38.8807762,2.49973065 40.0000069,3.61885933 40.0000069,4.9994613 L40.0000069,6.24961283 L35.0000896,6.24961283 L35.0000896,4.9994613 Z M3.75032069,11.2490741 C3.0596706,11.2490741 2.50005531,10.6895099 2.50005531,9.99892275 C2.50005531,9.30890789 3.0596706,8.74934348 3.75032069,8.74934348 L71.250348,8.74934348 C71.940426,8.74934348 72.5000413,9.30890789 72.5000413,9.99892275 C72.5000413,10.6895099 71.940426,11.2490741 71.250348,11.2490741 L3.75032069,11.2490741 Z M20.8752376,72.1345951 C20.3797091,72.6060481 19.6009396,72.6060481 19.1054111,72.1345951 C18.8702353,71.9000128 18.7386283,71.5818967 18.7386283,71.2500485 C18.7386283,70.9187728 18.8702353,70.6006565 19.1054111,70.3660742 L28.2423622,61.24426 L31.759127,61.24426 L20.8752376,72.1345951 Z M38.7503137,71.2431829 C38.7503137,71.9337698 38.1906983,72.4933342 37.5000484,72.4933342 C36.8099704,72.4933342 36.2503551,71.9337698 36.2503551,71.2431829 L36.2503551,61.24426 L38.7503137,61.24426 L38.7503137,71.2431829 Z M55.8912523,70.3683628 C56.1264281,70.6029451 56.2586071,70.9216335 56.2586071,71.2534815 C56.2586071,71.5853295 56.1264281,71.9040179 55.8912523,72.1386002 C55.3957237,72.6083367 54.618671,72.6083367 54.1225702,72.1386002 L43.2415417,61.24426 L46.7577344,61.24426 L55.8912523,70.3683628 Z M72.1178091,58.3880788 C71.8889275,58.6203724 71.5759321,58.7491065 71.250348,58.7445293 L3.75032069,58.7445293 C3.0596706,58.7445293 2.50004827,58.1849651 2.50004827,57.4949501 C2.49891083,57.1579528 2.63738423,56.8358313 2.88285965,56.604682 C3.11059671,56.3718164 3.42416456,56.2413657 3.75032069,56.2447987 L71.250348,56.2447987 C71.940426,56.2447987 72.5000483,56.8043629 72.5000483,57.4949501 C72.5000483,57.8313752 72.3621402,58.1534967 72.1178091,58.384646 L72.1178091,58.3880788 Z" id="Shape" fill="#000000"></path>
                <path d="M3.495956,24 C3.89386754,23.9945068 4.27525697,23.838636 4.56370852,23.5653468 C5.14543049,22.9734494 5.14543049,22.0265508 4.56370852,21.43534 L4.337904,21.2547494 C4.25391565,21.1984435 4.16304309,21.1531243 4.06735168,21.1201648 C3.98198638,21.0769055 3.891114,21.0466926 3.79679917,21.0302129 C3.6969771,21.0130465 3.59646646,21.0034334 3.495956,21 C3.0973559,21.0061799 2.71665503,21.1613642 2.42820348,21.43534 C2.29189474,21.5781644 2.18518829,21.7463951 2.11221496,21.9297323 C1.8850335,22.4893568 2.00895061,23.130007 2.42820348,23.5653468 C2.57208497,23.7006182 2.74006168,23.8077363 2.92456032,23.8798353 C3.10492866,23.9567408 3.29906538,23.9979402 3.495956,24 Z" id="Path" fill="#000000"></path>
                <path d="M12.2616022,17 C11.5649482,17 11,17.5688051 11,18.2694989 L11,48.7310821 C11,49.4317758 11.5649482,50 12.2616022,50 L62.7383978,50 C63.4350518,50 64,49.4317758 64,48.7310821 L64,19.5389978 C64,18.8377231 63.4350518,18.2694989 62.7383978,18.2694989 L57.6908339,18.2694989 C56.9936022,18.2694989 56.4286541,18.8377231 56.4286541,19.5389978 L56.4286541,47.4615832 L53.9048719,47.4615832 L53.9048719,24.6158316 C53.9048719,23.9145568 53.3399238,23.3463325 52.6432697,23.3463325 L47.595128,23.3463325 C46.8984741,23.3463325 46.3335258,23.9145568 46.3335258,24.6158316 L46.3335258,47.4615832 L43.8097438,47.4615832 L43.8097438,28.4231663 C43.8097438,27.7224727 43.2447957,27.1542484 42.547564,27.1542484 L37.5,27.1542484 C36.803346,27.1542484 36.2383979,27.7224727 36.2383979,28.4231663 L36.2383979,47.4615832 L33.7146158,47.4615832 L33.7146158,32.2310822 C33.7146158,31.5298074 33.1490898,30.9615831 32.452436,30.9615831 L27.4048718,30.9615831 C26.7076403,30.9615831 26.142692,31.5298074 26.142692,32.2310822 L26.142692,47.4615832 L23.6189101,47.4615832 L23.6189101,36.0384169 C23.6189101,35.3377231 23.0539619,34.769499 22.3573079,34.769499 L17.3097439,34.769499 C16.6125123,34.769499 16.047564,35.3377231 16.047564,36.0384169 L16.047564,47.4615832 L13.523782,47.4615832 L13.523782,18.2694989 C13.523782,17.5688051 12.9588337,17 12.2616022,17 Z M58.952436,20.8079157 L61.476218,20.8079157 L61.476218,47.4615832 L58.952436,47.4615832 L58.952436,20.8079157 Z M48.857308,25.8847495 L51.3810899,25.8847495 L51.3810899,47.4615832 L48.857308,47.4615832 L48.857308,25.8847495 Z M38.7621799,29.6926652 L41.2859619,29.6926652 L41.2859619,47.4615832 L38.7621799,47.4615832 L38.7621799,29.6926652 Z M28.666474,33.5000001 L31.1902562,33.5000001 L31.1902562,47.4615832 L28.666474,47.4615832 L28.666474,33.5000001 Z M18.5713461,37.3079158 L21.0951281,37.3079158 L21.0951281,47.4615832 L18.5713461,47.4615832 L18.5713461,37.3079158 Z" id="Shape" fill="#000000"></path>
            </g>
        </g>
    </g>
</svg>