<?xml version="1.0" encoding="UTF-8"?>
<svg width="150px" height="126px" viewBox="0 0 150 126" version="1.1" xmlns="http://www.w3.org/2000/svg" xmlns:xlink="http://www.w3.org/1999/xlink">
    <!-- Generator: sketchtool 58 (101010) - https://sketch.com -->
    <title>4FAC0B36-712C-4A93-A430-44DAE230A35E@1.00x</title>
    <desc>Created with sketchtool.</desc>
    <g id="Page-1" stroke="none" stroke-width="1" fill="none" fill-rule="evenodd">
        <g id="Desktop-HD" transform="translate(-265.000000, -1816.000000)" fill-rule="nonzero">
            <g id="responsive-design" transform="translate(265.000000, 1816.000000)">
                <path d="M63.6884766,118.621289 L63.6884766,117.592383 L43.7794922,117.592383 C41.9865234,117.592383 40.5328125,119.046094 40.5328125,120.839062 C40.5328125,122.632031 41.9865234,124.085742 43.7794922,124.085742 L69.1523438,124.085742 C66.1476563,124.085156 63.6884766,121.626562 63.6884766,118.621289 L63.6884766,118.621289 Z" id="Path" fill="#EDF4FC"></path>
                <polygon id="Path" fill="#C7D7E5" points="54.4236328 102.713086 63.6884766 102.713086 63.6884766 117.592383 54.4236328 117.592383"></polygon>
                <path d="M107.107031,117.800391 L107.107031,61.8755859 C107.107031,58.4185547 109.935352,55.5908203 113.391797,55.5908203 L133.631836,55.5908203 L133.631836,34.6183594 C133.631836,31.6130859 131.172656,29.1544922 128.167969,29.1544922 L69.1529297,29.1544922 C66.1476563,29.1544922 63.6890625,31.6130859 63.6890625,34.6183594 L63.6890625,118.621289 C63.6890625,121.626562 66.1476563,124.085156 69.1529297,124.085156 L113.391797,124.085156 C109.935352,124.085156 107.107031,121.257422 107.107031,117.800391 L107.107031,117.800391 Z" id="Path" fill="#FFFFFF"></path>
                <path d="M63.6884766,34.6183594 C63.6884766,31.6130859 66.1470703,29.1544922 69.1523438,29.1544922 L128.167383,29.1544922 C131.17207,29.1544922 133.63125,31.6130859 133.63125,34.6177734 L133.63125,9.13652344 C133.63125,5.32441406 130.511719,2.20488281 126.699609,2.20488281 L8.39648438,2.20488281 C4.584375,2.20488281 1.46484375,5.32382813 1.46484375,9.13652344 L1.46484375,95.7814453 C1.46484375,99.5941406 4.58378906,102.713086 8.39648438,102.713086 L63.6884766,102.713086 L63.6884766,34.6183594 Z" id="Path" fill="#FFFFFF"></path>
                <path d="M142.250391,55.5908203 L113.391797,55.5908203 C109.935352,55.5908203 107.107031,58.4185547 107.107031,61.8755859 L107.107031,117.800391 C107.107031,121.256836 109.935352,124.085156 113.391797,124.085156 L142.250391,124.085156 C145.706836,124.085156 148.535156,121.256836 148.535156,117.800391 L148.535156,61.8755859 C148.535156,58.4191406 145.706836,55.5908203 142.250391,55.5908203 Z" id="Path" fill="#FFFFFF"></path>
                <path d="M141.168164,61.1144531 L134.702344,61.1144531 C133.809961,61.1144531 132.992578,61.6458984 132.663281,62.4755859 C131.898047,64.4009766 130.018945,65.7621094 127.820508,65.7621094 C125.62207,65.7621094 123.742969,64.4003906 122.977734,62.4755859 C122.647852,61.6458984 121.831055,61.1144531 120.938672,61.1144531 L114.472852,61.1144531 C113.455078,61.1144531 112.630078,61.9394531 112.630078,62.9572266 L112.630078,116.718164 C112.630078,117.735937 113.455078,118.560937 114.472852,118.560937 L141.167578,118.560937 C142.185352,118.560937 143.010353,117.735937 143.010353,116.718164 L143.010353,62.9572266 C143.011523,61.9394531 142.186523,61.1144531 141.168164,61.1144531 L141.168164,61.1144531 Z" id="Path" fill="#EDF4FC"></path>
                <path d="M107.107031,117.800391 L107.107031,61.8755859 C107.107031,58.4185547 109.935352,55.5908203 113.391797,55.5908203 L127.667578,55.5908203 L127.667578,35.6578125 C127.667578,35.3601562 127.426172,35.11875 127.12793,35.11875 L70.1923828,35.11875 C69.8947266,35.11875 69.6527344,35.3601562 69.6527344,35.6578125 L69.6527344,117.581836 C69.6527344,117.879492 69.8941406,118.120898 70.1923828,118.120898 L107.123437,118.120898 C107.118164,118.014258 107.107031,117.908789 107.107031,117.800391 L107.107031,117.800391 Z" id="Path" fill="#47E4C2"></path>
                <path d="M63.6884766,84.2285156 L1.46484375,84.2285156 L1.46484375,95.7814453 C1.46484375,99.5941406 4.58378906,102.713086 8.39648438,102.713086 L63.6884766,102.713086 L63.6884766,84.2285156 Z" id="Path" fill="#EDF4FC"></path>
                <path d="M63.6884766,34.6183594 C63.6884766,31.6130859 66.1470703,29.1544922 69.1523438,29.1544922 L127.855078,29.1544922 L127.855078,9.13652344 C127.855078,8.50136719 127.335352,7.98164062 126.699609,7.98164062 L8.39648438,7.98164062 C7.76132813,7.98164062 7.24101563,8.50136719 7.24101563,9.13652344 L7.24101563,84.2285156 L63.6884766,84.2285156 L63.6884766,34.6183594 Z" id="Path" fill="#EDF4FC"></path>
                <path d="M126.700195,7.98105469 L8.39648438,7.98105469 C7.76132813,7.98105469 7.24101563,8.50078125 7.24101563,9.13652344 L7.24101563,14.953125 L127.855664,14.953125 L127.855664,9.13652344 C127.855664,8.50136719 127.335352,7.98105469 126.700195,7.98105469 Z" id="Path" fill="#47E4C2"></path>
                <path d="M16.6992188,7.98105469 L8.39648438,7.98105469 C7.76132813,7.98105469 7.24101563,8.50078125 7.24101563,9.13652344 L7.24101563,14.953125 L16.6992188,14.953125 L16.6992188,7.98105469 Z" id="Path" fill="#FC657E"></path>
                <path d="M35.0015625,77.6484375 L16.5609375,77.6484375 C15.3427734,77.6484375 14.3554688,76.6611328 14.3554688,75.4429687 L14.3554688,51.7294922 C14.3554688,50.5113281 15.3427734,49.5240234 16.5609375,49.5240234 L35.0009766,49.5240234 C36.2191406,49.5240234 37.2064456,50.5113281 37.2064456,51.7294922 L37.2064456,75.4429687 C37.2070312,76.6611328 36.2197266,77.6484375 35.0015625,77.6484375 Z" id="Path" fill="#FFFFFF"></path>
                <path d="M63.6884766,77.6484375 L63.6884766,49.5234375 L45.8578125,49.5234375 C44.6396484,49.5234375 43.6523438,50.5107422 43.6523438,51.7289062 L43.6523438,75.4423828 C43.6523438,76.6605469 44.6396484,77.6478516 45.8578125,77.6478516 L63.6884766,77.6478516 L63.6884766,77.6484375 Z" id="Path" fill="#FFFFFF"></path>
                <path d="M136.376367,91.8105469 L119.266406,91.8105469 C118.32832,91.8105469 117.567773,92.5710938 117.567773,93.5091797 L117.567773,97.7419922 C117.567773,98.6800781 118.32832,99.440625 119.266406,99.440625 L136.376367,99.440625 C137.314453,99.440625 138.075,98.6800781 138.075,97.7419922 L138.075,93.5091797 C138.075,92.5716797 137.314453,91.8105469 136.376367,91.8105469 Z" id="Path" fill="#47E4C2"></path>
                <path d="M136.376367,105.074414 L119.266406,105.074414 C118.32832,105.074414 117.567773,105.834961 117.567773,106.773047 L117.567773,111.005859 C117.567773,111.943945 118.32832,112.704492 119.266406,112.704492 L136.376367,112.704492 C137.314453,112.704492 138.075,111.943945 138.075,111.005859 L138.075,106.773047 C138.075,105.834961 137.314453,105.074414 136.376367,105.074414 Z" id="Path" fill="#47E4C2"></path>
                <path d="M136.376367,78.5472656 L119.266406,78.5472656 C118.32832,78.5472656 117.567773,79.3078125 117.567773,80.2458984 L117.567773,84.4787109 C117.567773,85.4167969 118.32832,86.1773438 119.266406,86.1773438 L136.376367,86.1773438 C137.314453,86.1773438 138.075,85.4167969 138.075,84.4787109 L138.075,80.2458984 C138.075,79.3078125 137.314453,78.5472656 136.376367,78.5472656 Z" id="Path" fill="#47E4C2"></path>
                <path d="M78.73125,57.6123047 C77.4943359,57.6123047 76.4912109,58.6148438 76.4912109,59.8523438 L76.4912109,68.5447266 C76.4912109,69.7816406 77.49375,70.7847656 78.73125,70.7847656 L107.107031,70.7847656 L107.107031,61.8761719 C107.107031,60.2326172 107.751563,58.7355469 108.793945,57.6128906 L78.73125,57.6128906 L78.73125,57.6123047 Z" id="Path" fill="#FFFFFF"></path>
                <path d="M78.73125,77.8271484 C77.4943359,77.8271484 76.4912109,78.8296875 76.4912109,80.0671875 L76.4912109,88.7595703 C76.4912109,89.9964844 77.49375,90.9996094 78.73125,90.9996094 L107.107031,90.9996094 L107.107031,77.8277344 L78.73125,77.8277344 L78.73125,77.8271484 Z" id="Path" fill="#FFFFFF"></path>
                <path d="M78.73125,98.0419922 C77.4943359,98.0419922 76.4912109,99.0445313 76.4912109,100.282031 L76.4912109,108.974414 C76.4912109,110.211328 77.49375,111.214453 78.73125,111.214453 L107.107031,111.214453 L107.107031,98.0425781 L78.73125,98.0425781 L78.73125,98.0419922 Z" id="Path" fill="#FFFFFF"></path>
                <path d="M69.1529297,125.55 L43.7800781,125.55 C41.1820312,125.55 39.0685547,123.436523 39.0685547,120.838477 C39.0685547,118.24043 41.1820312,116.127539 43.7800781,116.127539 L63.2994141,116.127539 C64.1085937,116.127539 64.7642578,116.783203 64.7642578,117.592383 C64.7642578,118.401562 64.1085937,119.057227 63.2994141,119.057227 L43.7800781,119.057227 C42.7974609,119.057227 41.9982422,119.855859 41.9982422,120.838477 C41.9982422,121.821094 42.7974609,122.620312 43.7800781,122.620312 L69.1529297,122.620312 C69.9621094,122.620312 70.6177734,123.275977 70.6177734,124.085156 C70.6177734,124.894336 69.9615234,125.55 69.1529297,125.55 Z" id="Path" fill="#000000"></path>
                <path d="M54.4236328,118.608984 C53.6144531,118.608984 52.9587891,117.95332 52.9587891,117.144141 L52.9587891,103.161328 C52.9587891,102.352148 53.6144531,101.696484 54.4236328,101.696484 C55.2328125,101.696484 55.8884766,102.352148 55.8884766,103.161328 L55.8884766,117.144141 C55.8884766,117.95332 55.2328125,118.608984 54.4236328,118.608984 Z" id="Path" fill="#000000"></path>
                <path d="M113.391211,125.55 L69.1523438,125.55 C65.3314453,125.55 62.2236328,122.441602 62.2236328,118.621289 L62.2236328,34.6183594 C62.2236328,30.7974609 65.3320312,27.6896484 69.1523438,27.6896484 L128.167383,27.6896484 C131.988281,27.6896484 135.096094,30.7980469 135.096094,34.6183594 L135.096094,55.2117187 C135.096094,56.0208984 134.44043,56.6765625 133.63125,56.6765625 C132.82207,56.6765625 132.166406,56.0208984 132.166406,55.2117187 L132.166406,34.6183594 C132.166406,32.4128906 130.372266,30.6193359 128.167383,30.6193359 L69.1529297,30.6193359 C66.9474609,30.6193359 65.1539062,32.4134766 65.1539062,34.6183594 L65.1539062,118.621289 C65.1539062,120.826758 66.9480469,122.620312 69.1529297,122.620312 L113.391797,122.620312 C114.200977,122.620312 114.856641,123.275977 114.856641,124.085156 C114.856641,124.894336 114.200391,125.55 113.391211,125.55 Z" id="Path" fill="#000000"></path>
                <path d="M63.3544922,104.17793 L8.39648437,104.17793 C3.76699219,104.17793 0,100.410938 0,95.7814453 L0,9.1359375 C0,4.50644531 3.76699219,0.740039063 8.39648437,0.740039063 L126.700195,0.740039063 C131.329688,0.740039063 135.096094,4.50644531 135.096094,9.1359375 L135.096094,34.6171875 C135.096094,35.4263672 134.44043,36.0820313 133.63125,36.0820313 C132.82207,36.0820313 132.166406,35.4263672 132.166406,34.6171875 L132.166406,9.1359375 C132.166406,6.12128906 129.714258,3.66972656 126.700195,3.66972656 L8.39648438,3.66972656 C5.38183594,3.66972656 2.9296875,6.121875 2.9296875,9.1359375 L2.9296875,95.7814453 C2.9296875,98.7960938 5.38242188,101.248242 8.39648438,101.248242 L63.3544922,101.248242 C64.1636719,101.248242 64.8193359,101.903906 64.8193359,102.713086 C64.8193359,103.522266 64.1636719,104.17793 63.3544922,104.17793 Z" id="Path" fill="#000000"></path>
                <path d="M142.250391,125.55 L113.391211,125.55 C109.117969,125.55 105.641602,122.073633 105.641602,117.800391 L105.641602,61.8755859 C105.641602,57.6023437 109.117969,54.1259766 113.391211,54.1259766 L142.250391,54.1259766 C146.523633,54.1259766 150,57.6023437 150,61.8755859 L150,117.800391 C150,122.073633 146.523633,125.55 142.250391,125.55 Z M113.391211,57.0556641 C110.733984,57.0556641 108.571289,59.2177734 108.571289,61.8755859 L108.571289,117.800391 C108.571289,120.457617 110.733398,122.620312 113.391211,122.620312 L142.250391,122.620312 C144.907617,122.620312 147.070312,120.458203 147.070312,117.800391 L147.070312,61.8755859 C147.070312,59.2183594 144.908203,57.0556641 142.250391,57.0556641 L113.391211,57.0556641 Z" id="Shape" fill="#000000"></path>
                <path d="M21.3867188,23.4492188 L17.8710938,23.4492188 C17.0619141,23.4492188 16.40625,22.7935547 16.40625,21.984375 C16.40625,21.1751953 17.0619141,20.5195312 17.8710938,20.5195312 L21.3867188,20.5195312 C22.1958984,20.5195312 22.8515625,21.1751953 22.8515625,21.984375 C22.8515625,22.7935547 22.1958984,23.4492188 21.3867188,23.4492188 Z" id="Path" fill="#000000"></path>
                <path d="M31.640625,23.4492188 L28.125,23.4492188 C27.3158203,23.4492188 26.6601562,22.7935547 26.6601562,21.984375 C26.6601562,21.1751953 27.3158203,20.5195312 28.125,20.5195312 L31.640625,20.5195312 C32.4498047,20.5195312 33.1054688,21.1751953 33.1054688,21.984375 C33.1054688,22.7935547 32.4498047,23.4492188 31.640625,23.4492188 Z" id="Path" fill="#000000"></path>
                <path d="M41.8945312,23.4492188 L38.3789062,23.4492188 C37.5697266,23.4492188 36.9140625,22.7935547 36.9140625,21.984375 C36.9140625,21.1751953 37.5697266,20.5195312 38.3789062,20.5195312 L41.8945312,20.5195312 C42.7037109,20.5195312 43.359375,21.1751953 43.359375,21.984375 C43.359375,22.7935547 42.7037109,23.4492188 41.8945312,23.4492188 Z" id="Path" fill="#000000"></path>
                <path d="M80.5664062,43.3710938 L77.0507812,43.3710938 C76.2416016,43.3710938 75.5859375,42.7154297 75.5859375,41.90625 C75.5859375,41.0970703 76.2416016,40.4414062 77.0507812,40.4414062 L80.5664062,40.4414062 C81.3755859,40.4414062 82.03125,41.0970703 82.03125,41.90625 C82.03125,42.7154297 81.3755859,43.3710938 80.5664062,43.3710938 Z" id="Path" fill="#000000"></path>
                <path d="M90.8203125,43.3710938 L87.3046875,43.3710938 C86.4955078,43.3710938 85.8398438,42.7154297 85.8398438,41.90625 C85.8398438,41.0970703 86.4955078,40.4414062 87.3046875,40.4414062 L90.8203125,40.4414062 C91.6294922,40.4414062 92.2851562,41.0970703 92.2851562,41.90625 C92.2851562,42.7154297 91.6294922,43.3710938 90.8203125,43.3710938 Z" id="Path" fill="#000000"></path>
                <path d="M101.074219,43.3710938 L97.5585938,43.3710938 C96.7494141,43.3710938 96.09375,42.7154297 96.09375,41.90625 C96.09375,41.0970703 96.7494141,40.4414062 97.5585938,40.4414062 L101.074219,40.4414062 C101.883398,40.4414062 102.539062,41.0970703 102.539062,41.90625 C102.539062,42.7154297 101.883398,43.3710938 101.074219,43.3710938 Z" id="Path" fill="#000000"></path>
                <path d="M136.816406,72.0820312 L133.300781,72.0820312 C132.491602,72.0820312 131.835938,71.4263672 131.835938,70.6171875 C131.835938,69.8080078 132.491602,69.1523438 133.300781,69.1523438 L136.816406,69.1523438 C137.625586,69.1523438 138.28125,69.8080078 138.28125,70.6171875 C138.28125,71.4263672 137.625586,72.0820312 136.816406,72.0820312 Z" id="Path" fill="#000000"></path>
                <path d="M141.16875,120.026367 L114.473438,120.026367 C112.65,120.026367 111.16582,118.542773 111.16582,116.718164 L111.16582,62.9572266 C111.16582,61.1332031 112.649414,59.6490234 114.473438,59.6490234 L120.939258,59.6490234 C122.45332,59.6490234 123.788086,60.5455078 124.340039,61.9330078 C124.910742,63.3685547 126.277148,64.2960937 127.821094,64.2960937 C129.365039,64.2960937 130.732031,63.3685547 131.302148,61.9330078 C131.853516,60.5455078 133.188281,59.6490234 134.702344,59.6490234 L141.168164,59.6490234 C142.991602,59.6490234 144.475781,61.1326172 144.475781,62.9572266 L144.475781,116.718164 C144.475781,118.542773 142.992188,120.026367 141.16875,120.026367 L141.16875,120.026367 Z M114.473438,62.5792969 C114.26543,62.5792969 114.095508,62.7492187 114.095508,62.9578125 L114.095508,116.71875 C114.095508,116.926758 114.264844,117.097266 114.473438,117.097266 L141.16875,117.097266 C141.376758,117.097266 141.54668,116.927344 141.54668,116.71875 L141.54668,62.9578125 C141.54668,62.7498047 141.377344,62.5792969 141.16875,62.5792969 L134.70293,62.5792969 C134.401172,62.5792969 134.129297,62.7550781 134.025586,63.0164062 C133.008984,65.5740234 130.573242,67.2269531 127.82168,67.2269531 C125.069531,67.2269531 122.633789,65.5746094 121.617773,63.0158203 C121.513477,62.7550781 121.241016,62.5792969 120.939844,62.5792969 L114.473438,62.5792969 Z" id="Shape" fill="#000000"></path>
                <path d="M106.897266,119.585742 L70.1923828,119.585742 C69.0867187,119.585742 68.1878906,118.686914 68.1878906,117.581836 L68.1878906,35.6578125 C68.1878906,34.5521484 69.0867187,33.6533203 70.1923828,33.6533203 L127.128516,33.6533203 C128.233594,33.6533203 129.132422,34.5521484 129.132422,35.6578125 L129.132422,55.3095703 C129.132422,56.11875 128.476758,56.7744141 127.667578,56.7744141 C126.858398,56.7744141 126.202734,56.11875 126.202734,55.3095703 L126.202734,36.5830078 L71.1175781,36.5830078 L71.1175781,116.656055 L106.89668,116.656055 C107.705859,116.656055 108.361523,117.311719 108.361523,118.120898 C108.361523,118.930078 107.705859,119.585742 106.897266,119.585742 L106.897266,119.585742 Z" id="Path" fill="#000000"></path>
                <path d="M63.4646484,85.6933594 L1.86738281,85.6933594 C1.05820312,85.6933594 0.402539062,85.0376953 0.402539062,84.2285156 C0.402539062,83.4193359 1.05820312,82.7636719 1.86738281,82.7636719 L63.4646484,82.7636719 C64.2738281,82.7636719 64.9294922,83.4193359 64.9294922,84.2285156 C64.9294922,85.0376953 64.2738281,85.6933594 63.4646484,85.6933594 Z" id="Path" fill="#000000"></path>
                <path d="M7.24101563,85.4121094 C6.43183594,85.4121094 5.77617188,84.7564453 5.77617188,83.9472656 L5.77617188,9.1359375 C5.77617188,7.69160156 6.9515625,6.51621094 8.39648438,6.51621094 L126.700195,6.51621094 C128.145117,6.51621094 129.320508,7.69160156 129.320508,9.1359375 L129.320508,28.7958984 C129.320508,29.6050781 128.664844,30.2607422 127.855664,30.2607422 C127.046484,30.2607422 126.39082,29.6050781 126.39082,28.7958984 L126.39082,9.44648437 L8.70585938,9.44648437 L8.70585938,83.9472656 C8.70585938,84.7564453 8.05019531,85.4121094 7.24101563,85.4121094 Z" id="Path" fill="#000000"></path>
                <path d="M127.45957,16.4179688 L7.64179687,16.4179688 C6.83261719,16.4179688 6.17695312,15.7623047 6.17695312,14.953125 C6.17695312,14.1439453 6.83261719,13.4882812 7.64179687,13.4882812 L127.45957,13.4882812 C128.26875,13.4882812 128.924414,14.1439453 128.924414,14.953125 C128.924414,15.7623047 128.26875,16.4179688 127.45957,16.4179688 Z" id="Path" fill="#000000"></path>
                <path d="M16.6992188,15.9785156 C15.8900391,15.9785156 15.234375,15.3228516 15.234375,14.5136719 L15.234375,8.30625 C15.234375,7.49707031 15.8900391,6.84140625 16.6992188,6.84140625 C17.5083984,6.84140625 18.1640625,7.49707031 18.1640625,8.30625 L18.1640625,14.5136719 C18.1640625,15.3228516 17.5083984,15.9785156 16.6992188,15.9785156 Z" id="Path" fill="#000000"></path>
                <path d="M35.0009766,79.1132813 L16.5615234,79.1132813 C14.5376953,79.1132813 12.890625,77.4662109 12.890625,75.4423828 L12.890625,51.7289063 C12.890625,49.7050781 14.5376953,48.0580078 16.5615234,48.0580078 L35.0015625,48.0580078 C37.0253906,48.0580078 38.6724609,49.7050781 38.6724609,51.7289063 L38.6724609,75.4423828 C38.671875,77.4662109 37.0248047,79.1132813 35.0009766,79.1132813 L35.0009766,79.1132813 Z M16.5615234,50.9882813 C16.153125,50.9882813 15.8203125,51.3205078 15.8203125,51.7294922 L15.8203125,75.4429688 C15.8203125,75.8513672 16.1525391,76.1841797 16.5615234,76.1841797 L35.0015625,76.1841797 C35.4099609,76.1841797 35.7427734,75.8519531 35.7427734,75.4429688 L35.7427734,51.7294922 C35.7427734,51.3210938 35.4105469,50.9882813 35.0015625,50.9882813 L16.5615234,50.9882813 Z" id="Shape" fill="#000000"></path>
                <path d="M63.2326172,79.1132813 L45.8583984,79.1132813 C43.8345703,79.1132813 42.1875,77.4662109 42.1875,75.4423828 L42.1875,51.7289063 C42.1875,49.7050781 43.8345703,48.0580078 45.8583984,48.0580078 L63.3,48.0580078 C64.1091797,48.0580078 64.7648437,48.7136719 64.7648437,49.5228516 C64.7648437,50.3320313 64.1091797,50.9876953 63.3,50.9876953 L45.8583984,50.9876953 C45.45,50.9876953 45.1171875,51.3199219 45.1171875,51.7289063 L45.1171875,75.4423828 C45.1171875,75.8507813 45.4494141,76.1835938 45.8583984,76.1835938 L63.2326172,76.1835938 C64.0417969,76.1835938 64.6974609,76.8392578 64.6974609,77.6484375 C64.6974609,78.4576172 64.0417969,79.1132813 63.2326172,79.1132813 Z" id="Path" fill="#000000"></path>
                <path d="M136.376367,100.906055 L119.266406,100.906055 C117.521484,100.906055 116.10293,99.4869141 116.10293,97.7425781 L116.10293,93.5097656 C116.10293,91.7648438 117.52207,90.3457031 119.266406,90.3457031 L136.376367,90.3457031 C138.121289,90.3457031 139.539844,91.7654297 139.539844,93.5097656 L139.539844,97.7425781 C139.539844,99.4869141 138.121289,100.906055 136.376367,100.906055 Z M119.266406,93.2753906 C119.136914,93.2753906 119.032617,93.3808594 119.032617,93.5097656 L119.032617,97.7425781 C119.032617,97.8720703 119.1375,97.9763672 119.266406,97.9763672 L136.376367,97.9763672 C136.505859,97.9763672 136.610156,97.8714844 136.610156,97.7425781 L136.610156,93.5097656 C136.610156,93.3802734 136.505273,93.2753906 136.376367,93.2753906 L119.266406,93.2753906 Z" id="Shape" fill="#000000"></path>
                <path d="M136.376367,114.169922 L119.266406,114.169922 C117.521484,114.169922 116.10293,112.750195 116.10293,111.005859 L116.10293,106.773047 C116.10293,105.028125 117.52207,103.60957 119.266406,103.60957 L136.376367,103.60957 C138.121289,103.60957 139.539844,105.028711 139.539844,106.773047 L139.539844,111.005859 C139.539844,112.750195 138.121289,114.169922 136.376367,114.169922 Z M119.266406,106.539258 C119.136914,106.539258 119.032617,106.644141 119.032617,106.773047 L119.032617,111.005859 C119.032617,111.135352 119.1375,111.240234 119.266406,111.240234 L136.376367,111.240234 C136.505859,111.240234 136.610156,111.134766 136.610156,111.005859 L136.610156,106.773047 C136.610156,106.643555 136.505273,106.539258 136.376367,106.539258 L119.266406,106.539258 Z" id="Shape" fill="#000000"></path>
                <path d="M136.376367,87.6427734 L119.266406,87.6427734 C117.521484,87.6427734 116.10293,86.2236328 116.10293,84.4792969 L116.10293,80.2464844 C116.10293,78.5015625 117.52207,77.0830078 119.266406,77.0830078 L136.376367,77.0830078 C138.121289,77.0830078 139.539844,78.5021484 139.539844,80.2464844 L139.539844,84.4792969 C139.539844,86.2236328 138.121289,87.6427734 136.376367,87.6427734 Z M119.266406,80.0121094 C119.136914,80.0121094 119.032617,80.1169922 119.032617,80.2458984 L119.032617,84.4787109 C119.032617,84.6082031 119.1375,84.7125 119.266406,84.7125 L136.376367,84.7125 C136.505859,84.7125 136.610156,84.6076172 136.610156,84.4787109 L136.610156,80.2458984 C136.610156,80.1164062 136.505273,80.0121094 136.376367,80.0121094 L119.266406,80.0121094 Z" id="Shape" fill="#000000"></path>
                <path d="M106.787109,72.2490234 L78.73125,72.2490234 C76.6886719,72.2490234 75.0263672,70.5873047 75.0263672,68.5447266 L75.0263672,59.8523438 C75.0263672,57.8097656 76.6886719,56.1474609 78.73125,56.1474609 L108.453516,56.1474609 C109.262695,56.1474609 109.918359,56.803125 109.918359,57.6123047 C109.918359,58.4214844 109.262695,59.0771484 108.453516,59.0771484 L78.73125,59.0771484 C78.3041016,59.0771484 77.9560547,59.4251953 77.9560547,59.8523438 L77.9560547,68.5447266 C77.9560547,68.971875 78.3041016,69.3193359 78.73125,69.3193359 L106.787109,69.3193359 C107.596289,69.3193359 108.251953,69.975 108.251953,70.7841797 C108.251953,71.5933594 107.596289,72.2490234 106.787109,72.2490234 Z" id="Path" fill="#000000"></path>
                <path d="M106.787109,92.4638672 L78.73125,92.4638672 C76.6886719,92.4638672 75.0263672,90.8021484 75.0263672,88.7595703 L75.0263672,80.0671875 C75.0263672,78.0246094 76.6886719,76.3623047 78.73125,76.3623047 L106.842187,76.3623047 C107.651367,76.3623047 108.307031,77.0179687 108.307031,77.8271484 C108.307031,78.6363281 107.651367,79.2919922 106.842187,79.2919922 L78.73125,79.2919922 C78.3041016,79.2919922 77.9560547,79.6400391 77.9560547,80.0671875 L77.9560547,88.7595703 C77.9560547,89.1867188 78.3041016,89.5341797 78.73125,89.5341797 L106.787109,89.5341797 C107.596289,89.5341797 108.251953,90.1898438 108.251953,90.9990234 C108.251953,91.8082031 107.596289,92.4638672 106.787109,92.4638672 Z" id="Path" fill="#000000"></path>
                <path d="M106.695703,112.678711 L78.73125,112.678711 C76.6886719,112.678711 75.0263672,111.016992 75.0263672,108.974414 L75.0263672,100.282031 C75.0263672,98.2394531 76.6886719,96.5771484 78.73125,96.5771484 L106.750781,96.5771484 C107.559961,96.5771484 108.215625,97.2328125 108.215625,98.0419922 C108.215625,98.8511719 107.559961,99.5068359 106.750781,99.5068359 L78.73125,99.5068359 C78.3041016,99.5068359 77.9560547,99.8548828 77.9560547,100.282031 L77.9560547,108.974414 C77.9560547,109.401563 78.3041016,109.749023 78.73125,109.749023 L106.695703,109.749023 C107.504883,109.749023 108.160547,110.404688 108.160547,111.213867 C108.160547,112.023047 107.504883,112.678711 106.695703,112.678711 Z" id="Path" fill="#000000"></path>
            </g>
        </g>
    </g>
</svg>