<?xml version="1.0" encoding="UTF-8"?>
<svg width="58px" height="58px" viewBox="0 0 58 58" version="1.1" xmlns="http://www.w3.org/2000/svg" xmlns:xlink="http://www.w3.org/1999/xlink">
    <!-- Generator: sketchtool 58 (101010) - https://sketch.com -->
    <title>74A481FD-3239-4DA0-8952-F35F748889FB@1.00x</title>
    <desc>Created with sketchtool.</desc>
    <g id="Page-1" stroke="none" stroke-width="1" fill="none" fill-rule="evenodd">
        <g id="Desktop-HD-Copy-3" transform="translate(-736.000000, -887.000000)" fill-rule="nonzero">
            <g id="Group-3" transform="translate(720.000000, 869.000000)">
                <g id="signature" transform="translate(16.000000, 18.000000)">
                    <g id="Layer_4" transform="translate(0.935484, 0.935484)" fill="#47E4C2">
                        <path d="M56.1214728,3.8704464 L56.1214728,7.7408928 L0,7.7408928 L0,3.8704464 C0,1.73285788 1.73285788,0 3.8704464,0 L52.2510264,0 C54.3886149,0 56.1214728,1.73285788 56.1214728,3.8704464 Z" id="Shape"></path>
                        <path d="M53.218638,3.8704464 L53.218638,7.7408928 L0,7.7408928 L0,3.8704464 C0,1.73285788 1.73285788,0 3.8704464,0 L49.3481916,0 C51.4857801,0 53.218638,1.73285788 53.218638,3.8704464 Z" id="Shape"></path>
                        <rect id="Rectangle-path" x="4.838058" y="12.5789508" width="29.028348" height="5.8056696" rx="2.9028348"></rect>
                        <path d="M47.7709847,23.7355125 L37.3594839,43.3973803 C36.5306408,42.3488361 35.5293802,41.4490103 34.3985924,40.7364484 L44.3553157,21.9260789 L47.7709847,23.7355125 Z" id="Shape"></path>
                        <path d="M50.9447507,17.7459967 L49.5900945,20.3101675 L42.7490805,16.6913001 L44.1037367,14.1271294 C44.4635655,13.4450567 45.080009,12.9341958 45.8170359,12.7072786 C46.5540626,12.4803615 47.351091,12.5560403 48.0322398,12.9176149 L49.7352362,13.8174936 C50.4173088,14.1773225 50.9281698,14.793766 51.1550869,15.5307928 C51.3820041,16.2678196 51.3063253,17.0648479 50.9447507,17.7459967 L50.9447507,17.7459967 Z" id="Shape"></path>
                    </g>
                    <path d="M4.2764977,57.0645161 L7.48387097,57.0645161 C5.12202651,57.0645161 3.20737327,55.3314248 3.20737327,53.1935484 L3.20737327,4.80645161 C3.20737327,2.66857516 5.12202651,0.935483871 7.48387097,0.935483871 L4.2764977,0.935483871 C1.91465324,0.935483871 0,2.66857516 0,4.80645161 L0,53.1935484 C0,55.3314248 1.91465324,57.0645161 4.2764977,57.0645161 Z" id="Shape" fill="#FFFFFF"></path>
                    <polygon id="Rectangle-path" fill="#FFFFFF" points="0 45.8387097 1.87096774 45.8387097 1.87096774 53.3225806 0 53.3225806"></polygon>
                    <g id="Group" fill="#000000">
                        <path d="M0.986,50.266679 C1.51987526,50.266679 1.95266667,49.8338752 1.95266667,49.3 C1.95266667,48.7661248 1.51987526,48.3333333 0.986,48.3333333 L0.976333333,48.3333333 C0.442458094,48.3360028 0.0118306757,48.7709581 0.0144877145,49.3048333 C0.0171694307,49.8387085 0.452124761,50.269336 0.986,50.266679 Z" id="Shape"></path>
                        <path d="M53.1666667,0 L4.83333333,0 C2.16528196,0.003195916 0.003195916,2.16528196 0,4.83333333 L0,45.4333333 C0,45.9672085 0.432791408,46.4 0.966666667,46.4 C1.50054193,46.4 1.93333333,45.9672085 1.93333333,45.4333333 L1.93333333,9.66666667 L56.0666667,9.66666667 L56.0666667,53.1666667 C56.0666667,54.7682924 54.7682924,56.0666667 53.1666667,56.0666667 L4.83333333,56.0666667 C3.23170756,56.0666667 1.93333333,54.7682924 1.93333333,53.1666667 C1.93333333,52.6327915 1.50054193,52.2 0.966666667,52.2 C0.432791408,52.2 0,52.6327915 0,53.1666667 C0.003195916,55.8347181 2.16528196,57.9968041 4.83333333,58 L53.1666667,58 C55.8347181,57.9968041 57.9968041,55.8347181 58,53.1666667 L58,4.83333333 C57.9968041,2.16528196 55.8347181,0.003195916 53.1666667,0 Z M56.0666667,7.73333333 L1.93333333,7.73333333 L1.93333333,4.83333333 C1.93333333,3.23170756 3.23170756,1.93333333 4.83333333,1.93333333 L53.1666667,1.93333333 C54.7682924,1.93333333 56.0666667,3.23170756 56.0666667,4.83333333 L56.0666667,7.73333333 Z" id="Shape"></path>
                        <path d="M53.1666667,3.86666667 C53.1666667,3.33279141 52.7338752,2.9 52.2,2.9 C51.6661248,2.9 51.2333333,3.33279141 51.2333333,3.86666667 C50.6994581,3.86666667 50.2666667,4.29945808 50.2666667,4.83333333 C50.2666667,5.36720859 50.6994581,5.8 51.2333333,5.8 C51.2333333,6.33387526 51.6661248,6.76666667 52.2,6.76666667 C52.7338752,6.76666667 53.1666667,6.33387526 53.1666667,5.8 C53.7005419,5.8 54.1333333,5.36720859 54.1333333,4.83333333 C54.1333333,4.29945808 53.7005419,3.86666667 53.1666667,3.86666667 Z" id="Shape"></path>
                        <path d="M47.3666667,3.86666667 L45.4333333,3.86666667 C44.8994581,3.86666667 44.4666667,4.29945808 44.4666667,4.83333333 C44.4666667,5.36720859 44.8994581,5.8 45.4333333,5.8 L47.3666667,5.8 C47.9005419,5.8 48.3333333,5.36720859 48.3333333,4.83333333 C48.3333333,4.29945808 47.9005419,3.86666667 47.3666667,3.86666667 Z" id="Shape"></path>
                        <path d="M35.7666667,14.5 C35.7666667,13.4322495 34.9010839,12.5666667 33.8333333,12.5666667 L6.76666667,12.5666667 C5.69891615,12.5666667 4.83333333,13.4322495 4.83333333,14.5 L4.83333333,18.3666667 C4.83333333,19.4344172 5.69891615,20.3 6.76666667,20.3 L33.8333333,20.3 C34.9010839,20.3 35.7666667,19.4344172 35.7666667,18.3666667 L35.7666667,14.5 Z M6.76666667,18.3666667 L6.76666667,14.5 L33.8333333,14.5 L33.8333333,18.3666667 L6.76666667,18.3666667 Z" id="Shape"></path>
                        <path d="M35.7666667,23.2 C35.7666667,22.6661248 35.3338752,22.2333333 34.8,22.2333333 L6.76666667,22.2333333 C6.23279141,22.2333333 5.8,22.6661248 5.8,23.2 C5.8,23.7338752 6.23279141,24.1666667 6.76666667,24.1666667 L34.8,24.1666667 C35.3338752,24.1666667 35.7666667,23.7338752 35.7666667,23.2 Z" id="Shape"></path>
                        <path d="M32.8666667,27.0666667 C32.8666667,26.5327915 32.4338752,26.1 31.9,26.1 L6.76666667,26.1 C6.23279141,26.1 5.8,26.5327915 5.8,27.0666667 C5.8,27.6005419 6.23279141,28.0333333 6.76666667,28.0333333 L31.9,28.0333333 C32.4338752,28.0333333 32.8666667,27.6005419 32.8666667,27.0666667 Z" id="Shape"></path>
                        <path d="M30.9333333,30.9333333 C30.9333333,30.3994581 30.5005419,29.9666667 29.9666667,29.9666667 L6.76666667,29.9666667 C6.23279141,29.9666667 5.8,30.3994581 5.8,30.9333333 C5.8,31.4672085 6.23279141,31.9 6.76666667,31.9 L29.9666667,31.9 C30.5005419,31.9 30.9333333,31.4672085 30.9333333,30.9333333 Z" id="Shape"></path>
                        <path d="M6.76666667,33.8333333 C6.23279141,33.8333333 5.8,34.2661248 5.8,34.8 C5.8,35.3338752 6.23279141,35.7666667 6.76666667,35.7666667 L28.0333333,35.7666667 C28.5672085,35.7666667 29,35.3338752 29,34.8 C29,34.2661248 28.5672085,33.8333333 28.0333333,33.8333333 L6.76666667,33.8333333 Z" id="Shape"></path>
                        <path d="M4.83333333,52.2 C4.83333333,53.2677505 5.69891615,54.1333333 6.76666667,54.1333333 L51.2333333,54.1333333 C52.3010839,54.1333333 53.1666667,53.2677505 53.1666667,52.2 L53.1666667,40.6 C53.1666667,39.5322495 52.3010839,38.6666667 51.2333333,38.6666667 L42.3835,38.6666667 L49.5503667,25.1333333 L50.2357333,23.838 L52.7162,19.1535333 C53.7167973,17.2643507 52.99722,14.9217219 51.1086333,13.92 L49.3966667,13.0161667 C47.5107798,12.0214408 45.1755806,12.7410281 44.1766667,14.6247 L42.8233333,17.1873333 L41.0137333,20.6045 L31.4456667,38.6666667 L6.76666667,38.6666667 C5.69891615,38.6666667 4.83333333,39.5322495 4.83333333,40.6 L4.83333333,52.2 Z M39.8846667,39.2553667 L38.0673333,42.688 L37.5501667,42.1457 C37.2590627,41.8445711 36.9406296,41.5711198 36.5989667,41.3288667 L45.6856333,24.1734333 L47.3947,25.0772667 L39.8846667,39.2553667 Z M45.878,15.5295 C46.3774569,14.587664 47.5450566,14.2278704 48.488,14.7252333 L50.1970667,15.6300333 C51.1389027,16.1294903 51.4986963,17.2970899 51.0013333,18.2400333 L50.0965333,19.9491 L44.9732,17.2356667 L45.878,15.5295 Z M44.0732333,18.9466667 L49.1965667,21.6601 L48.4077667,23.1497333 L48.2917667,23.3691667 L43.1684333,20.6557333 L44.0732333,18.9466667 Z M42.2636333,22.3638333 L43.9727,23.2686333 L34.8908667,40.4240667 C34.4982564,40.2784638 34.0931447,40.1690965 33.6806,40.0973333 L32.9420667,39.9745667 L42.2636333,22.3638333 Z M32.3118,41.8296 L33.3625667,42.0045667 C34.4281738,42.1812584 35.4075631,42.6992798 36.1533333,43.4806667 L36.8889667,44.254 L31.5723,48.7615667 L32.3118,41.8296 Z M6.76666667,40.6 L30.5002667,40.6 L30.5002667,40.6048333 L29.6515333,48.5547 C29.5676131,49.3409205 29.9709016,50.0990041 30.6697941,50.4687806 C31.3686865,50.8385571 32.222309,50.7454916 32.8251,50.2338 L38.9218667,45.0631 C38.9286333,45.0563333 38.9325,45.0466667 38.9392667,45.0399 C38.947653,45.0356407 38.9557286,45.0307954 38.9634333,45.0254 C38.9918116,44.9902229 39.0176544,44.9530738 39.0407667,44.9142333 C39.0812488,44.8719633 39.1181116,44.8263699 39.1509667,44.7779333 L41.3598,40.6 L51.2333333,40.6 L51.2333333,52.2 L6.76666667,52.2 L6.76666667,40.6 Z" id="Shape"></path>
                        <path d="M10.6333333,48.3333333 L8.7,48.3333333 C8.16612474,48.3333333 7.73333333,48.7661248 7.73333333,49.3 C7.73333333,49.8338752 8.16612474,50.2666667 8.7,50.2666667 L10.6333333,50.2666667 C11.1672085,50.2666667 11.6,49.8338752 11.6,49.3 C11.6,48.7661248 11.1672085,48.3333333 10.6333333,48.3333333 Z" id="Shape"></path>
                        <path d="M16.4333333,48.3333333 L14.5,48.3333333 C13.9661248,48.3333333 13.5333333,48.7661248 13.5333333,49.3 C13.5333333,49.8338752 13.9661248,50.2666667 14.5,50.2666667 L16.4333333,50.2666667 C16.9672085,50.2666667 17.4,49.8338752 17.4,49.3 C17.4,48.7661248 16.9672085,48.3333333 16.4333333,48.3333333 Z" id="Shape"></path>
                        <path d="M22.2333333,48.3333333 L20.3,48.3333333 C19.7661248,48.3333333 19.3333333,48.7661248 19.3333333,49.3 C19.3333333,49.8338752 19.7661248,50.2666667 20.3,50.2666667 L22.2333333,50.2666667 C22.7672085,50.2666667 23.2,49.8338752 23.2,49.3 C23.2,48.7661248 22.7672085,48.3333333 22.2333333,48.3333333 Z" id="Shape"></path>
                        <path d="M27.0666667,48.3333333 L26.1,48.3333333 C25.5661248,48.3333333 25.1333333,48.7661248 25.1333333,49.3 C25.1333333,49.8338752 25.5661248,50.2666667 26.1,50.2666667 L27.0666667,50.2666667 C27.6005419,50.2666667 28.0333333,49.8338752 28.0333333,49.3 C28.0333333,48.7661248 27.6005419,48.3333333 27.0666667,48.3333333 Z" id="Shape"></path>
                        <path d="M37.7,48.3333333 L36.7333333,48.3333333 C36.1994581,48.3333333 35.7666667,48.7661248 35.7666667,49.3 C35.7666667,49.8338752 36.1994581,50.2666667 36.7333333,50.2666667 L37.7,50.2666667 C38.2338752,50.2666667 38.6666667,49.8338752 38.6666667,49.3 C38.6666667,48.7661248 38.2338752,48.3333333 37.7,48.3333333 Z" id="Shape"></path>
                        <path d="M43.5,48.3333333 L41.5666667,48.3333333 C41.0327915,48.3333333 40.6,48.7661248 40.6,49.3 C40.6,49.8338752 41.0327915,50.2666667 41.5666667,50.2666667 L43.5,50.2666667 C44.0338752,50.2666667 44.4666667,49.8338752 44.4666667,49.3 C44.4666667,48.7661248 44.0338752,48.3333333 43.5,48.3333333 Z" id="Shape"></path>
                        <path d="M49.3,48.3333333 L47.3666667,48.3333333 C46.8327915,48.3333333 46.4,48.7661248 46.4,49.3 C46.4,49.8338752 46.8327915,50.2666667 47.3666667,50.2666667 L49.3,50.2666667 C49.8338752,50.2666667 50.2666667,49.8338752 50.2666667,49.3 C50.2666667,48.7661248 49.8338752,48.3333333 49.3,48.3333333 Z" id="Shape"></path>
                    </g>
                </g>
            </g>
        </g>
    </g>
</svg>