<?xml version="1.0" encoding="UTF-8"?>
<svg width="60px" height="67px" viewBox="0 0 60 67" version="1.1" xmlns="http://www.w3.org/2000/svg" xmlns:xlink="http://www.w3.org/1999/xlink">
    <!-- Generator: sketchtool 58 (101010) - https://sketch.com -->
    <title>B7F68C23-EDB8-4D06-B0F6-4884E605597A@1.00x</title>
    <desc>Created with sketchtool.</desc>
    <g id="Page-1" stroke="none" stroke-width="1" fill="none" fill-rule="evenodd">
        <g id="Desktop-HD" transform="translate(-750.000000, -2533.000000)" fill-rule="nonzero">
            <g id="Group-3" transform="translate(735.000000, 2520.000000)">
                <g id="clipboard" transform="translate(15.000000, 13.000000)">
                    <rect id="Rectangle" fill="#47E4C2" x="6.43072243" y="12.8326996" width="36.3593156" height="47.0532319"></rect>
                    <path d="M45.998327,6.41634981 L37.2463118,6.41634981 C36.8034981,5.1748289 35.6272243,4.27756654 34.2349049,4.27756654 L31.0268441,4.27756654 L31.0268441,3.20806084 C31.0268441,1.43931559 29.5875285,0 27.8185551,0 L21.4022053,0 C19.6334601,0 18.1941445,1.43931559 18.1941445,3.20828897 L18.1941445,4.27779468 L14.9858555,4.27779468 C13.5935361,4.27779468 12.4172624,5.17505703 11.9744487,6.41657795 L3.2226616,6.41657795 C1.45391635,6.41657795 0.0143726236,7.85589354 0.0143726236,9.62486692 L0.0143726236,63.0944487 C0.0143726236,64.8631939 1.45368821,66.3027376 3.2226616,66.3027376 L45.998327,66.3027376 C47.7670722,66.3027376 49.206616,64.8634221 49.206616,63.0944487 L49.206616,9.62463878 C49.206616,7.8556654 47.7670722,6.41634981 45.998327,6.41634981 Z M13.9165779,7.48585551 C13.9165779,6.89657795 14.3968061,6.41634981 14.9860837,6.41634981 L20.3331559,6.41634981 L20.3331559,3.20828897 C20.3331559,2.61901141 20.813384,2.13878327 21.4026616,2.13878327 L27.8190114,2.13878327 C28.408289,2.13878327 28.8885171,2.61901141 28.8885171,3.20828897 L28.8885171,6.41657795 L34.2355894,6.41657795 C34.8248669,6.41657795 35.3050951,6.89680608 35.3050951,7.48608365 L35.3050951,10.6943726 C35.3050951,11.2836502 34.8248669,11.7638783 34.2355894,11.7638783 L14.9858555,11.7638783 C14.3965779,11.7638783 13.9163498,11.2836502 13.9163498,10.6943726 L13.9163498,7.48585551 L13.9165779,7.48585551 Z M47.0680608,63.0942205 C47.0680608,63.6844106 46.5876046,64.1637262 45.998327,64.1637262 L3.2226616,64.1637262 C2.63338403,64.1637262 2.15315589,63.6846388 2.15315589,63.0942205 L2.15315589,9.62463878 C2.15315589,9.03536122 2.63338403,8.55513308 3.2226616,8.55513308 L11.7777947,8.55513308 L11.7777947,10.6939163 C11.7777947,12.4626616 13.2171103,13.9022053 14.9860837,13.9022053 L34.2351331,13.9022053 C36.0038783,13.9022053 37.4434221,12.4628897 37.4434221,10.6939163 L37.4434221,8.55513308 L45.9985551,8.55513308 C46.5878327,8.55513308 47.0680608,9.03536122 47.0680608,9.62463878 L47.0680608,63.0942205 L47.0680608,63.0942205 Z" id="Shape" fill="#333333"></path>
                    <path d="M36.3739163,25.6653992 L25.68,25.6653992 L25.68,23.526616 L28.888289,23.526616 L28.888289,16.0409886 L20.3331559,16.0409886 L20.3331559,23.5268441 L23.5414449,23.5268441 L23.5414449,25.6656274 L12.8470722,25.6656274 L12.8470722,29.9431939 L9.63901141,29.9431939 L9.63901141,37.4290494 L18.1941445,37.4290494 L18.1941445,29.9429658 L14.9858555,29.9429658 L14.9858555,27.8041825 L23.5409886,27.8041825 L23.5409886,29.9429658 L20.3326996,29.9429658 L20.3326996,37.4288213 L28.8878327,37.4288213 L28.8878327,29.9429658 L25.6795437,29.9429658 L25.6795437,27.8041825 L34.2346768,27.8041825 L34.2346768,29.9429658 L31.0268441,29.9429658 L31.0268441,37.4288213 L34.2351331,37.4288213 L34.2351331,39.5676046 L23.5412167,39.5676046 L23.5412167,43.8451711 L20.3329278,43.8451711 L20.3329278,51.3307985 L28.8880608,51.3307985 L28.8880608,43.844943 L25.6797719,43.844943 L25.6797719,41.7061597 L36.3736882,41.7061597 L36.3736882,37.4285932 L39.5819772,37.4285932 L39.5819772,29.9429658 L36.3736882,29.9429658 L36.3736882,25.6653992 L36.3739163,25.6653992 Z M22.471711,18.1797719 L26.7492776,18.1797719 L26.7492776,21.3878327 L22.471711,21.3878327 L22.471711,18.1797719 Z M16.0553612,35.290038 L11.7777947,35.290038 L11.7777947,32.081749 L16.0553612,32.081749 L16.0553612,35.290038 Z M26.7492776,35.290038 L22.471711,35.290038 L22.471711,32.081749 L26.7492776,32.081749 L26.7492776,35.290038 Z M26.7492776,49.1920152 L22.471711,49.1920152 L22.471711,45.9837262 L26.7492776,45.9837262 L26.7492776,49.1920152 Z M37.4431939,35.290038 L33.1656274,35.290038 L33.1656274,32.081749 L37.4431939,32.081749 L37.4431939,35.290038 Z" id="Shape" fill="#333333"></path>
                    <path d="M56.6922433,7.48585551 C54.9234981,7.48585551 53.4839544,8.9251711 53.4839544,10.6941445 L53.4839544,12.8329278 L53.4839544,14.971711 L53.4839544,17.1102662 L53.4839544,19.2490494 L53.4839544,55.7815209 L56.6922433,65.4061597 L59.9005323,55.7815209 L59.9005323,19.2490494 L59.9005323,17.1102662 L59.9005323,14.9714829 L59.9005323,12.8326996 L59.9005323,10.6939163 C59.9005323,8.9251711 58.4609886,7.48585551 56.6922433,7.48585551 Z M56.0368061,56.6778707 L57.3467681,56.6778707 L56.6922433,58.6434981 L56.0368061,56.6778707 Z M57.761749,54.5390875 L55.6229658,54.5390875 L55.6229658,19.2490494 L57.761749,19.2490494 L57.761749,54.5390875 Z M57.761749,17.1102662 L55.6229658,17.1102662 L55.6229658,14.9714829 L57.761749,14.9714829 L57.761749,17.1102662 Z M55.6229658,12.8326996 L55.6229658,10.6939163 C55.6229658,10.1046388 56.1031939,9.62441065 56.6924715,9.62441065 C57.281749,9.62441065 57.7619772,10.1046388 57.7619772,10.6939163 L57.7619772,12.8326996 L55.6229658,12.8326996 Z" id="Shape" fill="#333333"></path>
                </g>
            </g>
        </g>
    </g>
</svg>