<?xml version="1.0" encoding="UTF-8"?>
<svg width="60px" height="47px" viewBox="0 0 60 47" version="1.1" xmlns="http://www.w3.org/2000/svg" xmlns:xlink="http://www.w3.org/1999/xlink">
    <!-- Generator: sketchtool 58 (101010) - https://sketch.com -->
    <title>25A81D12-5B57-4BDD-9962-BF1E48128CBE@1.00x</title>
    <desc>Created with sketchtool.</desc>
    <g id="Page-1" stroke="none" stroke-width="1" fill="none" fill-rule="evenodd">
        <g id="Desktop-HD" transform="translate(-750.000000, -2402.000000)">
            <g id="Group-3" transform="translate(735.000000, 2378.000000)">
                <g id="calendar" transform="translate(15.000000, 24.000000)">
                    <rect id="Rectangle" fill="#47E4C2" x="1.7" y="7.9" width="51.7" height="6"></rect>
                    <path d="M53.1573196,43.6597938 C53.1573196,44.1931959 52.7243299,44.6263918 52.1907216,44.6263918 L2.89958763,44.6263918 C2.36597938,44.6263918 1.93298969,44.1934021 1.93298969,43.6597938 L1.93298969,15.6315464 L53.1573196,15.6315464 L53.1573196,28.1958763 L55.0905155,28.1958763 L55.0905155,8.86597938 C55.0905155,7.26742268 53.7894845,5.96639175 52.1907216,5.96639175 L48.3247423,5.96639175 L48.3247423,3.06701031 C48.3247423,1.46845361 47.0239175,0.16742268 45.4251546,0.16742268 C43.8265979,0.16742268 42.525567,1.46824742 42.525567,3.06701031 L42.525567,5.96659794 L12.5645361,5.96659794 L12.5645361,3.06701031 C12.5645361,1.46845361 11.2637113,0.16742268 9.66494845,0.16742268 C8.06618557,0.16742268 6.76536082,1.46824742 6.76536082,3.06701031 L6.76536082,5.96659794 L2.89938144,5.96659794 C1.30082474,5.96659794 0,7.26742268 0,8.86597938 L0,43.6597938 C0,45.2583505 1.30082474,46.5593814 2.89958763,46.5593814 L52.1909278,46.5593814 C53.7894845,46.5593814 55.0905155,45.2585567 55.0905155,43.6597938 L55.0905155,41.7268041 L53.1575258,41.7268041 L53.1575258,43.6597938 L53.1573196,43.6597938 Z M44.4587629,3.06701031 C44.4587629,2.53443299 44.8917526,2.10041237 45.4253608,2.10041237 C45.9589691,2.10041237 46.3917526,2.53443299 46.3917526,3.06701031 L46.3917526,6.93298969 C46.3917526,7.46556701 45.9587629,7.89958763 45.4251546,7.89958763 C44.8915464,7.89958763 44.4585567,7.46556701 44.4585567,6.93298969 L44.4585567,3.06701031 L44.4587629,3.06701031 Z M8.6985567,3.06701031 C8.6985567,2.53443299 9.13154639,2.10041237 9.66515464,2.10041237 C10.1987629,2.10041237 10.6317526,2.53443299 10.6317526,3.06701031 L10.6317526,6.93298969 C10.6317526,7.46556701 10.1987629,7.89958763 9.66515464,7.89958763 C9.13154639,7.89958763 8.6985567,7.46556701 8.6985567,6.93298969 L8.6985567,3.06701031 Z M2.89958763,7.89958763 L6.94350515,7.89958763 C7.34371134,9.02164948 8.40680412,9.83257732 9.66515464,9.83257732 C10.9235052,9.83257732 11.9865979,9.02164948 12.3868041,7.89958763 L42.7047423,7.89958763 C43.1049485,9.02164948 44.1680412,9.83257732 45.4263918,9.83257732 C46.6847423,9.83257732 47.7478351,9.02164948 48.1480412,7.89958763 L52.1909278,7.89958763 C52.7243299,7.89958763 53.1575258,8.33360825 53.1575258,8.86618557 L53.1575258,13.6989691 L1.93298969,13.6989691 L1.93298969,8.86597938 C1.93298969,8.33340206 2.36597938,7.89958763 2.89958763,7.89958763 Z" id="Shape" fill="#333333" fill-rule="nonzero"></path>
                    <path d="M51.7076289,42.6934021 C47.177732,42.6934021 43.4923711,39.0082474 43.4923711,34.4781443 C43.4923711,29.9480412 47.1775258,26.2628866 51.7076289,26.2628866 C56.237732,26.2628866 59.9228866,29.9480412 59.9228866,34.4781443 C59.9228866,39.0082474 56.2375258,42.6934021 51.7076289,42.6934021 Z" id="Path" fill="#47E4C2" fill-rule="nonzero"></path>
                    <polygon id="Path" fill="#333333" fill-rule="nonzero" points="47.8946392 34.1573196 46.8218557 35.765567 50.451134 38.1847423 59.7043299 26.8746392 58.2082474 25.651134 50.0645361 35.6041237"></polygon>
                    <path d="M11.5979381,18.5309278 L4.83257732,18.5309278 L4.83257732,24.3298969 L11.5979381,24.3298969 L11.5979381,18.5309278 Z M9.66494845,22.3969072 L6.76556701,22.3969072 L6.76556701,20.4639175 L9.66515464,20.4639175 L9.66494845,22.3969072 L9.66494845,22.3969072 Z" id="Shape" fill="#333333" fill-rule="nonzero"></path>
                    <path d="M21.2628866,18.5309278 L14.4975258,18.5309278 L14.4975258,24.3298969 L21.2630928,24.3298969 L21.2630928,18.5309278 L21.2628866,18.5309278 Z M19.3298969,22.3969072 L16.4305155,22.3969072 L16.4305155,20.4639175 L19.3298969,20.4639175 L19.3298969,22.3969072 Z" id="Shape" fill="#333333" fill-rule="nonzero"></path>
                    <path d="M30.9278351,18.5309278 L24.162268,18.5309278 L24.162268,24.3298969 L30.9278351,24.3298969 L30.9278351,18.5309278 Z M28.9948454,22.3969072 L26.0952577,22.3969072 L26.0952577,20.4639175 L28.9948454,20.4639175 L28.9948454,22.3969072 Z" id="Shape" fill="#333333" fill-rule="nonzero"></path>
                    <path d="M40.5927835,18.5309278 L33.8272165,18.5309278 L33.8272165,24.3298969 L40.5927835,24.3298969 L40.5927835,18.5309278 Z M38.6597938,22.3969072 L35.7602062,22.3969072 L35.7602062,20.4639175 L38.6597938,20.4639175 L38.6597938,22.3969072 Z" id="Shape" fill="#333333" fill-rule="nonzero"></path>
                    <path d="M50.257732,18.5309278 L43.4921649,18.5309278 L43.4921649,24.3298969 L50.257732,24.3298969 L50.257732,18.5309278 Z M48.3247423,22.3969072 L45.4251546,22.3969072 L45.4251546,20.4639175 L48.3247423,20.4639175 L48.3247423,22.3969072 Z" id="Shape" fill="#333333" fill-rule="nonzero"></path>
                    <path d="M11.5979381,27.2294845 L4.83257732,27.2294845 L4.83257732,33.0284536 L11.5979381,33.0284536 L11.5979381,27.2294845 Z M9.66494845,31.0954639 L6.76556701,31.0954639 L6.76556701,29.1624742 L9.66515464,29.1624742 L9.66494845,31.0954639 L9.66494845,31.0954639 Z" id="Shape" fill="#333333" fill-rule="nonzero"></path>
                    <path d="M21.2628866,27.2294845 L14.4975258,27.2294845 L14.4975258,33.0284536 L21.2630928,33.0284536 L21.2630928,27.2294845 L21.2628866,27.2294845 Z M19.3298969,31.0954639 L16.4305155,31.0954639 L16.4305155,29.1624742 L19.3298969,29.1624742 L19.3298969,31.0954639 Z" id="Shape" fill="#333333" fill-rule="nonzero"></path>
                    <path d="M30.9278351,27.2294845 L24.162268,27.2294845 L24.162268,33.0284536 L30.9278351,33.0284536 L30.9278351,27.2294845 Z M28.9948454,31.0954639 L26.0952577,31.0954639 L26.0952577,29.1624742 L28.9948454,29.1624742 L28.9948454,31.0954639 Z" id="Shape" fill="#333333" fill-rule="nonzero"></path>
                    <path d="M40.5927835,27.2294845 L33.8272165,27.2294845 L33.8272165,33.0284536 L40.5927835,33.0284536 L40.5927835,27.2294845 Z M38.6597938,31.0954639 L35.7602062,31.0954639 L35.7602062,29.1624742 L38.6597938,29.1624742 L38.6597938,31.0954639 Z" id="Shape" fill="#333333" fill-rule="nonzero"></path>
                    <path d="M4.83257732,41.7268041 L11.5979381,41.7268041 L11.5979381,35.9278351 L4.83257732,35.9278351 L4.83257732,41.7268041 Z M6.76556701,37.8608247 L9.66515464,37.8608247 L9.66515464,39.7938144 L6.76556701,39.7938144 L6.76556701,37.8608247 Z" id="Shape" fill="#333333" fill-rule="nonzero"></path>
                    <path d="M14.4975258,41.7268041 L21.2630928,41.7268041 L21.2630928,35.9278351 L14.4975258,35.9278351 L14.4975258,41.7268041 Z M16.4305155,37.8608247 L19.3298969,37.8608247 L19.3298969,39.7938144 L16.4305155,39.7938144 L16.4305155,37.8608247 Z" id="Shape" fill="#333333" fill-rule="nonzero"></path>
                    <path d="M24.1624742,41.7268041 L30.9278351,41.7268041 L30.9278351,35.9278351 L24.162268,35.9278351 L24.162268,41.7268041 L24.1624742,41.7268041 Z M26.0954639,37.8608247 L28.9950515,37.8608247 L28.9950515,39.7938144 L26.0954639,39.7938144 L26.0954639,37.8608247 Z" id="Shape" fill="#333333" fill-rule="nonzero"></path>
                    <path d="M33.8274227,41.7268041 L40.5929897,41.7268041 L40.5929897,35.9278351 L33.8274227,35.9278351 L33.8274227,41.7268041 Z M35.7604124,37.8608247 L38.6597938,37.8608247 L38.6597938,39.7938144 L35.7602062,39.7938144 L35.7602062,37.8608247 L35.7604124,37.8608247 Z" id="Shape" fill="#333333" fill-rule="nonzero"></path>
                </g>
            </g>
        </g>
    </g>
</svg>