<?xml version="1.0" encoding="UTF-8"?>
<svg width="15px" height="15px" viewBox="0 0 15 15" version="1.1" xmlns="http://www.w3.org/2000/svg" xmlns:xlink="http://www.w3.org/1999/xlink">
    <!-- Generator: sketchtool 58 (101010) - https://sketch.com -->
    <title>2836F9D1-08E3-4422-85D4-626F29F84257@1.00x</title>
    <desc>Created with sketchtool.</desc>
    <g id="Page-1" stroke="none" stroke-width="1" fill="none" fill-rule="evenodd">
        <g id="Blog" transform="translate(-814.000000, -601.000000)" fill="#9B9B9B" fill-rule="nonzero">
            <g id="clock-(2)" transform="translate(814.000000, 601.000000)">
                <path d="M7.5,0 C3.36433412,0 0,3.36433412 0,7.5 C0,11.6356659 3.36433412,15 7.5,15 C11.6356659,15 15,11.6356659 15,7.5 C15,3.36433412 11.6356659,0 7.5,0 Z M11.0668945,11.3793182 C10.945015,11.5011978 10.7850265,11.5625382 10.6250382,11.5625382 C10.4650497,11.5625382 10.3049469,11.5011978 10.1831818,11.3793182 L7.05814362,8.25439453 C6.94061279,8.13755036 6.87503815,7.97870637 6.87503815,7.81253815 L6.87503815,3.75 C6.87503815,3.40438843 7.15496063,3.12503815 7.5,3.12503815 C7.84503938,3.12503815 8.12496185,3.40438843 8.12496185,3.75 L8.12496185,7.55378725 L11.0668945,10.4956055 C11.3112259,10.7400513 11.3112259,11.1349869 11.0668945,11.3793182 L11.0668945,11.3793182 Z" id="Shape"></path>
            </g>
        </g>
    </g>
</svg>