<?xml version="1.0" encoding="UTF-8"?>
<svg width="60px" height="60px" viewBox="0 0 60 60" version="1.1" xmlns="http://www.w3.org/2000/svg" xmlns:xlink="http://www.w3.org/1999/xlink">
    <!-- Generator: sketchtool 58 (101010) - https://sketch.com -->
    <title>7F4BCD0C-17A5-4587-9AD2-A340B9281DE0@1.00x</title>
    <desc>Created with sketchtool.</desc>
    <g id="Page-1" stroke="none" stroke-width="1" fill="none" fill-rule="evenodd">
        <g id="Desktop-HD" transform="translate(-180.000000, -2537.000000)" fill-rule="nonzero">
            <g id="Group-3" transform="translate(165.000000, 2520.000000)">
                <g id="laptop" transform="translate(15.000000, 17.000000)">
                    <path d="M55.0903093,53.2280412 L55.0903093,23.3074227 C55.0903093,21.685567 53.771134,20.3674227 52.1503093,20.3674227 L42.5257732,20.3674227 L42.5257732,22.3004124 L52.1501031,22.3004124 C52.7057732,22.3004124 53.1571134,22.7527835 53.1571134,23.3074227 L53.1571134,53.2282474 L31.894433,53.2282474 L31.894433,54.1948454 L28.0284536,54.1948454 L28.0284536,53.2282474 L6.76556701,53.2282474 L6.76556701,23.3074227 C6.76556701,22.7525773 7.21690722,22.3004124 7.77257732,22.3004124 L17.3969072,22.3004124 L17.3969072,20.3674227 L7.77257732,20.3674227 C6.15175258,20.3674227 4.83257732,21.6857732 4.83257732,23.3074227 L4.83257732,53.2282474 L0,53.2282474 L0,56.4282474 C0,57.8616495 1.16556701,59.0272165 2.59896907,59.0272165 L57.3239175,59.0272165 C58.7573196,59.0272165 59.9228866,57.8616495 59.9228866,56.4282474 L59.9228866,53.2282474 L55.0903093,53.2280412 L55.0903093,53.2280412 Z M57.9896907,56.4282474 C57.9896907,56.7946392 57.691134,57.0942268 57.3237113,57.0942268 L2.59896907,57.0942268 C2.23175258,57.0942268 1.93298969,56.7946392 1.93298969,56.4282474 L1.93298969,55.1612371 L26.0954639,55.1612371 L26.0954639,56.1278351 L33.8274227,56.1278351 L33.8274227,55.1612371 L57.9896907,55.1612371 L57.9896907,56.4282474 Z" id="Shape" fill="#333333"></path>
                    <polygon id="Path" fill="#333333" points="8.6985567 51.2950515 51.2243299 51.2950515 51.2243299 24.2334021 40.5927835 24.2334021 40.5927835 26.1661856 49.2913402 26.1661856 49.2913402 49.3620619 10.6315464 49.3620619 10.6315464 26.1661856 19.3298969 26.1661856 19.3298969 24.2334021 8.6985567 24.2334021"></polygon>
                    <rect id="Rectangle" fill="#333333" x="28.9948454" y="0.0709278351" width="1.93298969" height="2.89958763"></rect>
                    <polygon id="Rectangle" fill="#333333" transform="translate(21.505242, 3.786263) rotate(-30.005690) translate(-21.505242, -3.786263) " points="20.5387196 2.33642894 22.4717634 2.33642894 22.4717634 5.23609777 20.5387196 5.23609777"></polygon>
                    <polygon id="Rectangle" fill="#333333" transform="translate(15.313303, 9.978408) rotate(-59.999272) translate(-15.313303, -9.978408) " points="14.3468295 8.52874963 16.2797767 8.52874963 16.2797767 11.4280673 14.3468295 11.4280673"></polygon>
                    <rect id="Rectangle" fill="#333333" x="11.5979381" y="17.4678351" width="2.89958763" height="1.93298969"></rect>
                    <rect id="Rectangle" fill="#333333" x="45.4253608" y="17.4678351" width="2.89958763" height="1.93298969"></rect>
                    <path d="M36.7268041,35.831134 L22.2292784,35.831134 L22.2292784,34.8645361 C22.2292784,31.9950515 21.2115464,29.2037113 19.2863918,26.7362887 C17.0383505,23.8581443 16.0670103,20.2569072 16.5521649,16.5958763 C17.3515464,10.5562887 22.3298969,5.67649485 28.3898969,4.99216495 C32.2404124,4.55814433 36.1024742,5.77793814 38.9729897,8.34103093 C41.8453608,10.9061856 43.4923711,14.585567 43.4923711,18.4342268 C43.4923711,21.5241237 42.4746392,24.4331959 40.5494845,26.8465979 C38.7082474,29.1575258 37.6934021,31.9845361 37.6934021,34.8047423 L37.6934021,35.7713402 L36.7268041,35.831134 Z" id="Path" fill="#47E4C2"></path>
                    <path d="M25.128866,25.4298969 L25.128866,33.8983505 L22.2292784,33.8983505 C20.6307216,33.8983505 19.3296907,35.1991753 19.3296907,36.7979381 C19.3296907,37.8272165 19.8727835,38.7280412 20.6837113,39.242268 C20.4439175,39.6645361 20.2960825,40.1449485 20.2960825,40.6639175 C20.2960825,41.6931959 20.8391753,42.5940206 21.6501031,43.1082474 C21.4103093,43.5305155 21.2624742,44.0109278 21.2624742,44.5298969 C21.2624742,46.1284536 22.563299,47.4294845 24.1620619,47.4294845 L35.76,47.4294845 C37.3585567,47.4294845 38.6595876,46.1286598 38.6595876,44.5298969 C38.6595876,44.0109278 38.5117526,43.5305155 38.2719588,43.1082474 C39.0828866,42.5940206 39.6259794,41.6931959 39.6259794,40.6639175 C39.6259794,40.1449485 39.4781443,39.6645361 39.2383505,39.242268 C40.0492784,38.7280412 40.5923711,37.8272165 40.5923711,36.7979381 C40.5923711,35.1993814 39.2915464,33.8983505 37.6927835,33.8983505 L34.7938144,33.8983505 L34.7938144,25.4298969 C35.9583505,24.6490722 36.7268041,23.3210309 36.7268041,21.8171134 C36.7268041,19.4191753 34.7754639,17.4678351 32.3775258,17.4678351 L27.5449485,17.4678351 C26.2131959,17.4678351 25.1286598,16.3843299 25.1286598,15.0515464 C25.1286598,13.7187629 26.2129897,12.6352577 27.5449485,12.6352577 L32.3775258,12.6352577 C33.7092784,12.6352577 34.7938144,13.7187629 34.7938144,15.0515464 L34.7938144,15.5348454 L36.7268041,15.5348454 L36.7268041,15.0515464 C36.7268041,12.6536082 34.7754639,10.702268 32.3775258,10.702268 L30.9278351,10.702268 L30.9278351,8.76927835 L28.9948454,8.76927835 L28.9948454,10.702268 L27.5451546,10.702268 C25.1472165,10.702268 23.1958763,12.6536082 23.1958763,15.0515464 C23.1958763,17.4494845 25.1472165,19.4008247 27.5451546,19.4008247 L32.377732,19.4008247 C33.7094845,19.4008247 34.7940206,20.4843299 34.7940206,21.8171134 C34.7940206,23.1498969 33.7096907,24.2334021 32.377732,24.2334021 L27.5451546,24.2334021 C26.2134021,24.2334021 25.128866,23.1498969 25.128866,21.8171134 L25.128866,21.3338144 L23.1958763,21.3338144 L23.1958763,21.8171134 C23.1958763,23.3218557 23.9643299,24.648866 25.128866,25.4298969 Z M30,28.3 C35.5228475,28.3 40,23.8228475 40,18.3 C40,12.7771525 35.5228475,8.3 30,8.3 C24.4771525,8.3 20,12.7771525 20,18.3 C20,23.8228475 24.4771525,28.3 30,28.3 Z M37.6934021,40.6637113 C37.6934021,41.1971134 37.2593814,41.6303093 36.7268041,41.6303093 L35.7602062,41.6303093 L24.162268,41.6303093 L23.1958763,41.6303093 C22.663299,41.6303093 22.2292784,41.1973196 22.2292784,40.6637113 C22.2292784,40.1303093 22.663299,39.6971134 23.1958763,39.6971134 L36.7268041,39.6971134 C37.2593814,39.6971134 37.6934021,40.1303093 37.6934021,40.6637113 Z M35.7604124,45.4960825 L24.1624742,45.4960825 C23.6298969,45.4960825 23.1958763,45.0630928 23.1958763,44.5294845 C23.1958763,43.9960825 23.6298969,43.5628866 24.1624742,43.5628866 L35.7604124,43.5628866 C36.2929897,43.5628866 36.7270103,43.9958763 36.7270103,44.5294845 C36.7268041,45.0630928 36.2929897,45.4960825 35.7604124,45.4960825 Z M38.6597938,36.797732 C38.6597938,37.331134 38.2257732,37.7643299 37.6931959,37.7643299 L36.7265979,37.7643299 L23.1958763,37.7643299 L22.2292784,37.7643299 C21.696701,37.7643299 21.2626804,37.3313402 21.2626804,36.797732 C21.2626804,36.2643299 21.696701,35.831134 22.2292784,35.831134 L37.6931959,35.831134 C38.2259794,35.831134 38.6597938,36.2643299 38.6597938,36.797732 Z M28.9948454,26.1661856 L28.9948454,28.0991753 L30.9278351,28.0991753 L30.9278351,26.1661856 L32.3775258,26.1661856 C32.5428866,26.1661856 32.7004124,26.1352577 32.8608247,26.1169072 L32.8608247,33.8981443 L27.0618557,33.8981443 L27.0618557,26.1169072 C27.222268,26.1352577 27.3797938,26.1661856 27.5451546,26.1661856 L28.9948454,26.1661856 Z" id="Shape" fill="#333333"></path>
                    <polygon id="Rectangle" fill="#333333" transform="translate(44.609562, 9.978913) rotate(-29.992901) translate(-44.609562, -9.978913) " points="43.1597472 9.01240365 46.0593772 9.01240365 46.0593772 10.9454216 43.1597472 10.9454216"></polygon>
                    <polygon id="Rectangle" fill="#333333" transform="translate(38.417927, 3.785855) rotate(-60.007099) translate(-38.417927, -3.785855) " points="36.9681118 2.81934631 39.8677418 2.81934631 39.8677418 4.75236424 36.9681118 4.75236424"></polygon>
                </g>
            </g>
        </g>
    </g>
</svg>