<?xml version="1.0" encoding="UTF-8"?>
<svg width="60px" height="60px" viewBox="0 0 60 60" version="1.1" xmlns="http://www.w3.org/2000/svg" xmlns:xlink="http://www.w3.org/1999/xlink">
    <!-- Generator: sketchtool 58 (101010) - https://sketch.com -->
    <title>6BEFF59F-9A11-475B-AC32-0A00FC4A9465@1.00x</title>
    <desc>Created with sketchtool.</desc>
    <g id="Page-1" stroke="none" stroke-width="1" fill="none" fill-rule="evenodd">
        <g id="Desktop-HD" transform="translate(-180.000000, -2395.000000)" fill-rule="nonzero">
            <g id="Group-3" transform="translate(165.000000, 2378.000000)">
                <g id="insured" transform="translate(15.000000, 17.000000)">
                    <g id="Group" transform="translate(5.806452, 4.838710)" fill="#47E4C2">
                        <path d="M19.8859627,10.7755796 L19.1748047,10.0644217 C17.0526714,7.94228831 14.2326109,6.77419355 11.2315713,6.77419355 C5.0390625,6.77419355 0,11.813256 0,18.0057648 L0,24.1935484 L0.967741935,24.1935484 C0.967741935,22.0558216 2.70098286,20.3225806 4.83870968,20.3225806 L4.83870968,23.2258065 C4.83870968,21.0880796 6.5719506,19.3548387 8.70967742,19.3548387 L16.4516129,19.3548387 C17.5209489,19.3548387 18.3870968,18.4886908 18.3870968,17.4193548 L18.3870968,20.3225806 C20.5248236,20.3225806 22.2580645,22.0558216 22.2580645,24.1935484 L23.2258065,24.1935484 L23.2258065,15.640751 C23.2258065,13.4737273 21.8932712,11.5481666 19.8859627,10.7755796 Z" id="Path"></path>
                        <polygon id="Path" points="13.5483871 0 13.5483871 3.87096774 28.3560794 3.87096774 28.3560794 15.483871 48.5483871 15.483871 48.5483871 0"></polygon>
                        <polygon id="Path" points="29.0322581 18.3870968 48.3870968 18.3870968 48.3870968 28.0645161 29.0322581 28.0645161"></polygon>
                        <polygon id="Path" points="43.5483871 45.483871 33.8709677 45.483871 33.8709677 35.8064516 43.5483871 35.8064516"></polygon>
                    </g>
                    <path d="M15.483871,0 L15.483871,11.733871 C15.9937311,11.6620464 16.5097342,11.6129032 17.0380229,11.6129032 C17.1656061,11.6129032 17.2917716,11.6275517 17.4193548,11.6313319 L17.4193548,1.93548387 L58.0645161,1.93548387 L58.0645161,58.0645161 L34.8387097,58.0645161 L34.8387097,46.407195 C34.8387097,44.2694683 33.4664819,42.4114793 31.4237336,41.7820691 L22.2580645,38.9634261 L22.2580645,37.0014806 C23.2924332,36.1702998 24.1066028,35.0797002 24.6065398,33.8293851 C27.0783455,33.6153289 29.0322581,31.5588773 29.0322581,29.0322581 C29.0322581,26.6960685 27.366589,24.741211 25.1612903,24.2913622 L25.1612903,22.2580645 L23.2258065,22.2580645 C23.2258065,22.7910786 22.7920236,23.2258065 22.2580645,23.2258065 L14.516129,23.2258065 C13.4226941,23.2258065 12.4237651,23.6043031 11.6129032,24.2185925 L11.6129032,22.2580645 L9.67741935,22.2580645 L9.67741935,24.2913622 C7.47212069,24.741211 5.80645161,26.6960685 5.80645161,29.0322581 C5.80645161,31.5588773 7.76036419,33.6153289 10.2321699,33.8293851 C10.7311619,35.0806452 11.5462765,36.1702998 12.5806452,37.0014806 L12.5806452,38.9634261 L3.41497609,41.7820691 C1.37222782,42.4114793 3.43811001e-15,44.2694683 3.43811001e-15,46.407195 L3.43811001e-15,60 L60,60 L60,0 L15.483871,0 Z M32.9032258,46.407195 L32.9032258,58.0645161 L18.3870968,58.0645161 L18.3870968,44.5945691 L22.9413433,48.2382497 L24.0569872,41.5410786 L30.8533897,43.6324974 C32.0796056,44.0100491 32.9032258,45.124748 32.9032258,46.407195 Z M21.4769721,40.7467553 L22.1914378,40.9664819 L21.5747857,44.6649761 L18.999496,42.6047442 L21.4769721,40.7467553 Z M27.0967742,29.0322581 C27.0967742,30.3076172 26.2646485,31.3807333 25.1197077,31.7700982 C25.1466419,31.5068989 25.1612903,31.2385017 25.1612903,30.9677419 L25.1612903,26.3071761 C26.2849672,26.7078818 27.0967742,27.7724925 27.0967742,29.0322581 L27.0967742,29.0322581 Z M7.74193548,29.0322581 C7.74193548,27.7724925 8.5537425,26.7078818 9.67741935,26.3071761 L9.67741935,30.9677419 C9.67741935,31.2385017 9.69206782,31.5068989 9.71900202,31.7700982 C8.57406121,31.3807333 7.74193548,30.3076172 7.74193548,29.0322581 L7.74193548,29.0322581 Z M11.6129032,30.9677419 L11.6129032,28.0645161 C11.6129032,26.4640562 12.9156691,25.1612903 14.516129,25.1612903 L22.2580645,25.1612903 C22.5987588,25.1612903 22.9219695,25.0918283 23.2258065,24.9831465 L23.2258065,30.9677419 C23.2258065,34.1700794 20.6216923,36.7741935 17.4193548,36.7741935 C14.2170174,36.7741935 11.6129032,34.1700794 11.6129032,30.9677419 L11.6129032,30.9677419 Z M17.4193548,38.7096774 C18.446163,38.7096774 19.4257183,38.5045994 20.3225806,38.1398059 L20.3225806,39.1935484 L17.4193548,41.3709677 L14.516129,39.1935484 L14.516129,38.1398059 C15.4129914,38.5045994 16.3925467,38.7096774 17.4193548,38.7096774 Z M13.3617376,40.7467553 L15.8392137,42.6047442 L13.263924,44.6649761 L12.6472719,40.9664819 L13.3617376,40.7467553 Z M1.93548387,46.407195 C1.93548387,45.124748 2.75910411,44.0091041 3.984375,43.6324974 L10.7807775,41.5410786 L11.8964214,48.2382497 L16.4516129,44.5945691 L16.4516129,58.0645161 L1.93548387,58.0645161 L1.93548387,46.407195 Z" id="Shape" fill="#000000"></path>
                    <polygon id="Path" fill="#000000" points="20.3225806 50.3225806 22.2580645 50.3225806 22.2580645 52.2580645 20.3225806 52.2580645"></polygon>
                    <polygon id="Path" fill="#000000" points="12.5806452 50.3225806 14.516129 50.3225806 14.516129 52.2580645 12.5806452 52.2580645"></polygon>
                    <polygon id="Path" fill="#000000" points="20.3225806 54.1935484 22.2580645 54.1935484 22.2580645 56.1290323 20.3225806 56.1290323"></polygon>
                    <polygon id="Path" fill="#000000" points="12.5806452 54.1935484 14.516129 54.1935484 14.516129 56.1290323 12.5806452 56.1290323"></polygon>
                    <polygon id="Path" fill="#000000" points="19.3548387 3.87096774 54.3548387 3.87096774 54.3548387 5.80645161 19.3548387 5.80645161"></polygon>
                    <polygon id="Path" fill="#000000" points="42.5806452 7.74193548 54.3806452 7.74193548 54.3806452 9.67741935 42.5806452 9.67741935"></polygon>
                    <polygon id="Path" fill="#000000" points="19.3548387 7.74193548 40.6451613 7.74193548 40.6451613 9.67741935 19.3548387 9.67741935"></polygon>
                    <polygon id="Path" fill="#000000" points="52.2580645 23.2258065 54.1935484 23.2258065 54.1935484 25.1612903 52.2580645 25.1612903"></polygon>
                    <polygon id="Path" fill="#000000" points="34.8387097 23.2258065 50.3225806 23.2258065 50.3225806 25.1612903 34.8387097 25.1612903"></polygon>
                    <polygon id="Path" fill="#000000" points="34.8387097 27.0967742 54.1935484 27.0967742 54.1935484 29.0322581 34.8387097 29.0322581"></polygon>
                    <polygon id="Path" fill="#000000" points="43.5483871 30.9677419 45.483871 30.9677419 45.483871 32.9032258 43.5483871 32.9032258"></polygon>
                    <polygon id="Path" fill="#000000" points="47.4193548 30.9677419 49.3548387 30.9677419 49.3548387 32.9032258 47.4193548 32.9032258"></polygon>
                    <polygon id="Path" fill="#000000" points="51.2903226 30.9677419 53.2258065 30.9677419 53.2258065 32.9032258 51.2903226 32.9032258"></polygon>
                    <polygon id="Path" fill="#000000" points="35.8064516 30.9677419 37.7419355 30.9677419 37.7419355 32.9032258 35.8064516 32.9032258"></polygon>
                    <polygon id="Path" fill="#000000" points="39.6774194 30.9677419 41.6129032 30.9677419 41.6129032 32.9032258 39.6774194 32.9032258"></polygon>
                    <polygon id="Path" fill="#000000" points="34.1 11.6129032 36.0354839 11.6129032 36.0354839 13.5483871 34.1 13.5483871"></polygon>
                    <polygon id="Path" fill="#000000" points="37.870968 11.6129032 54.370968 11.6129032 54.370968 13.5483871 37.870968 13.5483871"></polygon>
                    <polygon id="Path" fill="#000000" points="34.2 15.483871 54.35 15.483871 54.35 17.4193548 34.2 17.4193548"></polygon>
                    <polygon id="Path" fill="#000000" points="34.2 19.3548387 54.35 19.3548387 54.35 21.2903226 34.2 21.2903226"></polygon>
                    <polygon id="Path" fill="#000000" points="51.5738407 38.0254536 44.516129 45.0831653 43.264869 43.8319052 41.8964214 45.2003528 44.516129 47.8200605 52.9422883 39.3939012"></polygon>
                    <polygon id="Path" fill="#000000" points="39.6774194 54.594254 41.6129032 56.5297379 43.5483871 54.594254 45.0831653 56.1290323 52.2580645 56.1290323 52.2580645 54.1935484 45.8845766 54.1935484 43.5483871 51.8573589 41.6129032 53.7928427 39.6774194 51.8573589 37.0577117 54.4770665 38.4261593 55.8455141"></polygon>
                    <polygon id="Path" fill="#000000" points="54.1935484 54.1935484 56.1290323 54.1935484 56.1290323 56.1290323 54.1935484 56.1290323"></polygon>
                </g>
            </g>
        </g>
    </g>
</svg>