<?xml version="1.0" encoding="UTF-8"?>
<svg width="60px" height="62px" viewBox="0 0 60 62" version="1.1" xmlns="http://www.w3.org/2000/svg" xmlns:xlink="http://www.w3.org/1999/xlink">
    <!-- Generator: sketchtool 58 (101010) - https://sketch.com -->
    <title>08F090AD-9F3E-4D85-8984-9A93B75C04DB@1.00x</title>
    <desc>Created with sketchtool.</desc>
    <g id="Page-1" stroke="none" stroke-width="1" fill="none" fill-rule="evenodd">
        <g id="Desktop-HD-Copy-3" transform="translate(-182.000000, -1057.000000)" fill-rule="nonzero">
            <g id="Group-3" transform="translate(167.000000, 1039.000000)">
                <g id="invoice" transform="translate(15.000000, 18.000000)">
                    <g id="Icons_copy" transform="translate(1.000000, 1.000000)">
                        <path d="M16.5702739,8.3671757 L16.5702739,23.8328579 L2.07128409,23.8328579 C0.928761849,23.8294608 0.00341223346,22.9082182 -5.65441325e-07,21.7707669 L-5.65441325e-07,8.3671757 C-0.00133820482,4.74391247 2.37252366,1.5440112 5.85137755,0.479677798 C6.92104522,0.159207325 8.04344406,0.0506181931 9.15507568,0.1600537 C13.3722925,0.60334595 16.5725107,4.14533975 16.5702739,8.3671757 L16.5702739,8.3671757 Z" id="Shape" fill="#47E4C2"></path>
                        <path d="M13.5876236,8.3671757 L13.5876236,23.8328579 L2.07128409,23.8328579 C0.928761849,23.8294608 0.00341223346,22.9082182 -5.65441323e-07,21.7707669 L-5.65441323e-07,8.3671757 C-0.00133820482,4.74391247 2.37252366,1.5440112 5.85137755,0.479677798 C9.75574806,1.52103373 13.5876236,4.65541198 13.5876236,8.3671757 Z" id="Shape" fill="#47E4C2"></path>
                        <path d="M57.9959545,8.3671757 L57.9959545,57.8573586 C57.9925423,58.9948099 57.0671927,59.9160525 55.9246704,59.9194496 L18.6415568,59.9194496 C17.4990345,59.9160525 16.573685,58.9948099 16.5702727,57.8573586 L16.5702727,8.3671757 C16.5702727,3.81173015 12.8608908,0.118811881 8.28513636,0.118811881 L49.7108182,0.118811881 C54.2865726,0.118811881 57.9959545,3.81173015 57.9959545,8.3671757 Z" id="Shape" fill="#47E4C2"></path>
                        <path d="M54.8890284,8.3671757 L54.8890284,57.8573586 C54.8856162,58.9948099 53.9602666,59.9160525 52.8177443,59.9194496 L18.6415568,59.9194496 C17.4990345,59.9160525 16.573685,58.9948099 16.5702727,57.8573586 L16.5702727,8.3671757 C16.5725107,4.14533975 13.3722925,0.60334595 9.15507568,0.1600537 C8.86604114,0.13088497 8.57564711,0.117118049 8.28513636,0.118554391 L46.603892,0.118554391 C51.1796465,0.118554391 54.8890284,3.81173015 54.8890284,8.3671757 Z" id="Shape" fill="#FFFFFF"></path>
                        <path d="M35.2118295,37.2364491 L35.2118295,55.7952677 L21.7484829,55.7952677 C21.1765137,55.7952677 20.7128409,55.3336528 20.7128409,54.7642222 L20.7128409,37.2364491 L35.2118295,37.2364491 Z" id="Shape" fill="#47E4C2"></path>
                        <path d="M32.1049034,37.2364491 L32.1049034,55.7952677 L21.7484829,55.7952677 C21.1765137,55.7952677 20.7128409,55.3336528 20.7128409,54.7642222 L20.7128409,37.2364491 L32.1049034,37.2364491 Z" id="Shape" fill="#47E4C2"></path>
                        <path d="M53.8533863,25.8949488 L53.8533863,54.7642222 C53.8533863,55.3336528 53.3897136,55.7952677 52.8177443,55.7952677 L35.2118295,55.7952677 L35.2118295,37.2364491 L20.7128409,37.2364491 L20.7128409,25.8949488 C20.7128409,25.3255182 21.1765137,24.8639033 21.7484829,24.8639033 L52.8177443,24.8639033 C53.3897136,24.8639033 53.8533863,25.3255182 53.8533863,25.8949488 Z" id="Shape" fill="#47E4C2"></path>
                        <path d="M50.7464602,25.8949488 L50.7464602,54.7642222 C50.7464602,55.3336528 50.2827874,55.7952677 49.7108182,55.7952677 L35.2118295,55.7952677 L35.2118295,37.2364491 L20.7128409,37.2364491 L20.7128409,25.8949488 C20.7128409,25.3255182 21.1765137,24.8639033 21.7484829,24.8639033 L49.7108182,24.8639033 C50.2827874,24.8639033 50.7464602,25.3255182 50.7464602,25.8949488 Z" id="Shape" fill="#FFFFFF"></path>
                    </g>
                    <g id="Icons" transform="translate(1.000000, 1.000000)" fill="#FFFFFF">
                        <path d="M18.7785496,59.9192897 L21.9083079,59.9192897 C20.7573894,59.9158859 19.8252397,58.9928155 19.8218024,57.8531073 L19.8218024,24.2776433 L16.6920441,24.2776433 L16.6920441,57.8531073 C16.6954814,58.9928155 17.6276312,59.9158859 18.7785496,59.9192897 Z" id="Shape"></path>
                        <path d="M0,8.26472962 L0,21.6949153 C0.00343730918,22.8346234 0.93558712,23.7576938 2.08650551,23.7610977 L5.21626378,23.7610977 C4.06534539,23.7576938 3.13319558,22.8346234 3.12975827,21.6949153 L3.12975827,8.26472962 C3.12975827,3.70024549 6.86639961,0 11.4757803,0 L8.34602204,0 C3.73664135,0 0,3.70024549 0,8.26472962 Z" id="Shape"></path>
                    </g>
                    <path d="M3.96515413,1 L5,2.77777778 C3.07930768,4.13680042 1.91675311,6.48129147 1.91460846,9 L0,9 C0.00520947731,5.76284554 1.49851626,2.74998554 3.96515413,1 L3.96515413,1 Z" id="Shape" fill="#FFFFFF"></path>
                    <polygon id="Rectangle-path" fill="#FFFFFF" points="0 15 2 15 2 23 0 23"></polygon>
                    <g id="Group" fill="#000000">
                        <path d="M19.7094431,61.9235015 L56.9007264,61.9235015 C58.6124079,61.9235015 60,60.5390993 60,58.8313527 L60,9.35697123 C59.9937384,4.23632116 55.834628,0.0867718395 50.7021792,0.0805247094 C7.18321227,0.0805247094 8.11299435,-0.228690175 5.63460856,0.87829911 C5.34947538,1.00816936 4.46205004,1.48848315 4.35977401,1.55547971 C4.325682,1.57712475 4.30915254,1.61010767 4.2791929,1.63484486 C3.01275491,2.46789635 1.96315783,3.58962707 1.21711057,4.90736905 C-0.229217111,7.72328593 0.0807102502,9.27142178 0.0807102502,14.5105526 C0.0807102502,15.0798015 0.543240936,15.5412689 1.11380145,15.5412689 C1.68436197,15.5412689 2.14689266,15.0798015 2.14689266,14.5105526 C2.14689266,9.7094762 1.91651332,7.96138139 2.94443906,6.07413988 C4.46817101,3.11132446 7.82636745,1.57382967 11.0713739,2.35335692 C14.3163806,3.13288417 16.605111,6.02690422 16.6101695,9.35697123 L16.6101695,23.7869992 L3.17998386,23.7869992 C2.60942334,23.7869992 2.14689266,23.3255317 2.14689266,22.7562829 C2.14689266,22.187034 1.68436197,21.7255666 1.11380145,21.7255666 C-0.858369653,21.7255666 0.10653753,25.8484317 3.17998386,25.8484317 L16.6101695,25.8484317 L16.6101695,58.8313527 C16.6101695,60.5390993 17.9977616,61.9235015 19.7094431,61.9235015 Z M15.2165295,2.14195727 L50.7021792,2.14195727 C54.6942148,2.14650133 57.9292631,5.37411278 57.9338176,9.35697123 L57.9338176,58.8313527 C57.9338176,59.4006015 57.4712869,59.862069 56.9007264,59.862069 L19.7094431,59.862069 C19.1388826,59.862069 18.6763519,59.4006015 18.6763519,58.8313527 L18.6763519,9.35697123 C18.6765188,6.55359586 17.4044638,3.90088897 15.2165295,2.14195727 Z" id="Shape"></path>
                        <path d="M1.13446328,19.6641469 C1.70434269,19.6612911 2.16428055,19.1985725 2.16238915,18.6299992 C2.16048605,18.0614259 1.69747036,17.6017729 1.1275846,17.6027144 C0.557698851,17.6036587 0.0962066182,18.0648413 0.0962066182,18.6334178 C0.0962066182,18.907676 0.205755186,19.1706268 0.400616001,19.3640723 C0.595476817,19.557518 0.859576562,19.6655053 1.13446328,19.6641469 L1.13446328,19.6641469 Z" id="Shape"></path>
                        <path d="M22.8087167,57.8006364 L53.8014528,57.8006364 C54.9425738,57.8006364 55.8676352,56.8777016 55.8676352,55.7392038 L55.8676352,26.879148 C55.8676352,25.7406502 54.9425738,24.8177154 53.8014528,24.8177154 L22.8087167,24.8177154 C21.6675957,24.8177154 20.7425343,25.7406502 20.7425343,26.879148 L20.7425343,55.7392038 C20.7425343,56.8777016 21.6675957,57.8006364 22.8087167,57.8006364 Z M37.2719935,26.879148 L53.8014528,26.879148 L53.8014528,31.0020131 L37.2719935,31.0020131 L37.2719935,26.879148 Z M37.2719935,33.0634457 L53.8014528,33.0634457 L53.8014528,37.1863108 L37.2719935,37.1863108 L37.2719935,33.0634457 Z M37.2719935,39.2477434 L53.8014528,39.2477434 L53.8014528,43.3706085 L37.2719935,43.3706085 L37.2719935,39.2477434 Z M37.2719935,45.432041 L53.8014528,45.432041 L53.8014528,49.5549062 L37.2719935,49.5549062 L37.2719935,45.432041 Z M37.2719935,51.6163387 L53.8014528,51.6163387 L53.8014528,55.7392038 L37.2719935,55.7392038 L37.2719935,51.6163387 Z M22.8087167,26.879148 L35.2058111,26.879148 L35.2058111,31.0020131 L22.8087167,31.0020131 L22.8087167,26.879148 Z M22.8087167,33.0634457 L35.2058111,33.0634457 L35.2058111,37.1863108 L22.8087167,37.1863108 L22.8087167,33.0634457 Z M22.8087167,39.2477434 L35.2058111,39.2477434 L35.2058111,55.7392038 L22.8087167,55.7392038 L22.8087167,39.2477434 Z" id="Shape"></path>
                        <path d="M22.8087167,7.29553867 L35.2058111,7.29553867 C35.7763716,7.29553867 36.2389023,6.83407127 36.2389023,6.26482239 C36.2389023,5.69557351 35.7763716,5.23410611 35.2058111,5.23410611 L22.8087167,5.23410611 C22.2381562,5.23410611 21.7756255,5.69557351 21.7756255,6.26482239 C21.7756255,6.83407127 22.2381562,7.29553867 22.8087167,7.29553867 Z" id="Shape"></path>
                        <path d="M22.8087167,11.4184038 L32.1065375,11.4184038 C32.677098,11.4184038 33.1396287,10.9569363 33.1396287,10.3876875 C33.1396287,9.81843868 32.677098,9.35697123 32.1065375,9.35697123 L22.8087167,9.35697123 C22.2381562,9.35697123 21.7756255,9.81843868 21.7756255,10.3876875 C21.7756255,10.9569363 22.2381562,11.4184038 22.8087167,11.4184038 Z" id="Shape"></path>
                        <path d="M22.8087167,15.5412689 L40.3712672,15.5412689 C40.9418276,15.5412689 41.4043584,15.0798015 41.4043584,14.5105526 C41.4043584,13.9413038 40.9418276,13.4798364 40.3712672,13.4798364 L22.8087167,13.4798364 C22.2381562,13.4798364 21.7756255,13.9413038 21.7756255,14.5105526 C21.7756255,15.0798015 22.2381562,15.5412689 22.8087167,15.5412689 Z" id="Shape"></path>
                        <path d="M22.8087167,19.664134 L32.1065375,19.664134 C32.677098,19.664134 33.1396287,19.2026666 33.1396287,18.6334178 C33.1396287,18.0641689 32.677098,17.6027015 32.1065375,17.6027015 L22.8087167,17.6027015 C22.2381562,17.6027015 21.7756255,18.0641689 21.7756255,18.6334178 C21.7756255,19.2026666 22.2381562,19.664134 22.8087167,19.664134 Z" id="Shape"></path>
                        <path d="M35.2058111,10.3876875 C35.2058111,10.9569363 35.6683419,11.4184038 36.2389023,11.4184038 L53.8014528,11.4184038 C54.3720132,11.4184038 54.834544,10.9569363 54.834544,10.3876875 C54.834544,9.81843868 54.3720132,9.35697123 53.8014528,9.35697123 L36.2389023,9.35697123 C35.6683419,9.35697123 35.2058111,9.81843868 35.2058111,10.3876875 Z" id="Shape"></path>
                        <path d="M53.8014528,13.4798364 L44.503632,13.4798364 C43.9330715,13.4798364 43.4705408,13.9413038 43.4705408,14.5105526 C43.4705408,15.0798015 43.9330715,15.5412689 44.503632,15.5412689 L53.8014528,15.5412689 C54.3720132,15.5412689 54.834544,15.0798015 54.834544,14.5105526 C54.834544,13.9413038 54.3720132,13.4798364 53.8014528,13.4798364 Z" id="Shape"></path>
                        <path d="M53.8014528,17.6027015 L36.2389023,17.6027015 C35.6683419,17.6027015 35.2058111,18.0641689 35.2058111,18.6334178 C35.2058111,19.2026666 35.6683419,19.664134 36.2389023,19.664134 L53.8014528,19.664134 C54.3720132,19.664134 54.834544,19.2026666 54.834544,18.6334178 C54.834544,18.0641689 54.3720132,17.6027015 53.8014528,17.6027015 Z" id="Shape"></path>
                    </g>
                </g>
            </g>
        </g>
    </g>
</svg>