<?xml version="1.0" encoding="UTF-8"?>
<svg width="9px" height="15px" viewBox="0 0 9 15" version="1.1" xmlns="http://www.w3.org/2000/svg" xmlns:xlink="http://www.w3.org/1999/xlink">
    <!-- Generator: sketchtool 58 (101010) - https://sketch.com -->
    <title>F7E91869-426D-41B9-87DA-B25E1DDCE89D@1.00x</title>
    <desc>Created with sketchtool.</desc>
    <defs>
        <path d="M13.7762258,0.693394509 L13.3176367,0.230103744 C13.1733104,0.0854181642 12.9812925,0.00570977033 12.7760714,0.00570977033 C12.570964,0.00570977033 12.3787185,0.0854181642 12.2343921,0.230103744 L7.00313011,5.47875303 L1.76583549,0.224279779 C1.62173676,0.0795941985 1.4294913,0 1.22438394,0 C1.01927658,0 0.826917292,0.0795941985 0.682704737,0.224279779 L0.224001821,0.684715659 C-0.0746672737,0.984136015 -0.0746672737,1.4718646 0.224001821,1.77128495 L6.45962975,8.04986261 C6.60372849,8.19443399 6.79574631,8.2962963 7.00267482,8.2962963 L7.00506508,8.2962963 C7.21028626,8.2962963 7.40230408,8.1943198 7.54640282,8.04986261 L13.7762258,1.78830007 C13.9205522,1.64372868 13.9997724,1.44525707 14,1.23947694 C14,1.03358263 13.9205522,0.837851699 13.7762258,0.693394509 Z" id="path-1"></path>
    </defs>
    <g id="Page-1" stroke="none" stroke-width="1" fill="none" fill-rule="evenodd">
        <g id="Screen1-popup" transform="translate(-516.000000, -135.000000)" fill-rule="nonzero">
            <g id="Group-5" transform="translate(500.000000, 122.000000)">
                <g id="left-arrow" transform="translate(20.000000, 20.500000) scale(-1, 1) rotate(-90.000000) translate(-20.000000, -20.500000) translate(13.000000, 16.000000)">
                    <g id="Path">
                        <use fill="#000000" xlink:href="#path-1"></use>
                        <use fill="#FFFFFF" xlink:href="#path-1"></use>
                    </g>
                </g>
            </g>
        </g>
    </g>
</svg>