<?xml version="1.0" encoding="UTF-8"?>
<svg width="57px" height="48px" viewBox="0 0 57 48" version="1.1" xmlns="http://www.w3.org/2000/svg" xmlns:xlink="http://www.w3.org/1999/xlink">
    <!-- Generator: sketchtool 58 (101010) - https://sketch.com -->
    <title>595AE22B-D62C-46F4-8436-8E58E3844219@1.00x</title>
    <desc>Created with sketchtool.</desc>
    <g id="Page-1" stroke="none" stroke-width="1" fill="none" fill-rule="evenodd">
        <g id="Desktop-HD-Copy-3" transform="translate(-880.000000, -395.000000)" fill-rule="nonzero">
            <g id="contact" transform="translate(880.000000, 395.000000)">
                <path d="M56,33 L56,35 C56,37.209139 54.3583774,39 52.3333333,39 L4.66666667,39 C2.64162258,39 1,37.209139 1,35 L1,33 L56,33 Z" id="Path" fill="#00F2DA"></path>
                <polygon id="Path" fill="#00E7C0" points="40 6 28.5 16 17 6"></polygon>
                <polygon id="Path" fill="#00F2DA" points="18 44 40 44 40 47 18 47"></polygon>
                <polygon id="Path" fill="#57A4FF" points="45 1 28.5 16 12 1"></polygon>
                <polygon id="Path" fill="#00F2DA" points="45 1 28.5 16 12 1"></polygon>
                <g id="Group">
                    <path d="M52.4032258,39.6923077 L4.59677419,39.6923077 C2.05922733,39.6894462 0.00284993366,37.6247434 -7.10542736e-15,35.0769231 L-7.10542736e-15,9.23076923 C0.00284993366,6.68294889 2.05922733,4.61824609 4.59677419,4.61538462 L11.9516129,4.61538462 L11.9516129,6.46153846 L4.59677419,6.46153846 C3.07424607,6.46325534 1.84041964,7.70207703 1.83870968,9.23076923 L1.83870968,35.0769231 C1.84041964,36.6056153 3.07424607,37.844437 4.59677419,37.8461538 L52.4032258,37.8461538 C53.9257539,37.844437 55.1595804,36.6056153 55.1612903,35.0769231 L55.1612903,9.23076923 C55.1595804,7.70207703 53.9257539,6.46325534 52.4032258,6.46153846 L45.0483871,6.46153846 L45.0483871,4.61538462 L52.4032258,4.61538462 C54.9407727,4.61824609 56.9971501,6.68294889 57,9.23076923 L57,35.0769231 C56.9971501,37.6247434 54.9407727,39.6894462 52.4032258,39.6923077 L52.4032258,39.6923077 Z" id="Path" fill="#000000"></path>
                    <path d="M55.1612903,34.1538462 L1.83870968,34.1538462 C1.33096402,34.1538462 0.919354839,33.7405705 0.919354839,33.2307692 C0.919354839,32.7209679 1.33096402,32.3076923 1.83870968,32.3076923 L55.1612903,32.3076923 C55.669036,32.3076923 56.0806452,32.7209679 56.0806452,33.2307692 C56.0806452,33.7405705 55.669036,34.1538462 55.1612903,34.1538462 Z" id="Path" fill="#000000"></path>
                    <path d="M10.1129032,36.9230769 L5.51612903,36.9230769 C5.00838338,36.9230769 4.59677419,36.5098013 4.59677419,36 C4.59677419,35.4901987 5.00838338,35.0769231 5.51612903,35.0769231 L10.1129032,35.0769231 C10.6206489,35.0769231 11.0322581,35.4901987 11.0322581,36 C11.0322581,36.5098013 10.6206489,36.9230769 10.1129032,36.9230769 Z" id="Path" fill="#000000"></path>
                    <path d="M13.7903226,36.9230769 L12.8709677,36.9230769 C12.3632221,36.9230769 11.9516129,36.5098013 11.9516129,36 C11.9516129,35.4901987 12.3632221,35.0769231 12.8709677,35.0769231 L13.7903226,35.0769231 C14.2980682,35.0769231 14.7096774,35.4901987 14.7096774,36 C14.7096774,36.5098013 14.2980682,36.9230769 13.7903226,36.9230769 Z" id="Path" fill="#000000"></path>
                    <path d="M34.9354839,45.2307692 L21.9495968,45.2307692 C21.6761099,45.2307692 21.4168213,45.1085143 21.2421591,44.8972147 C21.067497,44.6859151 20.9955959,44.4075082 21.0459859,44.1376154 L22.0802601,38.5991538 C22.1617759,38.1625484 22.5414515,37.8461538 22.983871,37.8461538 L34.016129,37.8461538 C34.4655896,37.8461538 34.8491925,38.1723581 34.9230726,38.6175 L35.8424274,44.1559615 C35.8868513,44.4236238 35.811728,44.6973537 35.6370263,44.9043906 C35.4623246,45.1114274 35.2057429,45.2307692 34.9354839,45.2307692 Z M23.0574194,43.3846154 L33.8503004,43.3846154 L33.2373206,39.6923077 L23.7469355,39.6923077 L23.0574194,43.3846154 Z" id="Shape" fill="#000000"></path>
                    <path d="M39.5322581,48 L17.4677419,48 C16.9599963,48 16.5483871,47.5867244 16.5483871,47.0769231 L16.5483871,44.3076923 C16.5483871,43.797891 16.9599963,43.3846154 17.4677419,43.3846154 L39.5322581,43.3846154 C40.0400037,43.3846154 40.4516129,43.797891 40.4516129,44.3076923 L40.4516129,47.0769231 C40.4516129,47.5867244 40.0400037,48 39.5322581,48 Z M18.3870968,46.1538462 L38.6129032,46.1538462 L38.6129032,45.2307692 L18.3870968,45.2307692 L18.3870968,46.1538462 Z" id="Shape" fill="#000000"></path>
                    <path d="M45.0483871,25.8461538 L11.9516129,25.8461538 C11.4438672,25.8461538 11.0322581,25.4328782 11.0322581,24.9230769 L11.0322581,0.923076923 C11.0322581,0.413275616 11.4438672,0 11.9516129,0 L45.0483871,0 C45.5561328,0 45.9677419,0.413275616 45.9677419,0.923076923 L45.9677419,24.9230769 C45.9677419,25.4328782 45.5561328,25.8461538 45.0483871,25.8461538 Z M12.8709677,24 L44.1290323,24 L44.1290323,1.84615385 L12.8709677,1.84615385 L12.8709677,24 Z" id="Shape" fill="#000000"></path>
                    <path d="M28.5,16.6153852 C28.2748177,16.6156305 28.0574287,16.5326192 27.8893185,16.3821923 L11.3409315,1.61296154 L12.5622944,0.233192308 L28.5,14.4576923 L44.4377056,0.233192308 L45.6590685,1.61296154 L29.1106815,16.3821923 C28.9425713,16.5326192 28.7251823,16.6156305 28.5,16.6153852 L28.5,16.6153852 Z" id="Path" fill="#000000"></path>
                    <polygon id="Path" fill="#000000" transform="translate(17.473070, 15.201249) rotate(-37.076120) translate(-17.473070, -15.201249) " points="10.5489039 14.2928018 24.400818 14.2658669 24.3972366 16.1096957 10.5453226 16.1366306"></polygon>
                    <polygon id="Path" fill="#000000" transform="translate(39.480593, 15.189886) rotate(-53.210300) translate(-39.480593, -15.189886) " points="38.5721832 8.2199008 40.4160377 8.21632982 40.3890024 22.1598712 38.5451479 22.1634421"></polygon>
                    <path d="M38.6129032,23.0769231 L31.2580645,23.0769231 C30.7503189,23.0769231 30.3387097,22.6636475 30.3387097,22.1538462 C30.3387097,21.6440448 30.7503189,21.2307692 31.2580645,21.2307692 L38.6129032,21.2307692 C39.1206489,21.2307692 39.5322581,21.6440448 39.5322581,22.1538462 C39.5322581,22.6636475 39.1206489,23.0769231 38.6129032,23.0769231 Z" id="Path" fill="#000000"></path>
                    <path d="M42.2903226,23.0769231 L41.3709677,23.0769231 C40.8632221,23.0769231 40.4516129,22.6636475 40.4516129,22.1538462 C40.4516129,21.6440448 40.8632221,21.2307692 41.3709677,21.2307692 L42.2903226,21.2307692 C42.7980682,21.2307692 43.2096774,21.6440448 43.2096774,22.1538462 C43.2096774,22.6636475 42.7980682,23.0769231 42.2903226,23.0769231 Z" id="Path" fill="#06AE9E"></path>
                </g>
            </g>
        </g>
    </g>
</svg>