<?xml version="1.0" encoding="UTF-8"?>
<svg width="49px" height="48px" viewBox="0 0 49 48" version="1.1" xmlns="http://www.w3.org/2000/svg" xmlns:xlink="http://www.w3.org/1999/xlink">
    <!-- Generator: sketchtool 58 (101010) - https://sketch.com -->
    <title>836E04E3-6759-45D8-8FE0-900D957339EE@1.00x</title>
    <desc>Created with sketchtool.</desc>
    <g id="Page-1" stroke="none" stroke-width="1" fill="none" fill-rule="evenodd">
        <g id="Desktop-HD-Copy-3" transform="translate(-985.000000, -395.000000)">
            <g id="phone-(1)" transform="translate(985.000000, 395.000000)">
                <g id="Group" transform="translate(1.000000, 10.000000)" fill="#57A4FF" fill-rule="nonzero">
                    <path d="M36.9685106,32.8355319 C27.5920116,39.1889233 15.0254616,37.9922983 7.01658162,29.9834184 C-0.992298332,21.9745384 -2.18892335,9.40798836 4.16446809,0.0314893617 L14.662234,10.5292553 L9.97327128,15.2182181 C9.35929898,15.8316781 9.13110137,16.7323786 9.37890957,17.5641755 C10.8262583,22.3946564 14.6053436,26.1737417 19.4358245,27.6210904 C20.2676214,27.8688986 21.1683219,27.640701 21.7817819,27.0267287 L26.4707447,22.337766 L36.9685106,32.8355319 Z" id="Path"></path>
                    <circle id="Oval" cx="23.7154255" cy="14.0718085" r="3.93617021"></circle>
                </g>
                <path d="M24.5,46.334729 C16.2215118,46.3327639 8.59257708,41.8697808 4.56187376,34.670743 C0.531170438,27.4717052 0.730197347,18.6645011 5.08202811,11.6532245 L14.3349598,20.8653061 L10.2024297,24.9795918 C9.38383375,25.7935412 9.0796877,26.988956 9.41036145,28.0927347 C10.9339248,33.154391 14.9114404,37.1143466 19.9955422,38.6311837 C21.1042155,38.9603976 22.3049312,38.6575943 23.12249,37.8426122 L27.2550201,33.7283265 L36.5079518,42.9404082 C32.9023294,45.1662924 28.7425295,46.3421423 24.5,46.334729 Z" id="Path-Copy" fill="#00F2DA"></path>
                <g id="Group">
                    <path d="M39.9930522,37.9239184 L32.630261,30.5936327 C31.4003303,29.3697702 29.4068986,29.3697702 28.1769679,30.5936327 L26.6981124,32.0659592 L22.0096586,36.7346939 C21.6007102,37.1426072 20.9997403,37.2938798 20.4452008,37.1284898 C15.8702195,35.7632668 12.2909958,32.1998448 10.9197189,27.6450612 C10.7540885,27.0929593 10.9059676,26.4948957 11.315261,26.0875102 L16.0046988,21.4197551 L17.4835542,19.9474286 C18.7128438,18.7229278 18.7128438,16.7382967 17.4835542,15.5137959 L10.1207631,8.1835102 C9.48596698,7.55190563 8.61112942,7.2191895 7.71504016,7.26857143 C6.8284696,7.31636745 6.00417733,7.73737962 5.44805221,8.42644898 C5.04660643,8.92506122 4.65991968,9.44620408 4.30078313,9.97420408 C4.30023972,9.97420408 4.2997992,9.97464266 4.2997992,9.97518367 C-2.26482823,19.6203417 -1.0285422,32.5471243 7.24642888,40.7855629 C15.5214,49.0240014 28.5055052,50.2548294 38.1934337,43.7191837 C38.1939771,43.7191837 38.1944177,43.7187451 38.1944177,43.7182041 C38.724759,43.3606531 39.2482129,42.9756735 39.7490361,42.576 C40.4411611,42.0223301 40.8640402,41.2016769 40.9120482,40.3190204 C40.9614724,39.4269147 40.6273075,38.5560087 39.9930522,37.9239184 Z M5.08202811,11.6532245 L14.3349598,20.8653061 L10.2024297,24.9795918 C9.38383375,25.7935412 9.0796877,26.988956 9.41036145,28.0927347 C10.9339248,33.154391 14.9114404,37.1143466 19.9955422,38.6311837 C21.1042155,38.9603976 22.3049312,38.6575943 23.12249,37.8426122 L27.2550201,33.7283265 L36.5079518,42.9404082 C32.9023294,45.1662924 28.7425295,46.3421423 24.5,46.334729 C16.2215118,46.3327639 8.59257708,41.8697808 4.56187376,34.670743 C0.531170438,27.4717052 0.730197347,18.6645011 5.08202811,11.6532245 Z M9.00694779,9.29240816 L16.369739,16.6226939 C16.6651881,16.9163693 16.8312094,17.3149605 16.8312094,17.7306122 C16.8312094,18.146264 16.6651881,18.5448552 16.369739,18.8385306 L15.4477912,19.7573878 L5.97445783,10.3258776 C6.20076305,10.0133878 6.43592369,9.70579592 6.67698795,9.40604082 C6.95120452,9.06287338 7.36069028,8.8540366 7.80064257,8.83297959 C8.25001098,8.80875301 8.68855212,8.97577403 9.00694779,9.29240816 Z M39.3407028,40.2337959 C39.3195524,40.6718059 39.1097896,41.0794839 38.7651004,41.3524898 C38.4640161,41.5924898 38.1550602,41.8266122 37.8411847,42.0519184 L28.3678514,32.6204082 L29.2907831,31.7025306 C29.5857608,31.4083858 29.9861195,31.2430975 30.4036145,31.2430975 C30.8211094,31.2430975 31.2214681,31.4083858 31.5164458,31.7025306 L38.8792369,39.0328163 C39.1974356,39.3497028 39.3652257,39.7863819 39.3407028,40.2337959 L39.3407028,40.2337959 Z" id="Shape" fill="#000000" fill-rule="nonzero"></path>
                    <path d="M33.1586345,24.3918367 C33.1586345,24.8246476 33.511053,25.1755102 33.9457831,25.1755102 C34.3805133,25.1755102 34.7329317,24.8246476 34.7329317,24.3918367 C34.7265333,18.7679357 30.1488397,14.2104518 24.5,14.2040816 C24.0652698,14.2040816 23.7128514,14.5549442 23.7128514,14.9877551 C23.7128514,15.420566 24.0652698,15.7714286 24.5,15.7714286 C29.279784,15.776827 33.1532122,19.6331547 33.1586345,24.3918367 L33.1586345,24.3918367 Z" id="Path" fill="#000000" fill-rule="nonzero"></path>
                    <path d="M24.5,7.15102041 C24.0652698,7.15102041 23.7128514,7.50188297 23.7128514,7.93469388 C23.7128514,8.36750478 24.0652698,8.71836735 24.5,8.71836735 C33.1807731,8.71836735 40.2429719,15.7493878 40.2429719,24.3918367 C40.2429719,24.8246476 40.5953903,25.1755102 41.0301205,25.1755102 C41.4648506,25.1755102 41.8172691,24.8246476 41.8172691,24.3918367 C41.8172691,14.8851918 34.0488012,7.15102041 24.5,7.15102041 Z" id="Path" fill="#000000" fill-rule="nonzero"></path>
                    <path d="M41.754494,7.21351837 C37.1883536,2.64260557 30.9752049,0.0803729623 24.5,0.0978692492 C24.0652698,0.0978692492 23.7128514,0.448821747 23.7128514,0.881632653 C23.7128514,1.31444356 24.0652698,1.66530612 24.5,1.66530612 C37.1071748,1.66530612 47.3273092,11.8403205 47.3273092,24.3918367 C47.3273092,24.8246476 47.6797277,25.1755102 48.1144578,25.1755102 C48.549188,25.1755102 48.9016968,24.8246476 48.9016968,24.3918367 C48.9192706,17.9452187 46.345676,11.7595 41.754494,7.21351837 Z" id="Path" fill="#000000" fill-rule="nonzero"></path>
                    <path d="M24.5,29.0938776 C27.108381,29.0938776 29.2228916,26.9887022 29.2228916,24.3918367 C29.2228916,21.7949713 27.108381,19.6897959 24.5,19.6897959 C21.891619,19.6897959 19.7771084,21.7949713 19.7771084,24.3918367 C19.7799824,26.987516 21.8928104,29.0910162 24.5,29.0938776 Z" id="Shape" fill="#000000" fill-rule="nonzero"></path>
                    <circle id="Oval" fill="#00F2DA" cx="24.5" cy="24.5" r="3.5"></circle>
                </g>
            </g>
        </g>
    </g>
</svg>