<?xml version="1.0" encoding="UTF-8"?>
<svg width="60px" height="60px" viewBox="0 0 60 60" version="1.1" xmlns="http://www.w3.org/2000/svg" xmlns:xlink="http://www.w3.org/1999/xlink">
    <!-- Generator: sketchtool 58 (101010) - https://sketch.com -->
    <title>60D4F2CA-6292-4FD8-9D7C-8D3F381EE440@1.00x</title>
    <desc>Created with sketchtool.</desc>
    <g id="Page-1" stroke="none" stroke-width="1" fill="none" fill-rule="evenodd">
        <g id="Desktop-HD-Copy-3" transform="translate(-751.000000, -1056.000000)" fill-rule="nonzero">
            <g id="Group-3" transform="translate(736.000000, 1039.000000)">
                <g id="economy" transform="translate(15.000000, 17.000000)">
                    <g id="Icons_copy" transform="translate(1.000000, 1.000000)" fill="#47E4C2">
                        <path d="M48.0027546,0 L45.0100107,0 L54.9858237,9.99629717 L54.9858237,42.9840778 C54.9858237,43.536158 54.5391913,43.9837075 53.9882424,43.9837075 L56.9809863,43.9837075 C57.5319352,43.9837075 57.9785676,43.536158 57.9785676,42.9840778 L57.9785676,9.99629717 L48.0027546,0 Z" id="Shape"></path>
                        <g id="Group">
                            <path d="M57.9785676,9.99629717 L49.0003359,9.99629717 C48.449387,9.99629717 48.0027546,9.5487477 48.0027546,8.99666745 L48.0027546,0 L57.9785676,9.99629717 Z" id="Shape"></path>
                        </g>
                        <path d="M29.04871,30.9885212 L29.04871,50.9811156 C29.04871,52.4705638 27.4126767,53.7800788 24.99853,54.459827 C23.7182258,54.8122211 22.3957631,54.9871178 21.0680597,54.9796344 C19.3618727,55.0020136 17.6666243,54.7036341 16.0701774,54.0999603 C15.970519,54.9290865 15.5104872,55.6717706 14.8132249,56.1292086 C13.9876874,56.7468657 13.0486605,57.195263 12.0499248,57.4487198 C12.0499248,57.4542406 12.0454584,57.4587161 12.0399489,57.4587161 C10.7562391,57.8110905 9.43048554,57.9859784 8.09950282,57.9787522 C3.6901935,57.9787522 0.118852459,56.1891864 0.118852459,53.9800047 L0.118852459,43.9837075 C0.164351324,43.2004122 0.550996845,42.4767045 1.17628863,42.0044407 C2.54297501,40.7948887 5.13668637,39.9851887 8.09950282,39.9851887 C8.76639276,39.9837877 9.43272703,40.0238499 10.0946654,40.1051442 C11.119515,40.2347008 12.1246149,40.4898489 13.0874093,40.8648628 L13.0874093,30.9885212 C13.0892305,30.840601 13.1059415,30.6932423 13.1372884,30.5486841 C13.2926042,29.9451935 13.6391623,29.4085039 14.1248938,29.0192507 C15.501556,27.8096987 18.0952674,26.9899067 21.0680597,26.9899067 C22.005302,26.9866061 22.9406935,27.0736423 23.8612873,27.2499061 C24.6124529,27.3839019 25.3478793,27.5949338 26.0559661,27.8796728 C27.3596086,28.2480531 28.429069,29.1839175 28.9689035,30.4287286 L28.9689035,30.4387249 C29.02051,30.6174626 29.0473633,30.802458 29.04871,30.9885212 L29.04871,30.9885212 Z" id="Shape"></path>
                        <path d="M28.9689035,30.4387249 L28.9689035,30.4287286 C28.5598952,28.9592729 26.5547568,27.7497209 23.8612873,27.2499061 C22.9406935,27.0736423 22.005302,26.9866061 21.0680597,26.9899067 C20.5622859,26.9899067 20.0704784,27.0219905 19.5926369,27.0669738 C20.0315727,27.1109576 20.4595351,27.1669368 20.8685434,27.2499061 C23.5620129,27.7497209 25.5671513,28.9592729 25.9761596,30.4287286 L25.9761596,30.4387249 C26.0277661,30.6174626 26.0546194,30.802458 26.0559661,30.9885212 L26.0559661,50.9811156 C26.0559661,52.4705638 24.4199328,53.7800788 22.0057861,54.459827 C21.2027723,54.6813035 20.3814072,54.8295197 19.5517361,54.9026629 C20.0435437,54.9496455 20.5493174,54.9798648 21.0680597,54.9798648 C22.3957631,54.9871178 23.7182258,54.8122211 24.99853,54.459827 C27.4126767,53.7800788 29.04871,52.4705638 29.04871,50.9811156 L29.04871,30.9885212 C29.0473633,30.802458 29.02051,30.6174626 28.9689035,30.4387249 L28.9689035,30.4387249 Z" id="Shape"></path>
                        <path d="M16.0801532,43.9837075 C16.081793,44.0239523 16.0784421,44.0642454 16.0701774,44.1036631 C15.9504676,46.252867 12.4290056,47.9822264 8.09950282,47.9822264 C7.5965268,47.9845521 7.09375917,47.9611972 6.59315507,47.9122523 C2.90210427,47.5623819 0.118852459,45.9329855 0.118852459,43.9837075 C0.118852459,42.0344296 2.91208009,40.4050332 6.60313088,40.0551628 C7.10039933,40.0062139 7.59984625,39.9828585 8.09950282,39.9851887 C9.80237557,39.9636588 11.494199,40.2620311 13.0874093,40.8648628 C14.9129831,41.5945925 16.0801532,42.7241741 16.0801532,43.9837075 Z" id="Shape"></path>
                        <path d="M13.2270707,36.7363921 C13.1871674,36.7263958 13.1372884,36.7163995 13.0874093,36.7064032 C8.52866578,35.8336803 4.57430343,33.0168882 2.25367643,28.9892618 L7.44109917,25.9903726 C8.70011585,28.173623 10.7340044,29.8012194 13.1372884,30.5486841 C13.1059415,30.6932423 13.0892305,30.840601 13.0874093,30.9885212 L13.0874093,35.9866698 C13.0884001,36.2429779 13.1357179,36.4969863 13.2270707,36.7363921 Z" id="Shape"></path>
                        <path d="M29.04871,30.9885212 C29.04871,33.1977029 25.477369,34.9870401 21.0680597,34.9870401 C20.5684031,34.9893702 20.0689562,34.9660149 19.5716877,34.917066 C15.8806369,34.5671956 13.0874093,32.9377992 13.0874093,30.9885212 C13.0892305,30.840601 13.1059415,30.6932423 13.1372884,30.5486841 C13.1372884,30.5286916 13.1472642,30.5186953 13.15724,30.4987027 C13.200688,30.3095754 13.2712517,30.1277535 13.3667321,29.9589026 C14.1348697,28.4894469 16.5390406,27.3498691 19.5417603,27.0599764 C19.930817,27.0299875 20.3298495,26.9999987 20.7388578,26.9999987 C20.8485918,26.9899952 20.9583257,26.9899952 21.0680597,26.9899952 C21.8260958,26.9892628 22.5830985,27.0460711 23.3325692,27.1599394 C23.5121338,27.1899283 23.6916985,27.2199172 23.8612873,27.2499061 C26.5547568,27.7497209 28.5598952,28.9592729 28.9689035,30.4287286 L28.9689035,30.4387249 C29.02051,30.6174626 29.0473633,30.802458 29.04871,30.9885212 L29.04871,30.9885212 Z" id="Shape"></path>
                        <path d="M13.0874093,43.9837075 C13.0890491,44.0239523 13.0856982,44.0642454 13.0774335,44.1036631 C12.9676995,46.0029596 10.2143752,47.5723782 6.59315507,47.9122523 C2.90210427,47.5623819 0.118852459,45.9329855 0.118852459,43.9837075 C0.118852459,42.0344296 2.91208009,40.4050332 6.60313088,40.0551628 C7.79962451,40.1563886 8.97544261,40.4290652 10.0946654,40.8648628 C11.9202392,41.5945925 13.0874093,42.7241741 13.0874093,43.9837075 Z" id="Shape"></path>
                        <path d="M26.0559661,30.9885212 C26.0559661,32.9377992 23.2627385,34.5671956 19.5716877,34.917066 C15.8806369,34.5671956 13.0874093,32.9377992 13.0874093,30.9885212 C13.0892305,30.840601 13.1059415,30.6932423 13.1372884,30.5486841 C13.5163693,28.7993321 16.1499839,27.3898542 19.5417603,27.0599764 C20.0006477,27.0999616 20.4395834,27.1699357 20.8685434,27.2499061 C23.5620129,27.7497209 25.5671513,28.9592729 25.9761596,30.4287286 L25.9761596,30.4387249 C26.0277661,30.6174626 26.0546194,30.802458 26.0559661,30.9885212 L26.0559661,30.9885212 Z" id="Shape"></path>
                    </g>
                    <g id="Icons" transform="translate(1.000000, 6.000000)" fill="#FFFFFF">
                        <path d="M8.21444395,52.9824277 C8.724856,52.9824277 9.22403899,52.951438 9.70995126,52.9074526 C5.94923527,52.5495713 3.11032344,50.9301084 3.11032344,48.9837539 C3.11032344,38.0163914 3.08174036,38.8871026 3.176677,38.5062289 C3.68708906,36.4659056 6.89758086,35.4332481 9.07908197,35.1353469 C9.75793,35.0413781 9.87838724,35.0713681 9.554786,35.0453768 C6.69647851,34.8254497 2.47435002,35.3452773 0.679741249,37.453578 C0.294010418,37.8775901 0.0706522161,38.4196429 0.0478511298,38.9870694 L0.0478511298,48.9837539 C0.0478511298,51.1930212 3.70240142,52.9824277 8.21444395,52.9824277 L8.21444395,52.9824277 Z" id="Shape"></path>
                        <path d="M13.8289765,29.7101463 C9.43043258,28.8821818 5.7581283,25.9314929 4.06989809,21.868747 C3.38111815,19.9858723 3.05573337,17.9940242 3.11032344,15.9946952 C3.09987875,7.73407468 9.52536718,0.829555237 17.9255436,0.0749751335 C9.24045884,-0.735520905 1.43826359,5.28128121 0.206506132,13.7393271 C-1.02525134,22.1973731 4.7483602,30.1101429 13.3185645,31.7094831 L13.8289765,29.7101463 Z" id="Shape"></path>
                    </g>
                    <path d="M2.17053455,14 L4,14.9419845 C2.76483081,17.1144809 2.10808129,19.5363556 2.08604954,22 L0,22 C0.0220560939,19.2070616 0.76704751,16.461226 2.17053455,14 Z" id="Shape" fill="#FFFFFF"></path>
                    <g id="Group" fill="#000000">
                        <path d="M59.8872131,10.7125059 C59.7693052,10.3747697 60.5207182,11.1921311 49.6691959,0.340608899 C49.2615144,-0.0720686963 50.7973146,0.0468384075 27.9781421,0.0468384075 C26.8744348,0.0468384075 25.9797034,0.941569899 25.9797034,2.04527713 L25.9797034,7.64090554 C22.0187242,5.15277696 17.2056343,4.4120474 12.679823,5.59406768 C8.15401164,6.77608797 4.31781874,9.77577777 2.07937549,13.8830289 C1.82888709,14.3652554 2.00968732,14.9592583 2.48636412,15.2201533 C2.96304091,15.4810482 3.56082766,15.3131819 3.83200625,14.8422795 C4.3684545,13.8911805 5.00093159,12.997543 5.71953162,12.175363 L8.54332553,14.9991569 C5.81599197,18.2483047 5.22331951,22.7853683 7.0245121,26.6260734 L3.55322404,28.6315066 C2.53284746,26.5802156 2.00071978,24.3207248 1.99843872,22.0296643 C1.99843872,21.4778108 1.55107297,21.030445 0.99921936,21.030445 C0.447365746,21.030445 0,21.4778108 0,22.0296643 C0.0123073349,29.8639629 5.37669058,36.6754917 12.9898517,38.5237783 L12.9898517,40.5072287 C7.41620609,39.0433724 0,40.9368931 0,45.0117096 L0,55.0039032 C0,60.9442623 15.0112724,61.7985948 17.6482123,56.4028103 C23.2258548,58.0525215 30.9758002,56.1969711 30.9758002,52.0062451 L50.9601874,52.0062451 C52.0638946,52.0062451 52.9586261,51.1115136 52.9586261,50.0078064 L52.9586261,46.010929 L57.9547229,46.010929 C59.0584301,46.010929 59.9531616,45.1161975 59.9531616,44.0124902 C59.9531616,8.90391881 59.9851366,10.9902888 59.8872131,10.7125059 Z M49.960968,3.4581733 L56.5418267,10.039032 L49.960968,10.039032 L49.960968,3.4581733 Z M17.9859485,7.08234192 C22.6247759,7.37159637 26.8596051,9.8191346 29.4260109,13.6941764 L25.9477283,15.7026073 C24.0911221,13.0825182 21.1832776,11.4034278 17.9859485,11.1051991 L17.9859485,7.08234192 Z M18.1597135,13.1136347 C20.9318391,13.4783828 23.3766057,15.1117709 24.7746448,17.5331772 C26.5245725,20.5617319 26.3565106,24.330842 24.3439813,27.1916315 C23.328011,27.0462569 22.3005894,26.9970772 21.2753786,27.0447463 C23.1189383,24.5466979 21.1604684,21.6289774 17.9859485,21.1113817 L17.9859485,17.1604684 C19.1350507,17.4432475 19.9843872,18.1816706 19.9843872,19.0320062 C19.9843872,19.5838598 20.431753,20.0312256 20.9836066,20.0312256 C22.9041062,20.0312256 22.1237158,15.7905386 17.9859485,15.1160656 C17.9859485,14.564212 17.5385827,14.1168462 16.9867291,14.1168462 C16.4348756,14.1168462 15.9875098,14.564212 15.9875098,15.1160656 C13.7102888,15.4877752 11.9906323,17.1015144 11.9906323,19.0320062 C11.9906323,20.962498 13.7102888,22.5762373 15.9875098,22.9479469 L15.9875098,26.8988603 C14.8384075,26.6160812 13.989071,25.8776581 13.989071,25.0273224 C13.989071,24.4754688 13.5417052,24.028103 12.9898517,24.028103 C11.2572053,24.028103 11.6908665,27.6162998 15.1191881,28.724434 C14.4657393,29.1295658 13.911271,29.67584 13.4964559,30.323185 C10.7354326,29.1614415 8.73410224,26.7012123 8.15871295,23.7615143 C7.58332366,20.8218164 8.50941789,17.7886001 10.6286963,15.6716315 L10.6266979,15.6716315 C12.6035129,13.6942787 15.3875879,12.7488864 18.1597135,13.1136347 Z M15.9875098,7.08833724 L15.9875098,11.0852147 C13.7687988,11.2810013 11.6636075,12.1529328 9.9562217,13.5832631 L7.12943013,10.7594692 C9.5904328,8.58268909 12.7081796,7.29057382 15.9875098,7.08833724 Z M17.9859485,26.8988603 L17.9859485,23.1557845 C20.6408743,23.8082748 20.6408743,26.24637 17.9859485,26.8988603 Z M15.9875098,17.1604684 L15.9875098,20.9035441 C13.3325839,20.2510539 13.3325839,17.8129586 15.9875098,17.1604684 Z M4.55444184,30.3611553 L8.00874317,28.3627166 C9.24880244,30.1253491 10.9815756,31.482717 12.9898517,32.2646682 L12.9898517,36.4703825 C9.54126728,35.5013757 6.55069279,33.335494 4.55444184,30.3611553 L4.55444184,30.3611553 Z M15.9875098,55.0039032 C15.9875098,56.4187978 12.995847,58.0015613 8.99297424,58.0015613 C4.99010148,58.0015613 1.99843872,56.4187978 1.99843872,55.0039032 L1.99843872,53.2202966 C5.50370023,55.6034348 12.4832475,55.6024356 15.9875098,53.2202966 L15.9875098,55.0039032 Z M15.9875098,50.0078064 C15.9875098,51.422701 12.995847,53.0054645 8.99297424,53.0054645 C4.99010148,53.0054645 1.99843872,51.422701 1.99843872,50.0078064 L1.99843872,48.2241998 C5.50370023,50.607338 12.4832475,50.6063388 15.9875098,48.2241998 L15.9875098,50.0078064 Z M8.99297424,48.0093677 C4.99010148,48.0093677 1.99843872,46.4266042 1.99843872,45.0117096 C1.99843872,42.9703044 8.14064012,40.8839344 13.264637,42.6935207 C13.4509172,42.8965229 13.7135542,43.0124454 13.989071,43.0132709 C14.0050585,43.0132709 14.0190476,43.0052771 14.0350351,43.0042779 C18.7023888,45.1825761 14.1549415,48.0093677 8.99297424,48.0093677 Z M28.9773614,52.0062451 C28.9773614,53.9936924 23.1439188,56.0610773 17.9859485,54.4093677 L17.9859485,51.4946448 C18.8050859,51.7091991 19.6406485,51.8552554 20.4839969,51.9313037 C20.9772621,52.0293765 21.4822381,52.0546254 21.9828259,52.0062451 C24.4376724,52.0997763 26.8670644,51.4802814 28.9773614,50.2226386 L28.9773614,52.0062451 Z M28.9773614,47.0101483 C28.9773614,49.0005933 23.1818891,51.0729742 17.9859485,49.4202654 L17.9859485,46.498548 C22.1826698,47.6056831 26.5912256,46.8103044 28.9773614,45.1995628 L28.9773614,47.0101483 Z M28.9773614,42.0140515 C28.9773614,44.1293989 22.9400781,46.0389071 17.9140047,44.3822014 C17.4775019,42.9368589 16.3975949,41.774336 14.9882904,41.232662 L14.9882904,40.2334426 C18.4935519,42.6165808 25.4730991,42.6155816 28.9773614,40.2334426 L28.9773614,42.0140515 Z M28.9773614,37.0179547 C28.9773614,38.4328493 25.9856987,40.0156128 21.9828259,40.0156128 C17.9799532,40.0156128 14.9882904,38.4328493 14.9882904,37.0179547 L14.9882904,35.2343482 C18.4935519,37.6174863 25.4730991,37.6164871 28.9773614,35.2343482 L28.9773614,37.0179547 Z M21.9828259,35.019516 C17.9799532,35.019516 14.9882904,33.4367525 14.9882904,32.0218579 C14.9882904,30.6069633 17.9799532,29.0241998 21.9828259,29.0241998 C25.9856987,29.0241998 28.9773614,30.6069633 28.9773614,32.0218579 C28.9773614,33.4367525 25.9856987,35.019516 21.9828259,35.019516 Z M29.9176269,29.5967525 C28.9382735,28.6598523 27.7374767,27.9864023 26.4273536,27.6392818 C28.2912748,24.5368059 28.4868699,20.7095869 26.9489461,17.4332553 L30.4372209,15.418829 C32.6598955,19.9313401 32.4646453,25.2590417 29.9176269,29.5967525 Z M50.9601874,50.0078064 L30.9758002,50.0078064 L30.9758002,46.010929 L50.9601874,46.010929 L50.9601874,50.0078064 Z M57.9547229,44.0124902 L30.9758002,44.0124902 L30.9758002,31.6471507 C35.9263489,24.4815396 34.629347,14.7285173 27.9781421,9.10576112 L27.9781421,2.04527713 L47.9625293,2.04527713 L47.9625293,10.039032 C47.9625293,11.1427392 48.8572608,12.0374707 49.960968,12.0374707 L57.9547229,12.0374707 L57.9547229,44.0124902 Z" id="Shape"></path>
                        <path d="M0.520593286,18.0647619 C0.520593286,18.6166155 0.967959032,19.0639813 1.51981265,19.0639813 C2.07166626,19.0639813 2.51903201,18.6166155 2.51903201,18.0647619 C2.51903201,17.5129083 2.07166626,17.0655425 1.51981265,17.0655425 C0.967959032,17.0655425 0.520593286,17.5129083 0.520593286,18.0647619 Z" id="Shape"></path>
                        <path d="M44.9648712,9.03981265 C44.9648712,8.48795903 44.5175054,8.04059329 43.9656518,8.04059329 L31.9750195,8.04059329 C31.423166,8.04059329 30.9758002,8.48795903 30.9758002,9.03981265 C30.9758002,9.59166621 31.423166,10.039032 31.9750195,10.039032 L43.9656518,10.039032 C44.5175054,10.039032 44.9648712,9.59166621 44.9648712,9.03981265 Z" id="Shape"></path>
                        <path d="M31.9750195,6.04215457 L43.9656518,6.04215457 C44.5175054,6.04215457 44.9648712,5.59478882 44.9648712,5.04293521 C44.9648712,4.49108159 44.5175054,4.04371585 43.9656518,4.04371585 L31.9750195,4.04371585 C31.423166,4.04371585 30.9758002,4.49108159 30.9758002,5.04293521 C30.9758002,5.59478882 31.423166,6.04215457 31.9750195,6.04215457 Z" id="Shape"></path>
                        <path d="M43.9656518,12.0374707 L35.971897,12.0374707 C35.4200434,12.0374707 34.9726776,12.4848365 34.9726776,13.0366901 C34.9726776,13.5885437 35.4200434,14.0359094 35.971897,14.0359094 L43.9656518,14.0359094 C44.5175054,14.0359094 44.9648712,13.5885437 44.9648712,13.0366901 C44.9648712,12.4848365 44.5175054,12.0374707 43.9656518,12.0374707 Z" id="Shape"></path>
                        <path d="M47.182139,19.4067135 L43.8847151,23.531491 C42.567744,22.2145199 42.4798126,22.0046838 41.9142545,22.032662 C41.6302787,22.048315 41.3664289,22.1842377 41.1888212,22.40637 L37.9703357,26.4262295 L37.9703357,17.0335675 C37.9703357,16.481714 37.5229699,16.0343482 36.9711163,16.0343482 C36.4192628,16.0343482 35.971897,16.481714 35.971897,17.0335675 L35.971897,29.0241998 C35.971897,29.5760534 36.4192628,30.0234192 36.9711163,30.0234192 L53.9578454,30.0234192 C54.509699,30.0234192 54.9570725,29.5760534 54.9570725,29.0241998 C54.9570725,28.4723463 54.509699,28.0249805 53.9578454,28.0249805 L39.2493365,28.0249805 L42.0471507,24.5277127 C43.3461358,25.8266979 43.45605,26.0575176 44.0176112,26.0265418 C44.301587,26.0108888 44.5654369,25.8749661 44.7430445,25.6528337 L48.0404684,21.5280562 L50.2487432,23.736331 C50.4537948,23.942791 50.7386585,24.0496103 51.0289034,24.0288785 C51.3191482,24.0081467 51.5859376,23.8619237 51.7595628,23.6284153 L54.7572209,19.6315379 C54.971413,19.3459485 55.0169744,18.967783 54.8767427,18.6394926 C54.7365112,18.3112022 54.431791,18.082662 54.0773673,18.039961 C53.7229437,17.9972599 53.372662,18.1468852 53.1584699,18.4324746 L50.8522717,21.5080718 L48.6689774,19.3247775 C48.4680582,19.1237467 48.1910361,19.0177913 47.9072451,19.0334302 C47.6234541,19.0490693 47.3597519,19.1848227 47.182139,19.4067135 L47.182139,19.4067135 Z" id="Shape"></path>
                        <path d="M41.9672131,36.0187354 L38.969555,36.0187354 L38.969555,34.0202966 C38.969555,32.9165894 38.0748235,32.0218579 36.9711163,32.0218579 L34.9726776,32.0218579 C34.420824,32.0218579 33.9734582,32.4692237 33.9734582,33.0210773 C33.9734582,33.5729308 34.420824,34.0202966 34.9726776,34.0202966 L36.9711163,34.0202966 L36.9711163,40.0156128 L34.9726776,40.0156128 C34.420824,40.0156128 33.9734582,40.4629786 33.9734582,41.0148322 C33.9734582,41.5666857 34.420824,42.0140515 34.9726776,42.0140515 L36.9711163,42.0140515 C38.0748235,42.0140515 38.969555,41.11932 38.969555,40.0156128 L38.969555,38.0171741 L41.9672131,38.0171741 C42.5190667,38.0171741 42.9664325,37.5698083 42.9664325,37.0179547 C42.9664325,36.4661012 42.5190667,36.0187354 41.9672131,36.0187354 Z" id="Shape"></path>
                        <path d="M53.9578454,32.0218579 L44.9648712,32.0218579 C44.4130176,32.0218579 43.9656518,32.4692237 43.9656518,33.0210773 C43.9656518,33.5729308 44.4130176,34.0202966 44.9648712,34.0202966 L53.9578454,34.0202966 C54.509699,34.0202966 54.9570648,33.5729308 54.9570648,33.0210773 C54.9570648,32.4692237 54.509699,32.0218579 53.9578454,32.0218579 Z" id="Shape"></path>
                        <path d="M53.9578454,40.0156128 L44.9648712,40.0156128 C44.4130176,40.0156128 43.9656518,40.4629786 43.9656518,41.0148322 C43.9656518,41.5666857 44.4130176,42.0140515 44.9648712,42.0140515 L53.9578454,42.0140515 C54.509699,42.0140515 54.9570648,41.5666857 54.9570648,41.0148322 C54.9570648,40.4629786 54.509699,40.0156128 53.9578454,40.0156128 Z" id="Shape"></path>
                        <path d="M53.9578454,36.0187354 L44.9648712,36.0187354 C44.4130176,36.0187354 43.9656518,36.4661012 43.9656518,37.0179547 C43.9656518,37.5698083 44.4130176,38.0171741 44.9648712,38.0171741 L53.9578454,38.0171741 C54.509699,38.0171741 54.9570648,37.5698083 54.9570648,37.0179547 C54.9570648,36.4661012 54.509699,36.0187354 53.9578454,36.0187354 Z" id="Shape"></path>
                    </g>
                </g>
            </g>
        </g>
    </g>
</svg>