<?xml version="1.0" encoding="UTF-8"?>
<svg width="8px" height="14px" viewBox="0 0 8 14" version="1.1" xmlns="http://www.w3.org/2000/svg" xmlns:xlink="http://www.w3.org/1999/xlink">
    <!-- Generator: sketchtool 58 (101010) - https://sketch.com -->
    <title>7BEF763E-3D1A-4E10-9761-42AD0068F961@1.00x</title>
    <desc>Created with sketchtool.</desc>
    <g id="Page-1" stroke="none" stroke-width="1" fill="none" fill-rule="evenodd">
        <g id="Screen1-popup" transform="translate(-764.000000, -135.000000)" fill="#FFFFFF" fill-rule="nonzero">
            <g id="Group-6" transform="translate(748.000000, 122.000000)">
                <g id="right-arrow" transform="translate(20.000000, 20.000000) rotate(-90.000000) translate(-20.000000, -20.000000) translate(13.000000, 16.000000)">
                    <path d="M13.7762258,0.660375723 L13.3176367,0.219146423 C13.1733104,0.0813506326 12.9812925,0.00543787651 12.7760714,0.00543787651 C12.570964,0.00543787651 12.3787185,0.0813506326 12.2343921,0.219146423 L7.00313011,5.21786003 L1.76583549,0.213599789 C1.62173676,0.0758039985 1.4294913,0 1.22438394,0 C1.01927658,0 0.826917292,0.0758039985 0.682704737,0.213599789 L0.224001821,0.652110151 C-0.0746672737,0.937272395 -0.0746672737,1.40177581 0.224001821,1.68693805 L6.45962975,7.66653582 C6.60372849,7.80422285 6.79574631,7.90123457 7.00267482,7.90123457 L7.00506508,7.90123457 C7.21028626,7.90123457 7.40230408,7.80411409 7.54640282,7.66653582 L13.7762258,1.70314292 C13.9205522,1.56545589 13.9997724,1.3764353 14,1.18045423 C14,0.984364406 13.9205522,0.797953999 13.7762258,0.660375723 Z" id="Path"></path>
                </g>
            </g>
        </g>
    </g>
</svg>