<?xml version="1.0" encoding="UTF-8"?>
<svg width="120px" height="120px" viewBox="0 0 120 120" version="1.1" xmlns="http://www.w3.org/2000/svg" xmlns:xlink="http://www.w3.org/1999/xlink">
    <!-- Generator: sketchtool 58 (101010) - https://sketch.com -->
    <title>A961D46D-3479-4BB3-855B-50F041787165@1.00x</title>
    <desc>Created with sketchtool.</desc>
    <g id="Page-1" stroke="none" stroke-width="1" fill="none" fill-rule="evenodd">
        <g id="Desktop-HD" transform="translate(-660.000000, -1822.000000)">
            <g id="fund" transform="translate(660.000000, 1822.000000)">
                <path d="M21.2903226,120 C9.5516129,120 0,110.448387 0,98.7096774 C0,86.9709677 9.5516129,77.4193548 21.2903226,77.4193548 C33.0290323,77.4193548 42.5806452,86.9709677 42.5806452,98.7096774 C42.5806452,110.448387 33.0290323,120 21.2903226,120 Z" id="Path" fill="#47E4C2" fill-rule="nonzero"></path>
                <path d="M98.7096774,61.9354839 C86.9709677,61.9354839 77.4193548,52.383871 77.4193548,40.6451613 C77.4193548,28.9064516 86.9709677,19.3548387 98.7096774,19.3548387 C110.448387,19.3548387 120,28.9064516 120,40.6451613 C120,52.383871 110.448387,61.9354839 98.7096774,61.9354839 Z" id="Path" fill="#47E4C2" fill-rule="nonzero"></path>
                <g id="clock-(1)" transform="translate(85.000000, 26.000000)" fill="#000000" fill-rule="nonzero">
                    <path d="M0.0887096774,14 C0.0887096774,21.6829935 6.3170065,27.9112903 14,27.9112903 C21.6829935,27.9112903 27.9112903,21.6829935 27.9112903,14 C27.9112903,6.3170065 21.6829935,0.0887096774 14,0.0887096774 C6.3170065,0.0887096774 0.0887096774,6.3170065 0.0887096774,14 Z M26.7016129,14 C26.7016129,21.0149071 21.0149071,26.7016129 14,26.7016129 C6.9850929,26.7016129 1.2983871,21.0149071 1.2983871,14 C1.2983871,6.9850929 6.9850929,1.2983871 14,1.2983871 C17.3686772,1.2983871 20.5993821,2.6365889 22.9813966,5.01860338 C25.3634111,7.40061787 26.7016129,10.6313228 26.7016129,14 Z" id="Shape"></path>
                    <path d="M2.50806452,14 C2.50806452,20.3468207 7.65317929,25.4919355 14,25.4919355 C20.3468207,25.4919355 25.4919355,20.3468207 25.4919355,14 C25.4919355,7.65317929 20.3468207,2.50806452 14,2.50806452 C7.65317929,2.50806452 2.50806452,7.65317929 2.50806452,14 Z M20.4778226,8.38104839 L21.6875,7.17137097 C23.2306773,8.89327063 24.1452678,11.0870087 24.2822581,13.3951613 L22.4677419,13.3951613 L22.4677419,14.6048387 L24.2822581,14.6048387 C24.1476371,16.9065341 23.2397229,19.0953321 21.7056452,20.8165323 L20.4959677,19.6068548 L19.6370968,20.4657258 L20.8467742,21.6754032 C19.1217592,23.22675 16.9208204,24.1459406 14.6048387,24.2822581 L14.6048387,22.4677419 L13.3951613,22.4677419 L13.3951613,24.2822581 C11.0934659,24.1476371 8.90466794,23.2397229 7.18346774,21.7056452 L8.39314516,20.4959677 L7.53427419,19.6370968 L6.32459677,20.8467742 C4.78423406,19.1175827 3.87588718,16.9170803 3.74798387,14.6048387 L5.53225806,14.6048387 L5.53225806,13.3951613 L3.74798387,13.3951613 C3.88260481,11.0934659 4.79051905,8.90466794 6.32459677,7.18346774 L7.53427419,8.39314516 L8.39314516,7.53427419 L7.18346774,6.32459677 C8.90466794,4.79051905 11.0934659,3.88260481 13.3951613,3.74798387 L13.3951613,5.53225806 L14.6048387,5.53225806 L14.6048387,3.74798387 C16.9065341,3.88260481 19.0953321,4.79051905 20.8165323,6.32459677 L19.6068548,7.53427419 L20.4778226,8.38104839 Z" id="Shape"></path>
                    <path d="M14.6048387,6.74193548 L13.3951512,6.74193548 L13.3951512,14 C13.3942318,14.1607679 13.4573469,14.315291 13.5705645,14.4294355 L17.1995968,18.0584677 L18.0584677,17.1995968 L14.6048387,13.7520161 L14.6048387,6.74193548 Z" id="Path"></path>
                </g>
                <text id="ion-android-settings---Ionicons" stroke="#000000" stroke-width="3" font-family="Ionicons" font-size="24" font-weight="400" fill="#47E4C2">
                    <tspan x="11" y="108"></tspan>
                </text>
                <path d="M53.34,10.5774194 L57.1277419,4.89483871 L52.2193548,2.93419355 C47.3554839,0.987096774 42.2322581,0 36.9909677,0 L31.0606452,0 C26.82,0 22.7129032,1.24451613 19.1787097,3.59612903 C14.4406452,6.75483871 11.6129032,12.0406452 11.6129032,17.7367742 C11.6129032,20.3612903 12.2322581,22.9877419 13.4051613,25.3316129 L13.5483871,29.0322581 C13.5483871,25.8251613 16.1477419,23.2258065 19.3548387,23.2258065 L21.3696774,23.2258065 C21.5496774,21.7703226 22.1787097,20.4019355 23.2258065,19.3548387 C24.4645161,18.116129 26.1464516,17.4193548 27.8980645,17.4193548 L41.7793548,17.4193548 C43.5329032,17.4193548 45.2129032,18.116129 46.4516129,19.3548387 C47.4987097,20.4019355 48.1277419,21.7703226 48.3077419,23.2258065 L50.3225806,23.2258065 C53.5296774,23.2258065 56.1290323,25.8251613 56.1290323,29.0322581 L56.6148387,25.796129 C57.5767742,22.3354839 58.0645161,18.7606452 58.0645161,15.1703226 L58.0645161,12.1529032 L53.34,10.5774194 Z" id="Path" fill="#47E4C2" fill-rule="nonzero"></path>
                <g id="Group" transform="translate(0.000000, 15.483871)" fill="#000000" fill-rule="nonzero">
                    <path d="M69.6774194,57.0870968 C69.6774194,49.9316129 65.1909677,43.3974194 58.5116129,40.8290323 L44.2122581,35.3303226 L43.016129,30.543871 C46.3354839,28.4670968 48.8070968,25.1767742 49.8116129,21.2903226 L50.3225806,21.2903226 C54.5922581,21.2903226 58.0645161,17.8180645 58.0645161,13.5483871 C58.0645161,9.27870968 54.5922581,5.80645161 50.3225806,5.80645161 L49.8387097,5.80645161 C49.4225806,4.57935484 48.7625806,3.44322581 47.82,2.50064516 C46.2058065,0.888387097 44.0612903,0 41.7793548,0 L27.8980645,0 C25.616129,0 23.4716129,0.888387097 21.8574194,2.50064516 C20.9148387,3.44322581 20.2548387,4.57935484 19.8387097,5.80645161 L19.3548387,5.80645161 C15.0851613,5.80645161 11.6129032,9.27870968 11.6129032,13.5483871 C11.6129032,17.8180645 15.0851613,21.2903226 19.3548387,21.2903226 L19.863871,21.2903226 C20.8703226,25.1748387 23.34,28.4670968 26.6593548,30.5419355 L25.4632258,35.3283871 L11.163871,40.8270968 C4.48645161,43.3954839 8.59527503e-15,49.9296774 8.59527503e-15,57.0870968 L8.59527503e-15,65.8064516 L69.6774194,65.8064516 L69.6774194,57.0870968 Z M54.1935484,13.5483871 C54.1935484,15.6832258 52.4574194,17.4193548 50.3225806,17.4193548 L50.3225806,9.67741935 C52.4574194,9.67741935 54.1935484,11.4135484 54.1935484,13.5483871 Z M19.3548387,17.4193548 C17.22,17.4193548 15.483871,15.6832258 15.483871,13.5483871 C15.483871,11.4135484 17.22,9.67741935 19.3548387,9.67741935 L19.3548387,17.4193548 Z M23.2258065,17.4193548 L23.2258065,8.54516129 C23.2258065,7.29677419 23.7116129,6.12387097 24.5941935,5.24129032 C25.4767742,4.35677419 26.6516129,3.87096774 27.8980645,3.87096774 L41.7793548,3.87096774 C43.0277419,3.87096774 44.2006452,4.35677419 45.0832258,5.24129032 C45.9658065,6.12193548 46.4516129,7.29483871 46.4516129,8.54322581 L46.4516129,17.4193548 C46.4516129,23.8219355 41.2432258,29.0322581 34.8406452,29.0322581 C28.436129,29.0322581 23.2258065,23.8219355 23.2258065,17.4193548 L23.2258065,17.4193548 Z M34.8406452,32.9032258 C36.4432258,32.9032258 37.9896774,32.6574194 39.4451613,32.2045161 L40.56,36.663871 C39.6658065,39.0503226 37.4032258,40.6451613 34.8387097,40.6451613 C32.276129,40.6451613 30.0135484,39.0503226 29.1193548,36.66 L30.2322581,32.2025806 C31.6896774,32.6574194 33.236129,32.9032258 34.8406452,32.9032258 L34.8406452,32.9032258 Z M65.8064516,61.9354839 L3.87096774,61.9354839 L3.87096774,57.0870968 C3.87096774,51.5225806 7.36064516,46.44 12.5554839,44.4406452 L26.0458065,39.2516129 C27.7625806,42.4548387 31.1109677,44.516129 34.8387097,44.516129 C38.5683871,44.516129 41.9167742,42.4529032 43.6335484,39.2516129 L57.1219355,44.4406452 C62.3167742,46.4380645 65.8064516,51.5206452 65.8064516,57.0870968 L65.8064516,61.9354839 Z" id="Shape"></path>
                    <path d="M120,71.6129032 L120,50.3225806 L98.7096774,50.3225806 L98.7096774,54.1935484 L113.392258,54.1935484 L89.0322581,78.5535484 L79.3548387,68.876129 L65.6458065,82.5851613 L48.3154839,69.1064516 L41.0825806,75.4354839 C41.6032258,76.7535484 41.9922581,78.1335484 42.2419355,79.563871 L46.4516129,75.8767742 L46.4516129,100.645161 L33.4935484,100.645161 C30.0348387,103.076129 25.8309677,104.516129 21.2903226,104.516129 L120,104.516129 L120,100.645161 L108.387097,100.645161 L108.387097,64.6722581 L116.129032,56.9303226 L116.129032,71.6129032 L120,71.6129032 Z M92.9032258,80.156129 L92.9032258,100.645161 L85.1612903,100.645161 L85.1612903,80.156129 L89.0322581,84.0270968 L92.9032258,80.156129 Z M81.2903226,76.2851613 L81.2903226,100.645161 L73.5483871,100.645161 L73.5483871,80.156129 L79.3548387,74.3496774 L81.2903226,76.2851613 Z M58.0645161,100.645161 L50.3225806,100.645161 L50.3225806,75.5709677 L58.0645161,81.5922581 L58.0645161,100.645161 Z M61.9354839,84.6019355 L65.9670968,87.7374194 L69.6774194,84.0270968 L69.6774194,100.645161 L61.9354839,100.645161 L61.9354839,84.6019355 Z M104.516129,100.645161 L96.7741935,100.645161 L96.7741935,76.2851613 L104.516129,68.5432258 L104.516129,100.645161 Z" id="Shape"></path>
                </g>
            </g>
        </g>
    </g>
</svg>