<?xml version="1.0" encoding="UTF-8"?>
<svg width="51px" height="62px" viewBox="0 0 51 62" version="1.1" xmlns="http://www.w3.org/2000/svg" xmlns:xlink="http://www.w3.org/1999/xlink">
    <!-- Generator: sketchtool 58 (101010) - https://sketch.com -->
    <title>33FD971C-03F7-4AF4-9BFB-D452D8E5441D@1.00x</title>
    <desc>Created with sketchtool.</desc>
    <g id="Page-1" stroke="none" stroke-width="1" fill="none" fill-rule="evenodd">
        <g id="Desktop-HD-Copy-3" transform="translate(-187.000000, -885.000000)" fill-rule="nonzero">
            <g id="Group-3" transform="translate(167.000000, 869.000000)">
                <g id="phone-(2)" transform="translate(20.000000, 16.000000)">
                    <path d="M39.1645699,14.7115385 C36.2545337,12.266766 29.4644493,10.9179261 24.1394873,12.9833373 C19.3298442,14.8590678 16.0762621,15.0487485 13.9038393,14.2689504 C7.38657079,11.9506317 10.5997357,0.980769231 10.5997357,0.980769231 C10.5997357,0.980769231 11.610165,3.08833166 19.6935987,3.08833166 C27.7770325,3.08833166 33.9911723,-0.800121022 37.8813248,7.30345652 C38.9663537,9.59858632 39.4110096,12.165553 39.1645699,14.7115385 L39.1645699,14.7115385 Z" id="Shape" fill="#47E4C2"></path>
                    <path d="M37.8713182,7.7673648 C35.5300978,3.23142662 32.3551995,2.703946 28.4423077,3.0151003 C30.9820228,3.29760864 33.1196588,4.47703159 34.8175525,7.7673648 C35.6782639,9.44780285 36.1395115,11.2942149 36.167317,13.1705839 C37.2458532,13.522883 38.2580339,14.0433529 39.164079,14.7115385 C39.4123462,12.3249875 38.964393,9.91876917 37.8713182,7.7673648 Z" id="Shape" fill="#47E4C2"></path>
                    <path d="M14.7115385,18.7572115 L14.7115385,26.4807692 L11.7692308,26.4807692 C10.6872443,26.4771339 9.81092375,25.4912733 9.80769231,24.2740385 L9.80769231,19.8605769 C9.81092375,18.6433421 10.6872443,17.6574815 11.7692308,17.6538462 L13.7307692,17.6538462 C14.2724331,17.6538462 14.7115385,18.1478397 14.7115385,18.7572115 Z" id="Shape" fill="#E8EDFC"></path>
                    <path d="M25.5,44.4767442 L21.8474801,49.0384615 C20.76187,45.3688134 19.9704907,42.5 19.6153846,41.1923077 C20.0719496,42.4695886 21.4416446,44.4767442 25.5,44.4767442 Z" id="Shape" fill="#E8EDFC"></path>
                    <path d="M31.3846154,41.1923077 C31.0295093,42.5 30.23813,45.3688134 29.1525199,49.0384615 L25.5,44.4767442 C29.5583554,44.4767442 30.9280504,42.4695886 31.3846154,41.1923077 Z" id="Shape" fill="#E8EDFC"></path>
                    <path d="M29.4230769,49.5288462 C28.3333333,52.8242308 26.9929487,56.7767308 25.5,60.8076923 C24.0070513,56.7767308 22.6666667,52.8242308 21.5769231,49.5288462 L25.5,45.1153846 L29.4230769,49.5288462 Z" id="Shape" fill="#47E4C2"></path>
                    <path d="M49.9848859,59.5094855 L47.4392922,49.6492958 C46.7477091,46.9697608 44.7970533,44.8287106 42.2482777,43.9516104 L32.3653846,40.2115385 C33.0640773,40.7843461 33.7195064,41.4112199 34.3259909,42.0867261 L39.2534616,43.9516104 C41.8022373,44.8287106 43.7528931,46.9697608 44.4444761,49.6492958 L46.9900698,59.5094855 C47.0705673,59.8180218 47.0078142,60.1476443 46.8201912,60.4018058 C46.6325682,60.6559674 46.3413106,60.8059016 46.0317287,60.8076923 L49.0265448,60.8076923 C49.3361267,60.8059016 49.6273843,60.6559674 49.8150073,60.4018058 C50.0026303,60.1476443 50.0653834,59.8180218 49.9848859,59.5094855 Z" id="Shape" fill="#47E4C2"></path>
                    <g id="Group" transform="translate(0.980769, 0.980769)" fill="#FFFFFF">
                        <path d="M21.6794462,39.8929952 C21.5882656,39.5320193 21.5274785,39.2948065 21.5072162,39.2226113 C21.5372525,39.4524475 21.5951017,39.6776185 21.6794462,39.8929952 Z" id="Shape"></path>
                        <path d="M3.60543158,58.5193523 L6.18888097,48.6492395 C6.89074862,45.9670078 8.87041282,43.8238029 11.4570915,42.94582 C19.3209088,40.0105702 21.5983968,39.1916706 21.497085,39.1916706 C22.2022021,37.7009925 22.546135,36.0599988 22.5000713,34.4061613 C19.2783579,32.3950098 16.431498,28.7955643 16.431498,24.752634 L13.3921457,24.752634 C13.3921457,28.7955643 16.2390057,32.3950098 19.460719,34.4061613 C19.5067827,36.0599988 19.1628498,37.7009925 18.4577328,39.1916706 C18.5590445,39.1916706 16.2815566,40.0105702 8.41773927,42.94582 C5.8310606,43.8238029 3.8513964,45.9670078 3.14952874,48.6492395 L0.566079352,58.5193523 C0.484384827,58.8281991 0.548071089,59.1581533 0.738484247,59.4125706 C0.928897404,59.666988 1.22448627,59.8170731 1.53867206,59.8188656 L4.57802429,59.8188656 C4.2638385,59.8170731 3.96824963,59.666988 3.77783647,59.4125706 C3.58742332,59.1581533 3.52373705,58.8281991 3.60543158,58.5193523 Z M18.6400939,39.8929952 C18.5557495,39.6776185 18.4979003,39.4524475 18.467864,39.2226113 C18.4881263,39.2948065 18.5489134,39.5320193 18.6400939,39.8929952 Z" id="Shape"></path>
                        <path d="M11.3659109,22.6899145 L11.3659109,18.5644755 C11.369249,17.4266775 12.2744727,16.5051541 13.3921457,16.501756 L15.4183806,16.501756 C15.4140909,15.3306111 15.5055875,14.1611355 15.6919223,13.0054465 C10.6263352,11.2521349 11.4226455,4.40803158 12.0376078,1.41605694 C9.74492308,0.811680124 9.33967611,0 9.33967611,0 C9.33967611,0 6.11796275,10.736455 12.65257,13.0054465 C12.4662353,14.1611355 12.3747387,15.3306111 12.3790283,16.501756 L10.3527935,16.501756 C9.2351205,16.5051541 8.32989672,17.4266775 8.3265587,18.5644755 L8.3265587,22.6899145 C8.32989672,23.8277126 9.2351205,24.7492359 10.3527935,24.752634 L13.3921457,24.752634 C12.2744727,24.7492359 11.369249,23.8277126 11.3659109,22.6899145 Z" id="Shape"></path>
                        <polygon id="Rectangle-path" transform="translate(2.089636, 52.610935) rotate(-75.101813) translate(-2.089636, -52.610935) " points="-2.02481096 51.6151374 6.21314373 51.5788919 6.20408237 53.6067319 -2.03387232 53.6429774"></polygon>
                    </g>
                    <path d="M2.94475973,53.9423077 C2.40445007,53.9450034 1.9642525,53.5080964 1.96153846,52.966436 C1.95884941,52.4247756 2.39466689,51.9834775 2.93497656,51.9807692 L2.94475973,51.9807692 C3.4850694,51.9807692 3.92307692,52.4198718 3.92307692,52.9615322 C3.92307692,53.5031926 3.4850694,53.9423077 2.94475973,53.9423077 Z" id="Shape" fill="#000000"></path>
                    <path d="M48.2955463,49.3416296 C47.5018389,46.3343598 45.2414818,43.9287515 42.2838984,42.9436715 L32.474442,39.3487461 C32.0103026,38.2730243 31.7501723,37.120806 31.7072392,35.9505066 C34.7708873,33.9393667 37.4349292,30.671908 37.8407309,26.7783493 L37.8902945,26.7783493 C39.8909624,26.7836975 41.6064591,25.3552065 41.9581678,23.3910381 C42.3098766,21.4268698 41.1961795,19.4945249 39.3173122,18.8089629 C40.7870511,14.8866889 40.6076029,10.5389071 38.8196114,6.75036164 C35.5525461,0.24530748 30.5486908,0.8868539 25.2577798,1.56753156 C23.2860376,1.86103372 21.2972199,2.02614634 19.303956,2.06182094 C12.3516329,2.06182094 10.9566249,0.568655114 10.9339083,0.568655114 C10.7449616,0.19240621 10.3454796,-0.0313411463 9.92499053,0.00356665082 C9.50450145,0.0384744479 9.14761303,0.325013506 9.02364569,0.727239622 C8.92761628,1.03617048 6.69828824,8.42991575 9.8207931,12.646822 C10.4576103,13.5063181 11.2994777,14.1936981 12.2700595,14.6466344 C12.1946815,15.2439008 12.1430528,15.8524946 12.1162059,16.4765349 L11.0433611,16.4765349 C9.33253592,16.4765349 7.94563806,17.8596655 7.94563806,19.5658435 L7.94563806,23.6849217 C7.95106051,24.9894187 8.7775307,26.1499277 10.0107868,26.5847527 L10.0107868,27.8060593 C10.0142006,30.648278 12.3236984,32.9515025 15.1736586,32.954907 L15.9191773,32.954907 C16.8918372,34.1138114 18.0294093,35.1244372 19.2956954,35.9546257 C19.2525012,37.1248913 18.9923815,38.2770622 18.5284927,39.3528651 L8.74381804,42.9364631 C5.77480452,43.9182567 3.50305055,46.3279077 2.70325804,49.3436892 C2.55669737,49.8933629 2.88469871,50.4574496 3.43586956,50.6036122 C3.98704041,50.7497748 4.55266357,50.4226644 4.69922428,49.8729907 C5.32626111,47.5179703 7.10554578,45.6392761 9.42738227,44.880668 L15.2996326,42.7294794 C13.9928068,44.3279775 12.9311117,46.1110558 12.1492483,48.0204353 C12.0383582,48.2967485 12.0527648,48.6073952 12.1887557,48.8723211 C12.3247467,49.137247 12.5690203,49.3305392 12.8586269,49.402386 L15.9862946,50.1829513 L15.2046358,53.3021233 C15.0867086,53.7707228 15.3112972,54.2580798 15.7446722,54.474001 C18.5934268,55.8461329 21.2319354,57.6155011 23.580879,59.7289149 L12.0759355,59.7289149 L12.0759355,57.6693759 C12.0759355,57.1006499 11.6136362,56.6396063 11.0433611,56.6396063 C10.4730861,56.6396063 10.0107868,57.1006499 10.0107868,57.6693759 L10.0107868,59.7289149 L2.06719224,59.7289149 L2.57315367,57.8361985 C2.7199995,57.2865249 2.39222931,56.7222075 1.84105845,56.5757606 C1.2898876,56.4293137 0.724033265,56.7561935 0.577187437,57.3058672 L0.0712260016,59.1985836 C-0.0958799573,59.8158495 0.0347118386,60.4755176 0.424506191,60.9831345 C0.814300554,61.4907512 1.41885579,61.7884565 2.05996422,61.7884565 L48.9388401,61.7884565 C49.5807289,61.7894559 50.1863255,61.4917036 50.5763993,60.983319 C50.966473,60.4749345 51.0963449,59.8141479 50.9275783,59.1965241 L48.2955463,49.3416296 Z M32.2586339,42.0230575 C33.9723765,43.6596494 35.3886935,45.5801065 36.4446904,47.6991472 L33.5049512,48.4323431 C33.2391242,48.49849 33.0105545,48.6672839 32.8695661,48.9015618 C32.7285777,49.1358399 32.6867303,49.4163935 32.753237,49.6814536 L33.5875571,53.0096687 C31.6224826,54.0373844 29.7409152,55.2166254 27.9600269,56.5366294 C29.9497976,50.2653329 31.530669,44.6613271 32.2586339,42.0230575 L32.2586339,42.0230575 Z M20.5296218,40.7399647 C20.4738628,40.5340108 20.4263643,40.3682179 20.393322,40.2374372 C20.8349183,39.2220735 21.1330787,38.1505026 21.2792708,37.0533898 C22.5961298,37.6959455 24.0342242,38.0538784 25.4994022,38.1037547 C26.9647088,38.0530812 28.4027788,37.6944525 29.7195336,37.0513302 C29.864841,38.1492867 30.1630314,39.2216581 30.6054824,40.2374372 C30.5703748,40.3682179 30.5249416,40.5340108 30.4691826,40.7399647 C30.0427293,41.8191632 28.8408128,43.2526024 25.4994022,43.2526024 C22.1579915,43.2526024 20.956075,41.8191632 20.5296218,40.7399647 L20.5296218,40.7399647 Z M23.4920776,45.1360509 L22.2189134,46.7229257 C21.9924355,45.9444199 21.7841996,45.2201487 21.5942059,44.550112 C22.1995269,44.8244469 22.8372117,45.0213224 23.4920776,45.1360509 Z M29.4045984,44.550112 C29.2139163,45.2194622 29.0074014,45.9437334 28.7850538,46.7229257 L27.5118896,45.1360509 C28.164992,45.0209022 28.8009169,44.8240346 29.4045984,44.550112 L29.4045984,44.550112 Z M11.0433611,24.7167507 C10.4730861,24.7167507 10.0107868,24.2557072 10.0107868,23.6869812 L10.0107868,19.567903 C10.0107868,18.9991771 10.4730861,18.5381335 11.0433611,18.5381335 L13.1085099,18.5381335 L13.1085099,24.7167507 L11.0433611,24.7167507 Z M12.0759355,27.8060593 L12.0759355,26.7762898 L13.1766598,26.7762898 C13.3303021,28.1880255 13.7619099,29.5556205 14.4467262,30.8006291 C13.0589488,30.4665245 12.0798522,29.2298178 12.0759355,27.8060593 L12.0759355,27.8060593 Z M18.8072877,32.954907 L25.4994022,32.954907 C26.0696772,32.954907 26.5319765,32.4938634 26.5319765,31.9251375 C26.5319765,31.3564115 26.0696772,30.8953679 25.4994022,30.8953679 L16.9765334,30.8953679 C15.8526559,29.4081652 15.222378,27.6081483 15.1736586,25.7465203 L15.1736586,18.5381335 C15.1703363,17.8172139 14.7892735,17.1505055 14.1689637,16.7803169 C14.1865175,16.2716108 14.2185273,15.7721725 14.2722212,15.283032 C14.9106959,15.3953106 15.5579111,15.450793 16.2062329,15.4488249 C16.776508,15.4488249 17.2388073,14.9877813 17.2388073,14.4190554 C17.2388073,13.8503294 16.776508,13.3892858 16.2062329,13.3892858 C14.0078821,13.3892858 12.4631509,12.7477394 11.485303,11.4327237 C9.69894932,9.02512254 10.2007805,4.95650311 10.6437549,2.79295731 C12.0315348,3.46642659 14.5923192,4.12136001 19.303956,4.12136001 C21.3853144,4.08394159 23.4620488,3.91195243 25.5210862,3.60647524 C30.8460722,2.92579758 34.3630205,2.47372876 36.9661404,7.66788629 C38.5366147,11.1052595 38.6239585,15.0347332 37.2077628,18.5381335 L36.8577201,18.5381335 C36.2874451,18.5381335 35.8251457,18.9991771 35.8251457,19.567903 C35.8251457,20.136629 36.2874451,20.5976726 36.8577201,20.5976726 L37.8902945,20.5976726 C39.0308446,20.5976726 39.9554432,21.5197596 39.9554432,22.6572117 C39.9554432,23.7946637 39.0308446,24.7167507 37.8902945,24.7167507 L36.8577201,24.7167507 C36.2874451,24.7167507 35.8251457,25.1777943 35.8251457,25.7465203 C35.8251457,31.3309605 29.4820415,36.0442156 25.4994022,36.0442156 C22.9780731,35.8154254 20.613704,34.7239519 18.8072877,32.954907 L18.8072877,32.954907 Z M17.4060843,53.0096687 L18.2404044,49.6814536 C18.3069112,49.4163935 18.2650637,49.1358399 18.1240753,48.9015618 C17.983087,48.6672839 17.7545173,48.49849 17.4886903,48.4323431 L14.554114,47.6991472 C15.6141271,45.5818619 17.0323261,43.6627397 18.7463659,42.0261469 C19.4743308,44.6654462 21.0552021,50.2643031 23.0439403,56.5335401 C21.2596394,55.2141431 19.3746072,54.0359274 17.4060843,53.0096687 L17.4060843,53.0096687 Z M25.4994022,57.4448861 C24.5473686,54.4935666 23.6748433,51.6483134 22.928292,49.1367055 L25.4994022,45.9300032 L28.0705123,49.1356757 C27.3239611,51.6483134 26.4514357,54.4935666 25.4994022,57.4448861 L25.4994022,57.4448861 Z M40.9880175,59.7289149 L40.9880175,57.6693759 C40.9880175,57.1006499 40.5257182,56.6396063 39.9554432,56.6396063 C39.3851682,56.6396063 38.9228688,57.1006499 38.9228688,57.6693759 L38.9228688,59.7289149 L27.4179253,59.7289149 C29.7671361,57.6166792 32.4056216,55.8483665 35.2541321,54.4770903 C35.6875071,54.2611691 35.9120957,53.7738121 35.7941685,53.3052126 L35.0125097,50.1860407 L38.1401775,49.4054753 C38.429784,49.3336285 38.6740576,49.1403363 38.8100486,48.8754104 C38.9460395,48.6104845 38.9604462,48.2998379 38.849556,48.0235246 C38.0672914,46.1140281 37.0056345,44.3306669 35.6991717,42.731539 L41.6013667,44.894055 C43.910681,45.6570829 45.6779839,47.5307341 46.3006126,49.87608 L48.9388401,59.7289149 L40.9880175,59.7289149 Z" id="Shape" fill="#000000"></path>
                </g>
            </g>
        </g>
    </g>
</svg>