<?xml version="1.0" encoding="UTF-8"?>
<svg width="48px" height="48px" viewBox="0 0 48 48" version="1.1" xmlns="http://www.w3.org/2000/svg" xmlns:xlink="http://www.w3.org/1999/xlink">
    <!-- Generator: sketchtool 58 (101010) - https://sketch.com -->
    <title>BA01AED9-7F60-42C6-A15A-8B1AEC0777E0@1.00x</title>
    <desc>Created with sketchtool.</desc>
    <g id="Page-1" stroke="none" stroke-width="1" fill="none" fill-rule="evenodd">
        <g id="Desktop-HD-Copy-3" transform="translate(-1082.000000, -391.000000)">
            <g id="whatsapp" transform="translate(1082.000000, 391.000000)">
                <path d="M14.2943963,16.1265663 C14.1180079,16.592085 14.0095724,17.0237087 13.9629451,17.4466781 C13.9625837,17.4499233 13.9618607,17.4531687 13.9614993,17.456414 C13.5263113,21.0471468 14.2087323,23.6440999 19.2643584,28.6898044 C25.1354197,34.5450285 29.2393431,34.2760299 30.3573135,34.0542685 C30.4071938,34.0445326 30.4505681,34.0358785 30.5015327,34.0301091 C30.8810572,33.9857568 31.3285344,33.863157 31.8631216,33.6569008 C32.309876,33.4823763 32.7443411,33.238619 33.1191666,32.9508699 L33.6313437,32.4485712 C33.9591805,32.1272875 34.1406293,31.6978275 34.1424561,31.2391599 C34.1446053,30.7808528 33.9664095,30.3495899 33.6414644,30.0254214 L31.6863717,28.0746417 C31.0194931,27.4093572 29.9344149,27.4093572 29.2675364,28.0746417 L27.8806459,29.4578563 C27.5893158,29.74849 27.1411156,29.8126746 26.7796638,29.6165149 C26.7348438,29.591995 26.6885779,29.5678356 26.6415892,29.5429551 C26.5602625,29.5004057 26.4767671,29.456414 26.3929103,29.4095376 C26.3029089,29.3594158 26.2064013,29.3067701 26.1080864,29.2526819 C24.9402357,28.6126386 23.486838,27.8157397 21.8165694,26.1498242 C20.132927,24.4694853 19.3301426,23.0123502 18.6845897,21.8415217 C18.6354323,21.7524565 18.5869978,21.6644731 18.5389246,21.5782927 C18.4865141,21.4856215 18.4507304,21.4106193 18.4218142,21.3504012 C18.4066333,21.3186695 18.3918137,21.2869377 18.3715724,21.2501578 C18.1662678,20.8794735 18.2392811,20.4172 18.5483224,20.1272875 L19.8387052,18.9175156 L19.9634062,18.7931127 C20.286544,18.4707473 20.4643783,18.0423691 20.4643783,17.5865861 C20.4643783,17.1308032 20.286544,16.7024249 19.9634062,16.3800595 L17.9309628,14.3524745 C17.6060176,14.0283061 17.1711911,13.8545028 16.7146775,13.8526999 C16.2552723,13.8545028 15.8247832,14.0355179 15.5023682,14.3618498 L14.9995888,14.8717209 C14.7151263,15.2431263 14.4718692,15.675471 14.2943963,16.1265663 L14.2943963,16.1265663 Z" id="Path" fill="#00F2DA"></path>
                <path d="M23,45 C34.5979797,45 44,35.5979797 44,24 C44,12.4020203 34.5979797,3 23,3 C11.4020203,3 2,12.4020203 2,24 C2,28.6683739 3.48332405,33.0108645 6.09997853,36.4678129 C7.53237315,38.3601965 4.64466925,42.84549 6.09997853,44 C7.19727655,44.8704965 12.242554,42.0946039 13.5020786,42.7344221 C16.3543187,44.1833141 19.5817857,45 23,45 Z" id="Oval" stroke="#00F2DA" stroke-width="3"></path>
                <path d="M18.999846,44 C18.5813401,44 18.1982943,43.7287014 18.0572337,43.3353964 C17.9185111,42.9475486 18.0377502,42.5012311 18.352214,42.235 C18.6810957,41.9570749 19.1623385,41.9223829 19.5282389,42.148465 C19.8781627,42.3648023 20.0620871,42.7904604 19.9810357,43.1935103 C19.8879045,43.6561992 19.472516,44 18.999846,44 L18.999846,44 Z" id="Path" fill="#000000" fill-rule="nonzero"></path>
                <path d="M29.3311519,36 C27.0409934,36 23.0220111,35.057063 17.9512041,30.0001803 C12.9682298,25.0269539 11.549893,21.9255386 12.1173723,17.238619 C12.1817107,16.6584332 12.3266529,16.0786081 12.5597893,15.4648878 C12.5608737,15.4616425 12.561958,15.4583971 12.5634038,15.4551519 C12.8120826,14.8215992 13.1594378,14.2111241 13.5678783,13.6904354 C13.589204,13.6626702 13.6126983,13.6363472 13.637277,13.6111061 L14.1790933,13.0622915 C14.8513936,12.3807807 15.7492398,12.0036058 16.7074485,12 L16.7219066,12 C17.6750549,12 18.5700095,12.3696024 19.2444785,13.0420986 L21.2769219,15.0696836 C22.6681498,16.4575858 22.6681498,18.7155864 21.2769219,20.1034887 L21.1421004,20.2379879 C21.1352328,20.2444785 21.1283652,20.2513297 21.1214976,20.2578202 L20.3367858,20.9934193 C20.9501695,22.1061931 21.6535546,23.3657262 23.1304466,24.8398089 C24.6131219,26.3189399 25.8829019,27.0148743 27.0026795,27.6289552 C27.0211136,27.6390517 27.0395476,27.6491481 27.0576202,27.658884 L27.954382,26.7646263 C29.34561,25.3770846 31.6086596,25.3770846 32.9998874,26.7646263 L34.9549801,28.7150456 C35.6330637,29.3915081 36.0039132,30.2904535 35.9999689,31.2470928 C35.9959612,32.2033715 35.6171598,33.0994321 34.9336545,33.7697647 L34.382802,34.3099252 C34.3585847,34.333724 34.3325602,34.356441 34.3054513,34.3777157 C33.7806233,34.7891464 33.1686854,35.1371135 32.5361449,35.383395 C31.8616758,35.6437393 31.2743167,35.8020373 30.7382837,35.8680249 L30.7194882,35.8716308 C30.3732174,35.940503 29.9069446,36 29.3311519,36 L29.3311519,36 Z M30.7287348,35.8736276 C30.7248286,35.8740182 30.7205317,35.8744088 30.7166255,35.8747995 C30.7185786,35.8747995 30.7228755,35.8744088 30.7287348,35.8736276 Z M14.2943963,16.1265663 C14.1180079,16.592085 14.0095724,17.0237087 13.9629451,17.4466781 C13.9625837,17.4499233 13.9618607,17.4531687 13.9614993,17.456414 C13.5263113,21.0471468 14.2087323,23.6440999 19.2643584,28.6898044 C25.1354197,34.5450285 29.2393431,34.2760299 30.3573135,34.0542685 C30.4071938,34.0445326 30.4505681,34.0358785 30.5015327,34.0301091 C30.8810572,33.9857568 31.3285344,33.863157 31.8631216,33.6569008 C32.309876,33.4823763 32.7443411,33.238619 33.1191666,32.9508699 L33.6313437,32.4485712 C33.9591805,32.1272875 34.1406293,31.6978275 34.1424561,31.2391599 C34.1446053,30.7808528 33.9664095,30.3495899 33.6414644,30.0254214 L31.6863717,28.0746417 C31.0194931,27.4093572 29.9344149,27.4093572 29.2675364,28.0746417 L27.8806459,29.4578563 C27.5893158,29.74849 27.1411156,29.8126746 26.7796638,29.6165149 C26.7348438,29.591995 26.6885779,29.5678356 26.6415892,29.5429551 C26.5602625,29.5004057 26.4767671,29.456414 26.3929103,29.4095376 C26.3029089,29.3594158 26.2064013,29.3067701 26.1080864,29.2526819 C24.9402357,28.6126386 23.486838,27.8157397 21.8165694,26.1498242 C20.132927,24.4694853 19.3301426,23.0123502 18.6845897,21.8415217 C18.6354323,21.7524565 18.5869978,21.6644731 18.5389246,21.5782927 C18.4865141,21.4856215 18.4507304,21.4106193 18.4218142,21.3504012 C18.4066333,21.3186695 18.3918137,21.2869377 18.3715724,21.2501578 C18.1662678,20.8794735 18.2392811,20.4172 18.5483224,20.1272875 L19.8387052,18.9175156 L19.9634062,18.7931127 C20.286544,18.4707473 20.4643783,18.0423691 20.4643783,17.5865861 C20.4643783,17.1308032 20.286544,16.7024249 19.9634062,16.3800595 L17.9309628,14.3524745 C17.6060176,14.0283061 17.1711911,13.8545028 16.7146775,13.8526999 C16.2552723,13.8545028 15.8247832,14.0355179 15.5023682,14.3618498 L14.9995888,14.8717209 C14.7151263,15.2431263 14.4718692,15.675471 14.2943963,16.1265663 L14.2943963,16.1265663 Z" id="Shape" fill="#000000" fill-rule="nonzero"></path>
                <path d="M24.0836063,44 C24.0626142,44 23.9428147,43.9989142 23.8320636,43.9981904 C23.7462857,43.9974665 23.6659367,43.9967425 23.6500117,43.9967425 C23.1367922,43.9956568 22.7209323,43.5790731 22.7216562,43.0658536 C22.7223801,42.5526339 23.1378779,42.137136 23.6507357,42.137136 C23.6637652,42.137136 23.7517146,42.1374979 23.8465408,42.1385837 C23.9486056,42.1393076 24.0589949,42.1400315 24.0803489,42.1400315 C34.0374599,42.0984093 42.1403934,33.9607303 42.1403934,24 C42.1403934,13.9972855 34.0027145,5.85960662 24,5.85960662 C13.9972855,5.85960662 5.85960662,13.9972855 5.85960662,24 C5.85960662,27.8936644 7.07388839,31.6034673 9.37070886,34.729112 L10.434427,36.176116 C10.6023635,36.4048571 10.6566532,36.6976601 10.5820953,36.9712807 L9.68088456,40.2807868 L13.1923488,39.1128323 C13.4370148,39.0310356 13.7041206,39.0549232 13.9303281,39.17798 L15.7034329,40.1421669 C16.1544002,40.3875568 16.3212508,40.9521707 16.0758609,41.4034998 C15.8304711,41.8544671 15.2654952,42.0213178 14.8145279,41.7759278 L13.3964784,41.0046508 L8.62114768,42.5935322 C8.2957708,42.7017499 7.93782008,42.6224868 7.68844896,42.3865071 C7.43943975,42.1508895 7.34027034,41.7976438 7.43039147,41.466838 L8.67000852,36.9159051 L7.87231041,35.8304711 C5.33914837,32.3834308 4,28.2925134 4,24 C4,12.9719321 12.9719321,4 24,4 C35.0280679,4 44,12.9719321 44,24 C44,34.9821025 35.0664326,43.9536727 24.085416,44 C24.084692,44 24.0843301,44 24.0836063,44 Z" id="Path" fill="#000000" fill-rule="nonzero"></path>
                <path d="M24,48 C20.1280518,48 16.293457,47.0592041 12.8843994,45.276123 L3.51342769,47.7930908 C3.19409175,47.8787842 2.85314944,47.7908935 2.61584475,47.5612792 C2.37817387,47.3320312 2.27819822,46.9943848 2.35253906,46.6724854 L4.39416506,37.8457031 C1.51794431,33.7825928 0,29.0050049 0,24 C0,17.5894776 2.49645994,11.5623779 7.02941897,7.02941897 C11.5623779,2.49645994 17.5894776,0 24,0 C30.4105224,0 36.4376221,2.49645994 40.970581,7.02941897 C45.5035401,11.5623779 48,17.5894776 48,24 C48,30.4105224 45.5035401,36.4376221 40.970581,40.970581 C36.4376221,45.5035401 30.4105224,48 24,48 Z M12.9993896,43.3300781 C13.1550292,43.3300781 13.3095703,43.3688964 13.4487305,43.4443359 C16.6655273,45.1937256 20.3140869,46.1184082 24,46.1184082 C36.1959229,46.1184082 46.1184082,36.1959229 46.1184082,24 C46.1184082,11.8040771 36.1959229,1.88159175 24,1.88159175 C11.8040771,1.88159175 1.88159175,11.8040771 1.88159175,24 C1.88159175,28.7471924 3.36291506,33.2717286 6.16516116,37.0843506 C6.32775881,37.305542 6.38562009,37.5864258 6.32373047,37.8537598 L4.53918459,45.5690917 L12.755127,43.3623047 C12.8353271,43.3406982 12.9173584,43.3300781 12.9993896,43.3300781 Z" id="Shape" fill="#000000" fill-rule="nonzero"></path>
            </g>
        </g>
    </g>
</svg>